%TF.GenerationSoftware,KiCad,Pcbnew,6.0.7+dfsg-1build1*%
%TF.CreationDate,2023-03-22T19:43:23+01:00*%
%TF.ProjectId,plotter_controller,706c6f74-7465-4725-9f63-6f6e74726f6c,rev?*%
%TF.SameCoordinates,Original*%
%TF.FileFunction,Soldermask,Top*%
%TF.FilePolarity,Negative*%
%FSLAX46Y46*%
G04 Gerber Fmt 4.6, Leading zero omitted, Abs format (unit mm)*
G04 Created by KiCad (PCBNEW 6.0.7+dfsg-1build1) date 2023-03-22 19:43:23*
%MOMM*%
%LPD*%
G01*
G04 APERTURE LIST*
G04 Aperture macros list*
%AMRoundRect*
0 Rectangle with rounded corners*
0 $1 Rounding radius*
0 $2 $3 $4 $5 $6 $7 $8 $9 X,Y pos of 4 corners*
0 Add a 4 corners polygon primitive as box body*
4,1,4,$2,$3,$4,$5,$6,$7,$8,$9,$2,$3,0*
0 Add four circle primitives for the rounded corners*
1,1,$1+$1,$2,$3*
1,1,$1+$1,$4,$5*
1,1,$1+$1,$6,$7*
1,1,$1+$1,$8,$9*
0 Add four rect primitives between the rounded corners*
20,1,$1+$1,$2,$3,$4,$5,0*
20,1,$1+$1,$4,$5,$6,$7,0*
20,1,$1+$1,$6,$7,$8,$9,0*
20,1,$1+$1,$8,$9,$2,$3,0*%
G04 Aperture macros list end*
%ADD10R,1.700000X1.700000*%
%ADD11C,1.524000*%
%ADD12C,1.700000*%
%ADD13RoundRect,0.250000X0.350000X0.450000X-0.350000X0.450000X-0.350000X-0.450000X0.350000X-0.450000X0*%
%ADD14R,1.300000X3.400000*%
G04 APERTURE END LIST*
D10*
%TO.C,J1*%
X112500000Y-118000000D03*
%TD*%
%TO.C,J31*%
X145250000Y-39750000D03*
%TD*%
%TO.C,J24*%
X146000000Y-142750000D03*
%TD*%
%TO.C,J20*%
X146000000Y-120250000D03*
%TD*%
%TO.C,J3*%
X146000000Y-139000000D03*
%TD*%
%TO.C,J11*%
X112500000Y-106750000D03*
%TD*%
D11*
%TO.C,D1*%
X136000000Y-33000000D03*
X136000000Y-35540000D03*
X136000000Y-38080000D03*
X136000000Y-40620000D03*
X136000000Y-43160000D03*
X136000000Y-45700000D03*
X136000000Y-48240000D03*
X136000000Y-50780000D03*
%TD*%
D10*
%TO.C,J18*%
X112500000Y-140250000D03*
%TD*%
%TO.C,J28*%
X145250000Y-43500000D03*
%TD*%
%TO.C,J16*%
X112500000Y-132750000D03*
%TD*%
%TO.C,J30*%
X145250000Y-36000000D03*
%TD*%
%TO.C,J4*%
X146000000Y-135250000D03*
%TD*%
%TO.C,J6*%
X146000000Y-105250000D03*
%TD*%
%TO.C,U1*%
X122380000Y-105870000D03*
D12*
X122380000Y-108410000D03*
X122380000Y-110950000D03*
X122380000Y-113490000D03*
X122380000Y-116030000D03*
X122380000Y-118570000D03*
X122380000Y-121110000D03*
X122380000Y-123650000D03*
X122380000Y-126190000D03*
X122380000Y-128730000D03*
X122380000Y-131270000D03*
X122380000Y-133810000D03*
X122380000Y-136350000D03*
X122380000Y-138890000D03*
X122380000Y-141430000D03*
X122380000Y-143970000D03*
X122380000Y-146510000D03*
X122380000Y-149050000D03*
X122380000Y-151590000D03*
X122380000Y-154130000D03*
X137620000Y-154130000D03*
X137620000Y-151590000D03*
X137620000Y-149050000D03*
X137620000Y-146510000D03*
X137620000Y-143970000D03*
X137620000Y-141430000D03*
X137620000Y-138890000D03*
X137620000Y-136350000D03*
X137620000Y-133810000D03*
X137620000Y-131270000D03*
X137620000Y-128730000D03*
X137620000Y-126190000D03*
X137620000Y-123650000D03*
X137620000Y-121110000D03*
X137620000Y-118570000D03*
X137620000Y-116030000D03*
X137620000Y-113490000D03*
X137620000Y-110950000D03*
X137620000Y-108410000D03*
X137620000Y-105870000D03*
X133810000Y-150320000D03*
X131270000Y-150320000D03*
X128730000Y-150320000D03*
X126190000Y-150320000D03*
%TD*%
D10*
%TO.C,J23*%
X146000000Y-131500000D03*
%TD*%
%TO.C,J15*%
X112500000Y-129000000D03*
%TD*%
%TO.C,J21*%
X146000000Y-124000000D03*
%TD*%
%TO.C,J5*%
X146000000Y-109000000D03*
%TD*%
D13*
%TO.C,R1*%
X146500000Y-58000000D03*
X144500000Y-58000000D03*
%TD*%
D10*
%TO.C,J2*%
X112500000Y-121600000D03*
%TD*%
%TO.C,J13*%
X112500000Y-114250000D03*
%TD*%
%TO.C,J19*%
X112500000Y-144000000D03*
%TD*%
D14*
%TO.C,BZ1*%
X137650000Y-65500000D03*
X146350000Y-65500000D03*
%TD*%
D10*
%TO.C,J27*%
X146000000Y-97500000D03*
%TD*%
%TO.C,J17*%
X112500000Y-136500000D03*
%TD*%
%TO.C,J32*%
X145250000Y-32250000D03*
%TD*%
%TO.C,J8*%
X146000000Y-116500000D03*
%TD*%
%TO.C,J14*%
X112500000Y-125250000D03*
%TD*%
%TO.C,J26*%
X146000000Y-150250000D03*
%TD*%
%TO.C,J25*%
X146000000Y-146500000D03*
%TD*%
%TO.C,J12*%
X112500000Y-110500000D03*
%TD*%
%TO.C,J29*%
X145250000Y-47250000D03*
%TD*%
%TO.C,J9*%
X146000000Y-101250000D03*
%TD*%
%TO.C,J22*%
X146000000Y-127750000D03*
%TD*%
%TO.C,J7*%
X146000000Y-112750000D03*
%TD*%
D11*
%TO.C,J10*%
X130000000Y-75000000D03*
X130000000Y-77540000D03*
X130000000Y-80080000D03*
X130000000Y-82620000D03*
X130000000Y-85160000D03*
%TD*%
M02*
