%TF.GenerationSoftware,KiCad,Pcbnew,6.0.7+dfsg-1build1*%
%TF.CreationDate,2023-03-22T19:43:23+01:00*%
%TF.ProjectId,plotter_controller,706c6f74-7465-4725-9f63-6f6e74726f6c,rev?*%
%TF.SameCoordinates,Original*%
%TF.FileFunction,Copper,L2,Bot*%
%TF.FilePolarity,Positive*%
%FSLAX46Y46*%
G04 Gerber Fmt 4.6, Leading zero omitted, Abs format (unit mm)*
G04 Created by KiCad (PCBNEW 6.0.7+dfsg-1build1) date 2023-03-22 19:43:23*
%MOMM*%
%LPD*%
G01*
G04 APERTURE LIST*
%TA.AperFunction,ComponentPad*%
%ADD10R,1.700000X1.700000*%
%TD*%
%TA.AperFunction,ComponentPad*%
%ADD11C,1.524000*%
%TD*%
%TA.AperFunction,ComponentPad*%
%ADD12C,1.700000*%
%TD*%
%TA.AperFunction,ViaPad*%
%ADD13C,0.800000*%
%TD*%
%TA.AperFunction,Conductor*%
%ADD14C,0.400000*%
%TD*%
G04 APERTURE END LIST*
D10*
%TO.P,J1,1,Pin_1*%
%TO.N,/uC_UART1_Tx*%
X112500000Y-118000000D03*
%TD*%
%TO.P,J31,1,Pin_1*%
%TO.N,/uC_UART1_Rx*%
X145250000Y-39750000D03*
%TD*%
%TO.P,J24,1,Pin_1*%
%TO.N,Net-(J24-Pad1)*%
X146000000Y-142750000D03*
%TD*%
%TO.P,J20,1,Pin_1*%
%TO.N,Net-(J20-Pad1)*%
X146000000Y-120250000D03*
%TD*%
%TO.P,J3,1,Pin_1*%
%TO.N,/uC_UART2_Tx*%
X146000000Y-139000000D03*
%TD*%
%TO.P,J11,1,Pin_1*%
%TO.N,Net-(J11-Pad1)*%
X112500000Y-106750000D03*
%TD*%
D11*
%TO.P,D1,1,GND*%
%TO.N,GND*%
X136000000Y-33000000D03*
%TO.P,D1,2,VCC*%
%TO.N,/uC_3.3V*%
X136000000Y-35540000D03*
%TO.P,D1,3,SCL*%
%TO.N,/uC_SCK*%
X136000000Y-38080000D03*
%TO.P,D1,4,SDA*%
%TO.N,/uC_MOSI*%
X136000000Y-40620000D03*
%TO.P,D1,5,RES*%
%TO.N,/uC_RES*%
X136000000Y-43160000D03*
%TO.P,D1,6,DC*%
%TO.N,/uC_DC*%
X136000000Y-45700000D03*
%TO.P,D1,7,CS*%
%TO.N,/uC_CS*%
X136000000Y-48240000D03*
%TO.P,D1,8,BL*%
%TO.N,unconnected-(D1-Pad8)*%
X136000000Y-50780000D03*
%TD*%
D10*
%TO.P,J18,1,Pin_1*%
%TO.N,Net-(J18-Pad1)*%
X112500000Y-140250000D03*
%TD*%
%TO.P,J28,1,Pin_1*%
%TO.N,/uC_UART3_Tx*%
X145250000Y-43500000D03*
%TD*%
%TO.P,J16,1,Pin_1*%
%TO.N,Net-(J16-Pad1)*%
X112500000Y-132750000D03*
%TD*%
%TO.P,J30,1,Pin_1*%
%TO.N,/uC_UART1_Tx*%
X145250000Y-36000000D03*
%TD*%
%TO.P,J4,1,Pin_1*%
%TO.N,/uC_UART2_Rx*%
X146000000Y-135250000D03*
%TD*%
%TO.P,J6,1,Pin_1*%
%TO.N,/uC_UART3_Rx*%
X146000000Y-105250000D03*
%TD*%
%TO.P,U1,1,PB12*%
%TO.N,Net-(J11-Pad1)*%
X122380000Y-105870000D03*
D12*
%TO.P,U1,2,PB13*%
%TO.N,/uC_SCK*%
X122380000Y-108410000D03*
%TO.P,U1,3,PB14*%
%TO.N,Net-(J12-Pad1)*%
X122380000Y-110950000D03*
%TO.P,U1,4,PB15*%
%TO.N,/uC_MOSI*%
X122380000Y-113490000D03*
%TO.P,U1,5,PA8*%
%TO.N,Net-(J13-Pad1)*%
X122380000Y-116030000D03*
%TO.P,U1,6,PA9*%
%TO.N,/uC_UART1_Tx*%
X122380000Y-118570000D03*
%TO.P,U1,7,PA10*%
%TO.N,/uC_UART1_Rx*%
X122380000Y-121110000D03*
%TO.P,U1,8,PA11*%
%TO.N,/uC_buzz*%
X122380000Y-123650000D03*
%TO.P,U1,9,PA12*%
%TO.N,Net-(J14-Pad1)*%
X122380000Y-126190000D03*
%TO.P,U1,10,PA15*%
%TO.N,Net-(J15-Pad1)*%
X122380000Y-128730000D03*
%TO.P,U1,11,PB3*%
%TO.N,Net-(J16-Pad1)*%
X122380000Y-131270000D03*
%TO.P,U1,12,PB4*%
%TO.N,Net-(J17-Pad1)*%
X122380000Y-133810000D03*
%TO.P,U1,13,PB5*%
%TO.N,Net-(J18-Pad1)*%
X122380000Y-136350000D03*
%TO.P,U1,14,PB6*%
%TO.N,/uC_RES*%
X122380000Y-138890000D03*
%TO.P,U1,15,PB7*%
%TO.N,/uC_DC*%
X122380000Y-141430000D03*
%TO.P,U1,16,PB8*%
%TO.N,/uC_CS*%
X122380000Y-143970000D03*
%TO.P,U1,17,PB9*%
%TO.N,Net-(J19-Pad1)*%
X122380000Y-146510000D03*
%TO.P,U1,18,5V*%
%TO.N,/uC_5V*%
X122380000Y-149050000D03*
%TO.P,U1,19,GND*%
%TO.N,unconnected-(U1-Pad19)*%
X122380000Y-151590000D03*
%TO.P,U1,20,3V3*%
%TO.N,unconnected-(U1-Pad20)*%
X122380000Y-154130000D03*
%TO.P,U1,21,VBat*%
%TO.N,unconnected-(U1-Pad21)*%
X137620000Y-154130000D03*
%TO.P,U1,22,PC13*%
%TO.N,Net-(J26-Pad1)*%
X137620000Y-151590000D03*
%TO.P,U1,23,PC14*%
%TO.N,Net-(J25-Pad1)*%
X137620000Y-149050000D03*
%TO.P,U1,24,PC15*%
%TO.N,Net-(J24-Pad1)*%
X137620000Y-146510000D03*
%TO.P,U1,25,PA0*%
%TO.N,/uC_ADC0*%
X137620000Y-143970000D03*
%TO.P,U1,26,PA1*%
%TO.N,/uC_ADC1*%
X137620000Y-141430000D03*
%TO.P,U1,27,PA2*%
%TO.N,/uC_UART2_Tx*%
X137620000Y-138890000D03*
%TO.P,U1,28,PA3*%
%TO.N,/uC_UART2_Rx*%
X137620000Y-136350000D03*
%TO.P,U1,29,PA4*%
%TO.N,Net-(J23-Pad1)*%
X137620000Y-133810000D03*
%TO.P,U1,30,PA5*%
%TO.N,Net-(J22-Pad1)*%
X137620000Y-131270000D03*
%TO.P,U1,31,PA6*%
%TO.N,Net-(J21-Pad1)*%
X137620000Y-128730000D03*
%TO.P,U1,32,PA7*%
%TO.N,Net-(J20-Pad1)*%
X137620000Y-126190000D03*
%TO.P,U1,33,PB0*%
%TO.N,/uC_SELECT*%
X137620000Y-123650000D03*
%TO.P,U1,34,PB1*%
%TO.N,/uC_CANCEL*%
X137620000Y-121110000D03*
%TO.P,U1,35,PB10*%
%TO.N,/uC_UART3_Tx*%
X137620000Y-118570000D03*
%TO.P,U1,36,PB11*%
%TO.N,/uC_UART3_Rx*%
X137620000Y-116030000D03*
%TO.P,U1,37,RST*%
%TO.N,unconnected-(U1-Pad37)*%
X137620000Y-113490000D03*
%TO.P,U1,38,3V3*%
%TO.N,unconnected-(U1-Pad38)*%
X137620000Y-110950000D03*
%TO.P,U1,39,GND*%
%TO.N,GND*%
X137620000Y-108410000D03*
%TO.P,U1,40,GND*%
%TO.N,/uC_3.3V*%
X137620000Y-105870000D03*
%TO.P,U1,41,GND*%
%TO.N,unconnected-(U1-Pad41)*%
X133810000Y-150320000D03*
%TO.P,U1,42,SWCLK*%
%TO.N,unconnected-(U1-Pad42)*%
X131270000Y-150320000D03*
%TO.P,U1,43,SWIO*%
%TO.N,unconnected-(U1-Pad43)*%
X128730000Y-150320000D03*
%TO.P,U1,44,3V3*%
%TO.N,unconnected-(U1-Pad44)*%
X126190000Y-150320000D03*
%TD*%
D10*
%TO.P,J23,1,Pin_1*%
%TO.N,Net-(J23-Pad1)*%
X146000000Y-131500000D03*
%TD*%
%TO.P,J15,1,Pin_1*%
%TO.N,Net-(J15-Pad1)*%
X112500000Y-129000000D03*
%TD*%
%TO.P,J21,1,Pin_1*%
%TO.N,Net-(J21-Pad1)*%
X146000000Y-124000000D03*
%TD*%
%TO.P,J5,1,Pin_1*%
%TO.N,/uC_UART3_Tx*%
X146000000Y-109000000D03*
%TD*%
%TO.P,J2,1,Pin_1*%
%TO.N,/uC_UART1_Rx*%
X112500000Y-121600000D03*
%TD*%
%TO.P,J13,1,Pin_1*%
%TO.N,Net-(J13-Pad1)*%
X112500000Y-114250000D03*
%TD*%
%TO.P,J19,1,Pin_1*%
%TO.N,Net-(J19-Pad1)*%
X112500000Y-144000000D03*
%TD*%
%TO.P,J27,1,Pin_1*%
%TO.N,GND*%
X146000000Y-97500000D03*
%TD*%
%TO.P,J17,1,Pin_1*%
%TO.N,Net-(J17-Pad1)*%
X112500000Y-136500000D03*
%TD*%
%TO.P,J32,1,Pin_1*%
%TO.N,GND*%
X145250000Y-32250000D03*
%TD*%
%TO.P,J8,1,Pin_1*%
%TO.N,/uC_SELECT*%
X146000000Y-116500000D03*
%TD*%
%TO.P,J14,1,Pin_1*%
%TO.N,Net-(J14-Pad1)*%
X112500000Y-125250000D03*
%TD*%
%TO.P,J26,1,Pin_1*%
%TO.N,Net-(J26-Pad1)*%
X146000000Y-150250000D03*
%TD*%
%TO.P,J25,1,Pin_1*%
%TO.N,Net-(J25-Pad1)*%
X146000000Y-146500000D03*
%TD*%
%TO.P,J12,1,Pin_1*%
%TO.N,Net-(J12-Pad1)*%
X112500000Y-110500000D03*
%TD*%
%TO.P,J29,1,Pin_1*%
%TO.N,/uC_UART3_Rx*%
X145250000Y-47250000D03*
%TD*%
%TO.P,J9,1,Pin_1*%
%TO.N,GND*%
X146000000Y-101250000D03*
%TD*%
%TO.P,J22,1,Pin_1*%
%TO.N,Net-(J22-Pad1)*%
X146000000Y-127750000D03*
%TD*%
%TO.P,J7,1,Pin_1*%
%TO.N,/uC_CANCEL*%
X146000000Y-112750000D03*
%TD*%
D11*
%TO.P,J10,1,SW*%
%TO.N,unconnected-(J10-Pad1)*%
X130000000Y-75000000D03*
%TO.P,J10,2,VRY*%
%TO.N,/uC_ADC0*%
X130000000Y-77540000D03*
%TO.P,J10,3,VRX*%
%TO.N,/uC_ADC1*%
X130000000Y-80080000D03*
%TO.P,J10,4,+5V*%
%TO.N,/uC_3.3V*%
X130000000Y-82620000D03*
%TO.P,J10,5,GND*%
%TO.N,GND*%
X130000000Y-85160000D03*
%TD*%
D13*
%TO.N,/uC_buzz*%
X120300000Y-65500000D03*
X134300000Y-65500000D03*
%TO.N,GND*%
X132000000Y-129500000D03*
X132000000Y-69500000D03*
X117000000Y-37000000D03*
X127000000Y-157000000D03*
X144500000Y-72000000D03*
X132000000Y-114500000D03*
X129500000Y-89500000D03*
X144500000Y-87000000D03*
X132000000Y-54500000D03*
X129500000Y-157000000D03*
X134500000Y-77000000D03*
X117000000Y-157000000D03*
X127000000Y-29500000D03*
X117000000Y-27000000D03*
X134500000Y-87000000D03*
X142000000Y-157000000D03*
X117000000Y-39500000D03*
X132000000Y-59500000D03*
X129500000Y-34500000D03*
X129500000Y-92000000D03*
X119500000Y-27000000D03*
X117000000Y-52000000D03*
X142000000Y-27000000D03*
X122000000Y-32000000D03*
X119500000Y-34500000D03*
X112000000Y-154500000D03*
X132000000Y-29500000D03*
X112000000Y-27000000D03*
X132000000Y-132000000D03*
X117000000Y-62000000D03*
X117000000Y-32000000D03*
X117000000Y-42000000D03*
X129500000Y-154500000D03*
X134500000Y-74500000D03*
X134500000Y-97000000D03*
X122000000Y-34500000D03*
X132000000Y-127000000D03*
X117000000Y-44500000D03*
X129500000Y-62000000D03*
X114500000Y-27000000D03*
X119500000Y-32000000D03*
X127000000Y-32000000D03*
X129500000Y-69500000D03*
X117000000Y-29500000D03*
X129500000Y-32000000D03*
X112000000Y-149500000D03*
X127000000Y-34500000D03*
X132000000Y-122000000D03*
X134500000Y-54500000D03*
X144500000Y-79500000D03*
X117000000Y-154500000D03*
X132000000Y-157000000D03*
X117000000Y-49500000D03*
X124500000Y-32000000D03*
X127000000Y-27000000D03*
X122000000Y-27000000D03*
X117000000Y-57000000D03*
X132000000Y-119500000D03*
X114500000Y-157000000D03*
X144500000Y-77000000D03*
X144500000Y-84500000D03*
X117000000Y-47000000D03*
X132000000Y-57000000D03*
X132000000Y-62000000D03*
X124500000Y-27000000D03*
X144500000Y-82000000D03*
X129500000Y-29500000D03*
X124500000Y-29500000D03*
X117000000Y-54500000D03*
X132000000Y-117000000D03*
X132000000Y-27000000D03*
X132000000Y-134500000D03*
X134500000Y-59500000D03*
X132000000Y-124500000D03*
X144500000Y-89500000D03*
X132000000Y-32000000D03*
X132000000Y-92000000D03*
X134500000Y-94500000D03*
X114500000Y-152000000D03*
X129500000Y-59500000D03*
X132000000Y-154500000D03*
X132000000Y-97000000D03*
X117000000Y-152000000D03*
X129500000Y-27000000D03*
X129500000Y-57000000D03*
X144500000Y-74500000D03*
X132000000Y-94500000D03*
X124500000Y-34500000D03*
X119500000Y-29500000D03*
X134500000Y-72000000D03*
X127000000Y-154500000D03*
X112000000Y-152000000D03*
X117000000Y-59500000D03*
X122000000Y-29500000D03*
X132000000Y-34500000D03*
X132000000Y-89500000D03*
X117000000Y-34500000D03*
X144500000Y-92000000D03*
X114500000Y-154500000D03*
X134500000Y-89500000D03*
X139500000Y-27000000D03*
X134500000Y-92000000D03*
X119500000Y-37000000D03*
%TD*%
D14*
%TO.N,/uC_buzz*%
X120300000Y-65500000D02*
X134300000Y-65500000D01*
%TO.N,/uC_3.3V*%
X135980000Y-82620000D02*
X138050000Y-80550000D01*
X130000000Y-82620000D02*
X135980000Y-82620000D01*
X138050000Y-80550000D02*
X138050000Y-36250000D01*
X137340000Y-35540000D02*
X136000000Y-35540000D01*
X138050000Y-36250000D02*
X137340000Y-35540000D01*
%TO.N,/uC_UART1_Tx*%
X138410050Y-102200000D02*
X133710050Y-102200000D01*
X133710050Y-102200000D02*
X126930000Y-108980050D01*
X138750000Y-101860050D02*
X138410050Y-102200000D01*
X126930000Y-108980050D02*
X126930000Y-117570000D01*
X140250000Y-36000000D02*
X138750000Y-37500000D01*
X125930000Y-118570000D02*
X122380000Y-118570000D01*
X138750000Y-37500000D02*
X138750000Y-101860050D01*
X145250000Y-36000000D02*
X140250000Y-36000000D01*
X126930000Y-117570000D02*
X125930000Y-118570000D01*
%TO.N,/uC_UART1_Rx*%
X139500000Y-40750000D02*
X140500000Y-39750000D01*
X138700000Y-102900000D02*
X139500000Y-102100000D01*
X140500000Y-39750000D02*
X145250000Y-39750000D01*
X127630000Y-118120000D02*
X127630000Y-109270000D01*
X139500000Y-102100000D02*
X139500000Y-40750000D01*
X124640000Y-121110000D02*
X127630000Y-118120000D01*
X127630000Y-109270000D02*
X134000000Y-102900000D01*
X134000000Y-102900000D02*
X138700000Y-102900000D01*
X122380000Y-121110000D02*
X124640000Y-121110000D01*
%TO.N,/uC_UART3_Tx*%
X145250000Y-43500000D02*
X142450000Y-43500000D01*
X142250000Y-109000000D02*
X146000000Y-109000000D01*
X140200000Y-45750000D02*
X140200000Y-106950000D01*
X142450000Y-43500000D02*
X140200000Y-45750000D01*
X140200000Y-106950000D02*
X142250000Y-109000000D01*
%TO.N,/uC_UART3_Rx*%
X141000000Y-104000000D02*
X142250000Y-105250000D01*
X143000000Y-47250000D02*
X141000000Y-49250000D01*
X145250000Y-47250000D02*
X143000000Y-47250000D01*
X142250000Y-105250000D02*
X146000000Y-105250000D01*
X141000000Y-49250000D02*
X141000000Y-104000000D01*
%TD*%
%TA.AperFunction,Conductor*%
%TO.N,GND*%
G36*
X148942121Y-22020002D02*
G01*
X148988614Y-22073658D01*
X149000000Y-22126000D01*
X149000000Y-159874000D01*
X148979998Y-159942121D01*
X148926342Y-159988614D01*
X148874000Y-160000000D01*
X107126000Y-160000000D01*
X107057879Y-159979998D01*
X107011386Y-159926342D01*
X107000000Y-159874000D01*
X107000000Y-157000000D01*
X107486540Y-157000000D01*
X107506359Y-157315020D01*
X107565505Y-157625072D01*
X107663044Y-157925266D01*
X107664731Y-157928852D01*
X107664733Y-157928856D01*
X107795750Y-158207283D01*
X107795754Y-158207290D01*
X107797438Y-158210869D01*
X107966568Y-158477375D01*
X108167767Y-158720582D01*
X108397860Y-158936654D01*
X108653221Y-159122184D01*
X108929821Y-159274247D01*
X108933490Y-159275700D01*
X108933495Y-159275702D01*
X109219628Y-159388990D01*
X109223298Y-159390443D01*
X109529025Y-159468940D01*
X109842179Y-159508500D01*
X110157821Y-159508500D01*
X110470975Y-159468940D01*
X110776702Y-159390443D01*
X110780372Y-159388990D01*
X111066505Y-159275702D01*
X111066510Y-159275700D01*
X111070179Y-159274247D01*
X111346779Y-159122184D01*
X111602140Y-158936654D01*
X111832233Y-158720582D01*
X112033432Y-158477375D01*
X112202562Y-158210869D01*
X112204246Y-158207290D01*
X112204250Y-158207283D01*
X112335267Y-157928856D01*
X112335269Y-157928852D01*
X112336956Y-157925266D01*
X112434495Y-157625072D01*
X112493641Y-157315020D01*
X112513460Y-157000000D01*
X143486540Y-157000000D01*
X143506359Y-157315020D01*
X143565505Y-157625072D01*
X143663044Y-157925266D01*
X143664731Y-157928852D01*
X143664733Y-157928856D01*
X143795750Y-158207283D01*
X143795754Y-158207290D01*
X143797438Y-158210869D01*
X143966568Y-158477375D01*
X144167767Y-158720582D01*
X144397860Y-158936654D01*
X144653221Y-159122184D01*
X144929821Y-159274247D01*
X144933490Y-159275700D01*
X144933495Y-159275702D01*
X145219628Y-159388990D01*
X145223298Y-159390443D01*
X145529025Y-159468940D01*
X145842179Y-159508500D01*
X146157821Y-159508500D01*
X146470975Y-159468940D01*
X146776702Y-159390443D01*
X146780372Y-159388990D01*
X147066505Y-159275702D01*
X147066510Y-159275700D01*
X147070179Y-159274247D01*
X147346779Y-159122184D01*
X147602140Y-158936654D01*
X147832233Y-158720582D01*
X148033432Y-158477375D01*
X148202562Y-158210869D01*
X148204246Y-158207290D01*
X148204250Y-158207283D01*
X148335267Y-157928856D01*
X148335269Y-157928852D01*
X148336956Y-157925266D01*
X148434495Y-157625072D01*
X148493641Y-157315020D01*
X148513460Y-157000000D01*
X148493641Y-156684980D01*
X148434495Y-156374928D01*
X148336956Y-156074734D01*
X148330667Y-156061369D01*
X148204250Y-155792717D01*
X148204246Y-155792710D01*
X148202562Y-155789131D01*
X148033432Y-155522625D01*
X147929419Y-155396895D01*
X147834758Y-155282470D01*
X147834757Y-155282469D01*
X147832233Y-155279418D01*
X147602140Y-155063346D01*
X147346779Y-154877816D01*
X147271221Y-154836277D01*
X147073648Y-154727660D01*
X147073647Y-154727659D01*
X147070179Y-154725753D01*
X147066510Y-154724300D01*
X147066505Y-154724298D01*
X146780372Y-154611010D01*
X146780371Y-154611010D01*
X146776702Y-154609557D01*
X146470975Y-154531060D01*
X146157821Y-154491500D01*
X145842179Y-154491500D01*
X145529025Y-154531060D01*
X145223298Y-154609557D01*
X145219629Y-154611010D01*
X145219628Y-154611010D01*
X144933495Y-154724298D01*
X144933490Y-154724300D01*
X144929821Y-154725753D01*
X144926353Y-154727659D01*
X144926352Y-154727660D01*
X144728780Y-154836277D01*
X144653221Y-154877816D01*
X144397860Y-155063346D01*
X144167767Y-155279418D01*
X144165243Y-155282469D01*
X144165242Y-155282470D01*
X144070581Y-155396895D01*
X143966568Y-155522625D01*
X143797438Y-155789131D01*
X143795754Y-155792710D01*
X143795750Y-155792717D01*
X143669333Y-156061369D01*
X143663044Y-156074734D01*
X143565505Y-156374928D01*
X143506359Y-156684980D01*
X143488833Y-156963559D01*
X143486540Y-157000000D01*
X112513460Y-157000000D01*
X112493641Y-156684980D01*
X112434495Y-156374928D01*
X112336956Y-156074734D01*
X112330667Y-156061369D01*
X112204250Y-155792717D01*
X112204246Y-155792710D01*
X112202562Y-155789131D01*
X112033432Y-155522625D01*
X111929419Y-155396895D01*
X111834758Y-155282470D01*
X111834757Y-155282469D01*
X111832233Y-155279418D01*
X111602140Y-155063346D01*
X111346779Y-154877816D01*
X111271221Y-154836277D01*
X111073648Y-154727660D01*
X111073647Y-154727659D01*
X111070179Y-154725753D01*
X111066510Y-154724300D01*
X111066505Y-154724298D01*
X110780372Y-154611010D01*
X110780371Y-154611010D01*
X110776702Y-154609557D01*
X110470975Y-154531060D01*
X110157821Y-154491500D01*
X109842179Y-154491500D01*
X109529025Y-154531060D01*
X109223298Y-154609557D01*
X109219629Y-154611010D01*
X109219628Y-154611010D01*
X108933495Y-154724298D01*
X108933490Y-154724300D01*
X108929821Y-154725753D01*
X108926353Y-154727659D01*
X108926352Y-154727660D01*
X108728780Y-154836277D01*
X108653221Y-154877816D01*
X108397860Y-155063346D01*
X108167767Y-155279418D01*
X108165243Y-155282469D01*
X108165242Y-155282470D01*
X108070581Y-155396895D01*
X107966568Y-155522625D01*
X107797438Y-155789131D01*
X107795754Y-155792710D01*
X107795750Y-155792717D01*
X107669333Y-156061369D01*
X107663044Y-156074734D01*
X107565505Y-156374928D01*
X107506359Y-156684980D01*
X107488833Y-156963559D01*
X107486540Y-157000000D01*
X107000000Y-157000000D01*
X107000000Y-154096695D01*
X121017251Y-154096695D01*
X121017548Y-154101848D01*
X121017548Y-154101851D01*
X121023011Y-154196590D01*
X121030110Y-154319715D01*
X121031247Y-154324761D01*
X121031248Y-154324767D01*
X121051119Y-154412939D01*
X121079222Y-154537639D01*
X121117461Y-154631811D01*
X121155607Y-154725753D01*
X121163266Y-154744616D01*
X121279987Y-154935088D01*
X121426250Y-155103938D01*
X121598126Y-155246632D01*
X121791000Y-155359338D01*
X121999692Y-155439030D01*
X122004760Y-155440061D01*
X122004763Y-155440062D01*
X122112017Y-155461883D01*
X122218597Y-155483567D01*
X122223772Y-155483757D01*
X122223774Y-155483757D01*
X122436673Y-155491564D01*
X122436677Y-155491564D01*
X122441837Y-155491753D01*
X122446957Y-155491097D01*
X122446959Y-155491097D01*
X122658288Y-155464025D01*
X122658289Y-155464025D01*
X122663416Y-155463368D01*
X122668366Y-155461883D01*
X122872429Y-155400661D01*
X122872434Y-155400659D01*
X122877384Y-155399174D01*
X123077994Y-155300896D01*
X123259860Y-155171173D01*
X123418096Y-155013489D01*
X123477594Y-154930689D01*
X123545435Y-154836277D01*
X123548453Y-154832077D01*
X123601002Y-154725753D01*
X123645136Y-154636453D01*
X123645137Y-154636451D01*
X123647430Y-154631811D01*
X123712370Y-154418069D01*
X123741529Y-154196590D01*
X123743156Y-154130000D01*
X123740418Y-154096695D01*
X136257251Y-154096695D01*
X136257548Y-154101848D01*
X136257548Y-154101851D01*
X136263011Y-154196590D01*
X136270110Y-154319715D01*
X136271247Y-154324761D01*
X136271248Y-154324767D01*
X136291119Y-154412939D01*
X136319222Y-154537639D01*
X136357461Y-154631811D01*
X136395607Y-154725753D01*
X136403266Y-154744616D01*
X136519987Y-154935088D01*
X136666250Y-155103938D01*
X136838126Y-155246632D01*
X137031000Y-155359338D01*
X137239692Y-155439030D01*
X137244760Y-155440061D01*
X137244763Y-155440062D01*
X137352017Y-155461883D01*
X137458597Y-155483567D01*
X137463772Y-155483757D01*
X137463774Y-155483757D01*
X137676673Y-155491564D01*
X137676677Y-155491564D01*
X137681837Y-155491753D01*
X137686957Y-155491097D01*
X137686959Y-155491097D01*
X137898288Y-155464025D01*
X137898289Y-155464025D01*
X137903416Y-155463368D01*
X137908366Y-155461883D01*
X138112429Y-155400661D01*
X138112434Y-155400659D01*
X138117384Y-155399174D01*
X138317994Y-155300896D01*
X138499860Y-155171173D01*
X138658096Y-155013489D01*
X138717594Y-154930689D01*
X138785435Y-154836277D01*
X138788453Y-154832077D01*
X138841002Y-154725753D01*
X138885136Y-154636453D01*
X138885137Y-154636451D01*
X138887430Y-154631811D01*
X138952370Y-154418069D01*
X138981529Y-154196590D01*
X138983156Y-154130000D01*
X138964852Y-153907361D01*
X138910431Y-153690702D01*
X138821354Y-153485840D01*
X138700014Y-153298277D01*
X138549670Y-153133051D01*
X138545619Y-153129852D01*
X138545615Y-153129848D01*
X138378414Y-152997800D01*
X138378410Y-152997798D01*
X138374359Y-152994598D01*
X138333053Y-152971796D01*
X138283084Y-152921364D01*
X138268312Y-152851921D01*
X138293428Y-152785516D01*
X138320780Y-152758909D01*
X138364603Y-152727650D01*
X138499860Y-152631173D01*
X138658096Y-152473489D01*
X138717594Y-152390689D01*
X138785435Y-152296277D01*
X138788453Y-152292077D01*
X138887430Y-152091811D01*
X138952370Y-151878069D01*
X138981529Y-151656590D01*
X138982177Y-151630062D01*
X138983074Y-151593365D01*
X138983074Y-151593361D01*
X138983156Y-151590000D01*
X138964852Y-151367361D01*
X138910431Y-151150702D01*
X138909314Y-151148134D01*
X144641500Y-151148134D01*
X144648255Y-151210316D01*
X144699385Y-151346705D01*
X144786739Y-151463261D01*
X144903295Y-151550615D01*
X145039684Y-151601745D01*
X145101866Y-151608500D01*
X146898134Y-151608500D01*
X146960316Y-151601745D01*
X147096705Y-151550615D01*
X147213261Y-151463261D01*
X147300615Y-151346705D01*
X147351745Y-151210316D01*
X147358500Y-151148134D01*
X147358500Y-149351866D01*
X147351745Y-149289684D01*
X147300615Y-149153295D01*
X147213261Y-149036739D01*
X147096705Y-148949385D01*
X146960316Y-148898255D01*
X146898134Y-148891500D01*
X145101866Y-148891500D01*
X145039684Y-148898255D01*
X144903295Y-148949385D01*
X144786739Y-149036739D01*
X144699385Y-149153295D01*
X144648255Y-149289684D01*
X144641500Y-149351866D01*
X144641500Y-151148134D01*
X138909314Y-151148134D01*
X138821354Y-150945840D01*
X138700014Y-150758277D01*
X138549670Y-150593051D01*
X138545619Y-150589852D01*
X138545615Y-150589848D01*
X138378414Y-150457800D01*
X138378410Y-150457798D01*
X138374359Y-150454598D01*
X138333053Y-150431796D01*
X138283084Y-150381364D01*
X138268312Y-150311921D01*
X138293428Y-150245516D01*
X138320780Y-150218909D01*
X138364603Y-150187650D01*
X138499860Y-150091173D01*
X138658096Y-149933489D01*
X138717594Y-149850689D01*
X138785435Y-149756277D01*
X138788453Y-149752077D01*
X138826132Y-149675840D01*
X138885136Y-149556453D01*
X138885137Y-149556451D01*
X138887430Y-149551811D01*
X138952370Y-149338069D01*
X138981529Y-149116590D01*
X138982505Y-149076638D01*
X138983074Y-149053365D01*
X138983074Y-149053361D01*
X138983156Y-149050000D01*
X138964852Y-148827361D01*
X138910431Y-148610702D01*
X138821354Y-148405840D01*
X138700014Y-148218277D01*
X138549670Y-148053051D01*
X138545619Y-148049852D01*
X138545615Y-148049848D01*
X138378414Y-147917800D01*
X138378410Y-147917798D01*
X138374359Y-147914598D01*
X138333053Y-147891796D01*
X138283084Y-147841364D01*
X138268312Y-147771921D01*
X138293428Y-147705516D01*
X138320780Y-147678909D01*
X138364603Y-147647650D01*
X138499860Y-147551173D01*
X138653435Y-147398134D01*
X144641500Y-147398134D01*
X144648255Y-147460316D01*
X144699385Y-147596705D01*
X144786739Y-147713261D01*
X144903295Y-147800615D01*
X145039684Y-147851745D01*
X145101866Y-147858500D01*
X146898134Y-147858500D01*
X146960316Y-147851745D01*
X147096705Y-147800615D01*
X147213261Y-147713261D01*
X147300615Y-147596705D01*
X147351745Y-147460316D01*
X147358500Y-147398134D01*
X147358500Y-145601866D01*
X147351745Y-145539684D01*
X147300615Y-145403295D01*
X147213261Y-145286739D01*
X147096705Y-145199385D01*
X146960316Y-145148255D01*
X146898134Y-145141500D01*
X145101866Y-145141500D01*
X145039684Y-145148255D01*
X144903295Y-145199385D01*
X144786739Y-145286739D01*
X144699385Y-145403295D01*
X144648255Y-145539684D01*
X144641500Y-145601866D01*
X144641500Y-147398134D01*
X138653435Y-147398134D01*
X138658096Y-147393489D01*
X138717594Y-147310689D01*
X138785435Y-147216277D01*
X138788453Y-147212077D01*
X138887430Y-147011811D01*
X138952370Y-146798069D01*
X138981529Y-146576590D01*
X138983156Y-146510000D01*
X138964852Y-146287361D01*
X138910431Y-146070702D01*
X138821354Y-145865840D01*
X138700014Y-145678277D01*
X138549670Y-145513051D01*
X138545619Y-145509852D01*
X138545615Y-145509848D01*
X138378414Y-145377800D01*
X138378410Y-145377798D01*
X138374359Y-145374598D01*
X138333053Y-145351796D01*
X138283084Y-145301364D01*
X138268312Y-145231921D01*
X138293428Y-145165516D01*
X138320780Y-145138909D01*
X138379948Y-145096705D01*
X138499860Y-145011173D01*
X138658096Y-144853489D01*
X138717594Y-144770689D01*
X138785435Y-144676277D01*
X138788453Y-144672077D01*
X138887430Y-144471811D01*
X138952370Y-144258069D01*
X138981529Y-144036590D01*
X138983156Y-143970000D01*
X138964852Y-143747361D01*
X138939928Y-143648134D01*
X144641500Y-143648134D01*
X144648255Y-143710316D01*
X144699385Y-143846705D01*
X144786739Y-143963261D01*
X144903295Y-144050615D01*
X145039684Y-144101745D01*
X145101866Y-144108500D01*
X146898134Y-144108500D01*
X146960316Y-144101745D01*
X147096705Y-144050615D01*
X147213261Y-143963261D01*
X147300615Y-143846705D01*
X147351745Y-143710316D01*
X147358500Y-143648134D01*
X147358500Y-141851866D01*
X147351745Y-141789684D01*
X147300615Y-141653295D01*
X147213261Y-141536739D01*
X147096705Y-141449385D01*
X146960316Y-141398255D01*
X146898134Y-141391500D01*
X145101866Y-141391500D01*
X145039684Y-141398255D01*
X144903295Y-141449385D01*
X144786739Y-141536739D01*
X144699385Y-141653295D01*
X144648255Y-141789684D01*
X144641500Y-141851866D01*
X144641500Y-143648134D01*
X138939928Y-143648134D01*
X138910431Y-143530702D01*
X138821354Y-143325840D01*
X138700014Y-143138277D01*
X138549670Y-142973051D01*
X138545619Y-142969852D01*
X138545615Y-142969848D01*
X138378414Y-142837800D01*
X138378410Y-142837798D01*
X138374359Y-142834598D01*
X138333053Y-142811796D01*
X138283084Y-142761364D01*
X138268312Y-142691921D01*
X138293428Y-142625516D01*
X138320780Y-142598909D01*
X138364603Y-142567650D01*
X138499860Y-142471173D01*
X138658096Y-142313489D01*
X138717594Y-142230689D01*
X138785435Y-142136277D01*
X138788453Y-142132077D01*
X138887430Y-141931811D01*
X138952370Y-141718069D01*
X138981529Y-141496590D01*
X138982212Y-141468642D01*
X138983074Y-141433365D01*
X138983074Y-141433361D01*
X138983156Y-141430000D01*
X138964852Y-141207361D01*
X138910431Y-140990702D01*
X138821354Y-140785840D01*
X138700014Y-140598277D01*
X138549670Y-140433051D01*
X138545619Y-140429852D01*
X138545615Y-140429848D01*
X138378414Y-140297800D01*
X138378410Y-140297798D01*
X138374359Y-140294598D01*
X138333053Y-140271796D01*
X138283084Y-140221364D01*
X138268312Y-140151921D01*
X138293428Y-140085516D01*
X138320780Y-140058909D01*
X138364603Y-140027650D01*
X138499860Y-139931173D01*
X138533015Y-139898134D01*
X144641500Y-139898134D01*
X144648255Y-139960316D01*
X144699385Y-140096705D01*
X144786739Y-140213261D01*
X144903295Y-140300615D01*
X145039684Y-140351745D01*
X145101866Y-140358500D01*
X146898134Y-140358500D01*
X146960316Y-140351745D01*
X147096705Y-140300615D01*
X147213261Y-140213261D01*
X147300615Y-140096705D01*
X147351745Y-139960316D01*
X147358500Y-139898134D01*
X147358500Y-138101866D01*
X147351745Y-138039684D01*
X147300615Y-137903295D01*
X147213261Y-137786739D01*
X147096705Y-137699385D01*
X146960316Y-137648255D01*
X146898134Y-137641500D01*
X145101866Y-137641500D01*
X145039684Y-137648255D01*
X144903295Y-137699385D01*
X144786739Y-137786739D01*
X144699385Y-137903295D01*
X144648255Y-138039684D01*
X144641500Y-138101866D01*
X144641500Y-139898134D01*
X138533015Y-139898134D01*
X138658096Y-139773489D01*
X138717594Y-139690689D01*
X138785435Y-139596277D01*
X138788453Y-139592077D01*
X138887430Y-139391811D01*
X138952370Y-139178069D01*
X138981529Y-138956590D01*
X138982887Y-138901029D01*
X138983074Y-138893365D01*
X138983074Y-138893361D01*
X138983156Y-138890000D01*
X138964852Y-138667361D01*
X138910431Y-138450702D01*
X138821354Y-138245840D01*
X138728213Y-138101866D01*
X138702822Y-138062617D01*
X138702820Y-138062614D01*
X138700014Y-138058277D01*
X138549670Y-137893051D01*
X138545619Y-137889852D01*
X138545615Y-137889848D01*
X138378414Y-137757800D01*
X138378410Y-137757798D01*
X138374359Y-137754598D01*
X138333053Y-137731796D01*
X138283084Y-137681364D01*
X138268312Y-137611921D01*
X138293428Y-137545516D01*
X138320780Y-137518909D01*
X138364603Y-137487650D01*
X138499860Y-137391173D01*
X138658096Y-137233489D01*
X138717594Y-137150689D01*
X138785435Y-137056277D01*
X138788453Y-137052077D01*
X138887430Y-136851811D01*
X138952370Y-136638069D01*
X138981529Y-136416590D01*
X138983156Y-136350000D01*
X138966560Y-136148134D01*
X144641500Y-136148134D01*
X144648255Y-136210316D01*
X144699385Y-136346705D01*
X144786739Y-136463261D01*
X144903295Y-136550615D01*
X145039684Y-136601745D01*
X145101866Y-136608500D01*
X146898134Y-136608500D01*
X146960316Y-136601745D01*
X147096705Y-136550615D01*
X147213261Y-136463261D01*
X147300615Y-136346705D01*
X147351745Y-136210316D01*
X147358500Y-136148134D01*
X147358500Y-134351866D01*
X147351745Y-134289684D01*
X147300615Y-134153295D01*
X147213261Y-134036739D01*
X147096705Y-133949385D01*
X146960316Y-133898255D01*
X146898134Y-133891500D01*
X145101866Y-133891500D01*
X145039684Y-133898255D01*
X144903295Y-133949385D01*
X144786739Y-134036739D01*
X144699385Y-134153295D01*
X144648255Y-134289684D01*
X144641500Y-134351866D01*
X144641500Y-136148134D01*
X138966560Y-136148134D01*
X138964852Y-136127361D01*
X138910431Y-135910702D01*
X138821354Y-135705840D01*
X138700014Y-135518277D01*
X138549670Y-135353051D01*
X138545619Y-135349852D01*
X138545615Y-135349848D01*
X138378414Y-135217800D01*
X138378410Y-135217798D01*
X138374359Y-135214598D01*
X138333053Y-135191796D01*
X138283084Y-135141364D01*
X138268312Y-135071921D01*
X138293428Y-135005516D01*
X138320780Y-134978909D01*
X138364603Y-134947650D01*
X138499860Y-134851173D01*
X138658096Y-134693489D01*
X138717594Y-134610689D01*
X138785435Y-134516277D01*
X138788453Y-134512077D01*
X138887430Y-134311811D01*
X138919900Y-134204940D01*
X138950865Y-134103023D01*
X138950865Y-134103021D01*
X138952370Y-134098069D01*
X138981529Y-133876590D01*
X138983156Y-133810000D01*
X138964852Y-133587361D01*
X138910431Y-133370702D01*
X138821354Y-133165840D01*
X138700014Y-132978277D01*
X138549670Y-132813051D01*
X138545619Y-132809852D01*
X138545615Y-132809848D01*
X138378414Y-132677800D01*
X138378410Y-132677798D01*
X138374359Y-132674598D01*
X138333053Y-132651796D01*
X138283084Y-132601364D01*
X138268312Y-132531921D01*
X138293428Y-132465516D01*
X138320780Y-132438909D01*
X138377945Y-132398134D01*
X144641500Y-132398134D01*
X144648255Y-132460316D01*
X144699385Y-132596705D01*
X144786739Y-132713261D01*
X144903295Y-132800615D01*
X145039684Y-132851745D01*
X145101866Y-132858500D01*
X146898134Y-132858500D01*
X146960316Y-132851745D01*
X147096705Y-132800615D01*
X147213261Y-132713261D01*
X147300615Y-132596705D01*
X147351745Y-132460316D01*
X147358500Y-132398134D01*
X147358500Y-130601866D01*
X147351745Y-130539684D01*
X147300615Y-130403295D01*
X147213261Y-130286739D01*
X147096705Y-130199385D01*
X146960316Y-130148255D01*
X146898134Y-130141500D01*
X145101866Y-130141500D01*
X145039684Y-130148255D01*
X144903295Y-130199385D01*
X144786739Y-130286739D01*
X144699385Y-130403295D01*
X144648255Y-130539684D01*
X144641500Y-130601866D01*
X144641500Y-132398134D01*
X138377945Y-132398134D01*
X138382735Y-132394717D01*
X138499860Y-132311173D01*
X138658096Y-132153489D01*
X138717594Y-132070689D01*
X138785435Y-131976277D01*
X138788453Y-131972077D01*
X138849544Y-131848469D01*
X138885136Y-131776453D01*
X138885137Y-131776451D01*
X138887430Y-131771811D01*
X138952370Y-131558069D01*
X138981529Y-131336590D01*
X138983156Y-131270000D01*
X138964852Y-131047361D01*
X138910431Y-130830702D01*
X138821354Y-130625840D01*
X138700014Y-130438277D01*
X138549670Y-130273051D01*
X138545619Y-130269852D01*
X138545615Y-130269848D01*
X138378414Y-130137800D01*
X138378410Y-130137798D01*
X138374359Y-130134598D01*
X138333053Y-130111796D01*
X138283084Y-130061364D01*
X138268312Y-129991921D01*
X138293428Y-129925516D01*
X138320780Y-129898909D01*
X138364603Y-129867650D01*
X138499860Y-129771173D01*
X138658096Y-129613489D01*
X138717594Y-129530689D01*
X138785435Y-129436277D01*
X138788453Y-129432077D01*
X138887430Y-129231811D01*
X138952370Y-129018069D01*
X138981529Y-128796590D01*
X138983156Y-128730000D01*
X138976425Y-128648134D01*
X144641500Y-128648134D01*
X144648255Y-128710316D01*
X144699385Y-128846705D01*
X144786739Y-128963261D01*
X144903295Y-129050615D01*
X145039684Y-129101745D01*
X145101866Y-129108500D01*
X146898134Y-129108500D01*
X146960316Y-129101745D01*
X147096705Y-129050615D01*
X147213261Y-128963261D01*
X147300615Y-128846705D01*
X147351745Y-128710316D01*
X147358500Y-128648134D01*
X147358500Y-126851866D01*
X147351745Y-126789684D01*
X147300615Y-126653295D01*
X147213261Y-126536739D01*
X147096705Y-126449385D01*
X146960316Y-126398255D01*
X146898134Y-126391500D01*
X145101866Y-126391500D01*
X145039684Y-126398255D01*
X144903295Y-126449385D01*
X144786739Y-126536739D01*
X144699385Y-126653295D01*
X144648255Y-126789684D01*
X144641500Y-126851866D01*
X144641500Y-128648134D01*
X138976425Y-128648134D01*
X138964852Y-128507361D01*
X138910431Y-128290702D01*
X138821354Y-128085840D01*
X138708700Y-127911703D01*
X138702822Y-127902617D01*
X138702820Y-127902614D01*
X138700014Y-127898277D01*
X138549670Y-127733051D01*
X138545619Y-127729852D01*
X138545615Y-127729848D01*
X138378414Y-127597800D01*
X138378410Y-127597798D01*
X138374359Y-127594598D01*
X138333053Y-127571796D01*
X138283084Y-127521364D01*
X138268312Y-127451921D01*
X138293428Y-127385516D01*
X138320780Y-127358909D01*
X138364603Y-127327650D01*
X138499860Y-127231173D01*
X138658096Y-127073489D01*
X138717594Y-126990689D01*
X138785435Y-126896277D01*
X138788453Y-126892077D01*
X138808327Y-126851866D01*
X138885136Y-126696453D01*
X138885137Y-126696451D01*
X138887430Y-126691811D01*
X138952370Y-126478069D01*
X138981529Y-126256590D01*
X138983156Y-126190000D01*
X138964852Y-125967361D01*
X138910431Y-125750702D01*
X138821354Y-125545840D01*
X138700014Y-125358277D01*
X138549670Y-125193051D01*
X138545619Y-125189852D01*
X138545615Y-125189848D01*
X138378414Y-125057800D01*
X138378410Y-125057798D01*
X138374359Y-125054598D01*
X138333053Y-125031796D01*
X138283084Y-124981364D01*
X138268312Y-124911921D01*
X138273527Y-124898134D01*
X144641500Y-124898134D01*
X144648255Y-124960316D01*
X144699385Y-125096705D01*
X144786739Y-125213261D01*
X144903295Y-125300615D01*
X145039684Y-125351745D01*
X145101866Y-125358500D01*
X146898134Y-125358500D01*
X146960316Y-125351745D01*
X147096705Y-125300615D01*
X147213261Y-125213261D01*
X147300615Y-125096705D01*
X147351745Y-124960316D01*
X147358500Y-124898134D01*
X147358500Y-123101866D01*
X147351745Y-123039684D01*
X147300615Y-122903295D01*
X147213261Y-122786739D01*
X147096705Y-122699385D01*
X146960316Y-122648255D01*
X146898134Y-122641500D01*
X145101866Y-122641500D01*
X145039684Y-122648255D01*
X144903295Y-122699385D01*
X144786739Y-122786739D01*
X144699385Y-122903295D01*
X144648255Y-123039684D01*
X144641500Y-123101866D01*
X144641500Y-124898134D01*
X138273527Y-124898134D01*
X138293428Y-124845516D01*
X138320780Y-124818909D01*
X138364603Y-124787650D01*
X138499860Y-124691173D01*
X138658096Y-124533489D01*
X138717594Y-124450689D01*
X138785435Y-124356277D01*
X138788453Y-124352077D01*
X138819290Y-124289684D01*
X138885136Y-124156453D01*
X138885137Y-124156451D01*
X138887430Y-124151811D01*
X138952370Y-123938069D01*
X138981529Y-123716590D01*
X138983156Y-123650000D01*
X138964852Y-123427361D01*
X138910431Y-123210702D01*
X138821354Y-123005840D01*
X138700014Y-122818277D01*
X138549670Y-122653051D01*
X138545619Y-122649852D01*
X138545615Y-122649848D01*
X138378414Y-122517800D01*
X138378410Y-122517798D01*
X138374359Y-122514598D01*
X138333053Y-122491796D01*
X138283084Y-122441364D01*
X138268312Y-122371921D01*
X138293428Y-122305516D01*
X138320780Y-122278909D01*
X138364603Y-122247650D01*
X138499860Y-122151173D01*
X138658096Y-121993489D01*
X138717594Y-121910689D01*
X138785435Y-121816277D01*
X138788453Y-121812077D01*
X138796167Y-121796470D01*
X138885136Y-121616453D01*
X138885137Y-121616451D01*
X138887430Y-121611811D01*
X138952370Y-121398069D01*
X138981529Y-121176590D01*
X138982224Y-121148134D01*
X144641500Y-121148134D01*
X144648255Y-121210316D01*
X144699385Y-121346705D01*
X144786739Y-121463261D01*
X144903295Y-121550615D01*
X145039684Y-121601745D01*
X145101866Y-121608500D01*
X146898134Y-121608500D01*
X146960316Y-121601745D01*
X147096705Y-121550615D01*
X147213261Y-121463261D01*
X147300615Y-121346705D01*
X147351745Y-121210316D01*
X147358500Y-121148134D01*
X147358500Y-119351866D01*
X147351745Y-119289684D01*
X147300615Y-119153295D01*
X147213261Y-119036739D01*
X147096705Y-118949385D01*
X146960316Y-118898255D01*
X146898134Y-118891500D01*
X145101866Y-118891500D01*
X145039684Y-118898255D01*
X144903295Y-118949385D01*
X144786739Y-119036739D01*
X144699385Y-119153295D01*
X144648255Y-119289684D01*
X144641500Y-119351866D01*
X144641500Y-121148134D01*
X138982224Y-121148134D01*
X138983156Y-121110000D01*
X138964852Y-120887361D01*
X138910431Y-120670702D01*
X138821354Y-120465840D01*
X138717154Y-120304771D01*
X138702822Y-120282617D01*
X138702818Y-120282612D01*
X138700014Y-120278277D01*
X138549670Y-120113051D01*
X138545619Y-120109852D01*
X138545615Y-120109848D01*
X138378414Y-119977800D01*
X138378410Y-119977798D01*
X138374359Y-119974598D01*
X138333053Y-119951796D01*
X138283084Y-119901364D01*
X138268312Y-119831921D01*
X138293428Y-119765516D01*
X138320780Y-119738909D01*
X138364603Y-119707650D01*
X138499860Y-119611173D01*
X138658096Y-119453489D01*
X138717594Y-119370689D01*
X138785435Y-119276277D01*
X138788453Y-119272077D01*
X138817522Y-119213261D01*
X138885136Y-119076453D01*
X138885137Y-119076451D01*
X138887430Y-119071811D01*
X138940420Y-118897402D01*
X138950865Y-118863023D01*
X138950865Y-118863021D01*
X138952370Y-118858069D01*
X138981529Y-118636590D01*
X138983156Y-118570000D01*
X138964852Y-118347361D01*
X138910431Y-118130702D01*
X138821354Y-117925840D01*
X138742494Y-117803941D01*
X138702822Y-117742617D01*
X138702818Y-117742612D01*
X138700014Y-117738277D01*
X138549670Y-117573051D01*
X138545619Y-117569852D01*
X138545615Y-117569848D01*
X138378414Y-117437800D01*
X138378410Y-117437798D01*
X138374359Y-117434598D01*
X138333053Y-117411796D01*
X138319516Y-117398134D01*
X144641500Y-117398134D01*
X144648255Y-117460316D01*
X144699385Y-117596705D01*
X144786739Y-117713261D01*
X144903295Y-117800615D01*
X145039684Y-117851745D01*
X145101866Y-117858500D01*
X146898134Y-117858500D01*
X146960316Y-117851745D01*
X147096705Y-117800615D01*
X147213261Y-117713261D01*
X147300615Y-117596705D01*
X147351745Y-117460316D01*
X147358500Y-117398134D01*
X147358500Y-115601866D01*
X147351745Y-115539684D01*
X147300615Y-115403295D01*
X147213261Y-115286739D01*
X147096705Y-115199385D01*
X146960316Y-115148255D01*
X146898134Y-115141500D01*
X145101866Y-115141500D01*
X145039684Y-115148255D01*
X144903295Y-115199385D01*
X144786739Y-115286739D01*
X144699385Y-115403295D01*
X144648255Y-115539684D01*
X144641500Y-115601866D01*
X144641500Y-117398134D01*
X138319516Y-117398134D01*
X138283084Y-117361364D01*
X138268312Y-117291921D01*
X138293428Y-117225516D01*
X138320780Y-117198909D01*
X138364603Y-117167650D01*
X138499860Y-117071173D01*
X138658096Y-116913489D01*
X138717594Y-116830689D01*
X138785435Y-116736277D01*
X138788453Y-116732077D01*
X138801949Y-116704771D01*
X138885136Y-116536453D01*
X138885137Y-116536451D01*
X138887430Y-116531811D01*
X138952370Y-116318069D01*
X138981529Y-116096590D01*
X138983156Y-116030000D01*
X138964852Y-115807361D01*
X138910431Y-115590702D01*
X138821354Y-115385840D01*
X138712589Y-115217715D01*
X138702822Y-115202617D01*
X138702820Y-115202614D01*
X138700014Y-115198277D01*
X138549670Y-115033051D01*
X138545619Y-115029852D01*
X138545615Y-115029848D01*
X138378414Y-114897800D01*
X138378410Y-114897798D01*
X138374359Y-114894598D01*
X138333053Y-114871796D01*
X138283084Y-114821364D01*
X138268312Y-114751921D01*
X138293428Y-114685516D01*
X138320780Y-114658909D01*
X138364603Y-114627650D01*
X138499860Y-114531173D01*
X138658096Y-114373489D01*
X138717594Y-114290689D01*
X138785435Y-114196277D01*
X138788453Y-114192077D01*
X138829942Y-114108131D01*
X138885136Y-113996453D01*
X138885137Y-113996451D01*
X138887430Y-113991811D01*
X138952370Y-113778069D01*
X138969477Y-113648134D01*
X144641500Y-113648134D01*
X144648255Y-113710316D01*
X144699385Y-113846705D01*
X144786739Y-113963261D01*
X144903295Y-114050615D01*
X145039684Y-114101745D01*
X145101866Y-114108500D01*
X146898134Y-114108500D01*
X146960316Y-114101745D01*
X147096705Y-114050615D01*
X147213261Y-113963261D01*
X147300615Y-113846705D01*
X147351745Y-113710316D01*
X147358500Y-113648134D01*
X147358500Y-111851866D01*
X147351745Y-111789684D01*
X147300615Y-111653295D01*
X147213261Y-111536739D01*
X147096705Y-111449385D01*
X146960316Y-111398255D01*
X146898134Y-111391500D01*
X145101866Y-111391500D01*
X145039684Y-111398255D01*
X144903295Y-111449385D01*
X144786739Y-111536739D01*
X144699385Y-111653295D01*
X144648255Y-111789684D01*
X144641500Y-111851866D01*
X144641500Y-113648134D01*
X138969477Y-113648134D01*
X138981529Y-113556590D01*
X138983156Y-113490000D01*
X138964852Y-113267361D01*
X138910431Y-113050702D01*
X138821354Y-112845840D01*
X138700014Y-112658277D01*
X138549670Y-112493051D01*
X138545619Y-112489852D01*
X138545615Y-112489848D01*
X138378414Y-112357800D01*
X138378410Y-112357798D01*
X138374359Y-112354598D01*
X138333053Y-112331796D01*
X138283084Y-112281364D01*
X138268312Y-112211921D01*
X138293428Y-112145516D01*
X138320780Y-112118909D01*
X138364603Y-112087650D01*
X138499860Y-111991173D01*
X138658096Y-111833489D01*
X138685589Y-111795229D01*
X138785435Y-111656277D01*
X138788453Y-111652077D01*
X138815820Y-111596705D01*
X138885136Y-111456453D01*
X138885137Y-111456451D01*
X138887430Y-111451811D01*
X138952370Y-111238069D01*
X138981529Y-111016590D01*
X138983156Y-110950000D01*
X138964852Y-110727361D01*
X138910431Y-110510702D01*
X138821354Y-110305840D01*
X138700014Y-110118277D01*
X138549670Y-109953051D01*
X138545619Y-109949852D01*
X138545615Y-109949848D01*
X138378414Y-109817800D01*
X138378410Y-109817798D01*
X138374359Y-109814598D01*
X138178789Y-109706638D01*
X138173920Y-109704914D01*
X138173916Y-109704912D01*
X137973087Y-109633795D01*
X137973083Y-109633794D01*
X137968212Y-109632069D01*
X137963119Y-109631162D01*
X137963116Y-109631161D01*
X137753373Y-109593800D01*
X137753367Y-109593799D01*
X137748284Y-109592894D01*
X137674452Y-109591992D01*
X137530081Y-109590228D01*
X137530079Y-109590228D01*
X137524911Y-109590165D01*
X137304091Y-109623955D01*
X137091756Y-109693357D01*
X136893607Y-109796507D01*
X136889474Y-109799610D01*
X136889471Y-109799612D01*
X136719100Y-109927530D01*
X136714965Y-109930635D01*
X136649346Y-109999301D01*
X136564300Y-110088297D01*
X136560629Y-110092138D01*
X136557715Y-110096410D01*
X136557714Y-110096411D01*
X136474334Y-110218642D01*
X136434743Y-110276680D01*
X136340688Y-110479305D01*
X136280989Y-110694570D01*
X136257251Y-110916695D01*
X136257548Y-110921848D01*
X136257548Y-110921851D01*
X136263011Y-111016590D01*
X136270110Y-111139715D01*
X136271247Y-111144761D01*
X136271248Y-111144767D01*
X136291119Y-111232939D01*
X136319222Y-111357639D01*
X136403266Y-111564616D01*
X136405965Y-111569020D01*
X136489956Y-111706081D01*
X136519987Y-111755088D01*
X136666250Y-111923938D01*
X136838126Y-112066632D01*
X136908595Y-112107811D01*
X136911445Y-112109476D01*
X136960169Y-112161114D01*
X136973240Y-112230897D01*
X136946509Y-112296669D01*
X136906055Y-112330027D01*
X136893607Y-112336507D01*
X136889474Y-112339610D01*
X136889471Y-112339612D01*
X136865247Y-112357800D01*
X136714965Y-112470635D01*
X136560629Y-112632138D01*
X136434743Y-112816680D01*
X136419003Y-112850590D01*
X136370644Y-112954771D01*
X136340688Y-113019305D01*
X136280989Y-113234570D01*
X136257251Y-113456695D01*
X136257548Y-113461848D01*
X136257548Y-113461851D01*
X136263011Y-113556590D01*
X136270110Y-113679715D01*
X136271247Y-113684761D01*
X136271248Y-113684767D01*
X136291119Y-113772939D01*
X136319222Y-113897639D01*
X136403266Y-114104616D01*
X136519987Y-114295088D01*
X136666250Y-114463938D01*
X136838126Y-114606632D01*
X136908595Y-114647811D01*
X136911445Y-114649476D01*
X136960169Y-114701114D01*
X136973240Y-114770897D01*
X136946509Y-114836669D01*
X136906055Y-114870027D01*
X136893607Y-114876507D01*
X136889474Y-114879610D01*
X136889471Y-114879612D01*
X136865247Y-114897800D01*
X136714965Y-115010635D01*
X136711393Y-115014373D01*
X136580322Y-115151531D01*
X136560629Y-115172138D01*
X136557715Y-115176410D01*
X136557714Y-115176411D01*
X136477556Y-115293919D01*
X136434743Y-115356680D01*
X136419003Y-115390590D01*
X136343259Y-115553767D01*
X136340688Y-115559305D01*
X136280989Y-115774570D01*
X136257251Y-115996695D01*
X136257548Y-116001848D01*
X136257548Y-116001851D01*
X136263011Y-116096590D01*
X136270110Y-116219715D01*
X136271247Y-116224761D01*
X136271248Y-116224767D01*
X136291119Y-116312939D01*
X136319222Y-116437639D01*
X136403266Y-116644616D01*
X136405965Y-116649020D01*
X136494759Y-116793919D01*
X136519987Y-116835088D01*
X136666250Y-117003938D01*
X136838126Y-117146632D01*
X136908595Y-117187811D01*
X136911445Y-117189476D01*
X136960169Y-117241114D01*
X136973240Y-117310897D01*
X136946509Y-117376669D01*
X136906055Y-117410027D01*
X136893607Y-117416507D01*
X136889474Y-117419610D01*
X136889471Y-117419612D01*
X136825404Y-117467715D01*
X136714965Y-117550635D01*
X136560629Y-117712138D01*
X136434743Y-117896680D01*
X136340688Y-118099305D01*
X136280989Y-118314570D01*
X136257251Y-118536695D01*
X136257548Y-118541848D01*
X136257548Y-118541851D01*
X136262953Y-118635596D01*
X136270110Y-118759715D01*
X136271247Y-118764761D01*
X136271248Y-118764767D01*
X136291119Y-118852939D01*
X136319222Y-118977639D01*
X136403266Y-119184616D01*
X136405965Y-119189020D01*
X136507851Y-119355283D01*
X136519987Y-119375088D01*
X136666250Y-119543938D01*
X136838126Y-119686632D01*
X136908595Y-119727811D01*
X136911445Y-119729476D01*
X136960169Y-119781114D01*
X136973240Y-119850897D01*
X136946509Y-119916669D01*
X136906055Y-119950027D01*
X136893607Y-119956507D01*
X136889474Y-119959610D01*
X136889471Y-119959612D01*
X136865247Y-119977800D01*
X136714965Y-120090635D01*
X136560629Y-120252138D01*
X136434743Y-120436680D01*
X136399919Y-120511703D01*
X136343947Y-120632285D01*
X136340688Y-120639305D01*
X136280989Y-120854570D01*
X136257251Y-121076695D01*
X136257548Y-121081848D01*
X136257548Y-121081851D01*
X136263011Y-121176590D01*
X136270110Y-121299715D01*
X136271247Y-121304761D01*
X136271248Y-121304767D01*
X136282319Y-121353891D01*
X136319222Y-121517639D01*
X136355967Y-121608131D01*
X136386535Y-121683411D01*
X136403266Y-121724616D01*
X136519987Y-121915088D01*
X136666250Y-122083938D01*
X136838126Y-122226632D01*
X136908595Y-122267811D01*
X136911445Y-122269476D01*
X136960169Y-122321114D01*
X136973240Y-122390897D01*
X136946509Y-122456669D01*
X136906055Y-122490027D01*
X136893607Y-122496507D01*
X136889474Y-122499610D01*
X136889471Y-122499612D01*
X136719100Y-122627530D01*
X136714965Y-122630635D01*
X136711393Y-122634373D01*
X136570931Y-122781358D01*
X136560629Y-122792138D01*
X136434743Y-122976680D01*
X136340688Y-123179305D01*
X136280989Y-123394570D01*
X136257251Y-123616695D01*
X136257548Y-123621848D01*
X136257548Y-123621851D01*
X136263011Y-123716590D01*
X136270110Y-123839715D01*
X136271247Y-123844761D01*
X136271248Y-123844767D01*
X136283928Y-123901029D01*
X136319222Y-124057639D01*
X136403266Y-124264616D01*
X136519987Y-124455088D01*
X136666250Y-124623938D01*
X136838126Y-124766632D01*
X136908595Y-124807811D01*
X136911445Y-124809476D01*
X136960169Y-124861114D01*
X136973240Y-124930897D01*
X136946509Y-124996669D01*
X136906055Y-125030027D01*
X136893607Y-125036507D01*
X136889474Y-125039610D01*
X136889471Y-125039612D01*
X136719100Y-125167530D01*
X136714965Y-125170635D01*
X136560629Y-125332138D01*
X136434743Y-125516680D01*
X136340688Y-125719305D01*
X136280989Y-125934570D01*
X136257251Y-126156695D01*
X136257548Y-126161848D01*
X136257548Y-126161851D01*
X136263011Y-126256590D01*
X136270110Y-126379715D01*
X136271247Y-126384761D01*
X136271248Y-126384767D01*
X136285811Y-126449385D01*
X136319222Y-126597639D01*
X136403266Y-126804616D01*
X136519987Y-126995088D01*
X136666250Y-127163938D01*
X136838126Y-127306632D01*
X136908595Y-127347811D01*
X136911445Y-127349476D01*
X136960169Y-127401114D01*
X136973240Y-127470897D01*
X136946509Y-127536669D01*
X136906055Y-127570027D01*
X136893607Y-127576507D01*
X136889474Y-127579610D01*
X136889471Y-127579612D01*
X136722775Y-127704771D01*
X136714965Y-127710635D01*
X136560629Y-127872138D01*
X136557715Y-127876410D01*
X136557714Y-127876411D01*
X136472555Y-128001249D01*
X136434743Y-128056680D01*
X136340688Y-128259305D01*
X136280989Y-128474570D01*
X136257251Y-128696695D01*
X136257548Y-128701848D01*
X136257548Y-128701851D01*
X136265900Y-128846705D01*
X136270110Y-128919715D01*
X136271247Y-128924761D01*
X136271248Y-128924767D01*
X136281136Y-128968642D01*
X136319222Y-129137639D01*
X136403266Y-129344616D01*
X136519987Y-129535088D01*
X136666250Y-129703938D01*
X136838126Y-129846632D01*
X136908595Y-129887811D01*
X136911445Y-129889476D01*
X136960169Y-129941114D01*
X136973240Y-130010897D01*
X136946509Y-130076669D01*
X136906055Y-130110027D01*
X136893607Y-130116507D01*
X136889474Y-130119610D01*
X136889471Y-130119612D01*
X136719100Y-130247530D01*
X136714965Y-130250635D01*
X136711393Y-130254373D01*
X136569080Y-130403295D01*
X136560629Y-130412138D01*
X136434743Y-130596680D01*
X136340688Y-130799305D01*
X136280989Y-131014570D01*
X136257251Y-131236695D01*
X136257548Y-131241848D01*
X136257548Y-131241851D01*
X136263011Y-131336590D01*
X136270110Y-131459715D01*
X136271247Y-131464761D01*
X136271248Y-131464767D01*
X136287468Y-131536739D01*
X136319222Y-131677639D01*
X136403266Y-131884616D01*
X136519987Y-132075088D01*
X136666250Y-132243938D01*
X136838126Y-132386632D01*
X136863623Y-132401531D01*
X136911445Y-132429476D01*
X136960169Y-132481114D01*
X136973240Y-132550897D01*
X136946509Y-132616669D01*
X136906055Y-132650027D01*
X136893607Y-132656507D01*
X136889474Y-132659610D01*
X136889471Y-132659612D01*
X136719100Y-132787530D01*
X136714965Y-132790635D01*
X136560629Y-132952138D01*
X136434743Y-133136680D01*
X136340688Y-133339305D01*
X136280989Y-133554570D01*
X136257251Y-133776695D01*
X136257548Y-133781848D01*
X136257548Y-133781851D01*
X136263011Y-133876590D01*
X136270110Y-133999715D01*
X136271247Y-134004761D01*
X136271248Y-134004767D01*
X136280072Y-134043919D01*
X136319222Y-134217639D01*
X136403266Y-134424616D01*
X136519987Y-134615088D01*
X136666250Y-134783938D01*
X136838126Y-134926632D01*
X136908595Y-134967811D01*
X136911445Y-134969476D01*
X136960169Y-135021114D01*
X136973240Y-135090897D01*
X136946509Y-135156669D01*
X136906055Y-135190027D01*
X136893607Y-135196507D01*
X136889474Y-135199610D01*
X136889471Y-135199612D01*
X136773429Y-135286739D01*
X136714965Y-135330635D01*
X136560629Y-135492138D01*
X136557715Y-135496410D01*
X136557714Y-135496411D01*
X136528195Y-135539684D01*
X136434743Y-135676680D01*
X136340688Y-135879305D01*
X136280989Y-136094570D01*
X136257251Y-136316695D01*
X136257548Y-136321848D01*
X136257548Y-136321851D01*
X136263011Y-136416590D01*
X136270110Y-136539715D01*
X136271247Y-136544761D01*
X136271248Y-136544767D01*
X136291119Y-136632939D01*
X136319222Y-136757639D01*
X136403266Y-136964616D01*
X136519987Y-137155088D01*
X136666250Y-137323938D01*
X136838126Y-137466632D01*
X136908595Y-137507811D01*
X136911445Y-137509476D01*
X136960169Y-137561114D01*
X136973240Y-137630897D01*
X136946509Y-137696669D01*
X136906055Y-137730027D01*
X136893607Y-137736507D01*
X136889474Y-137739610D01*
X136889471Y-137739612D01*
X136731127Y-137858500D01*
X136714965Y-137870635D01*
X136560629Y-138032138D01*
X136434743Y-138216680D01*
X136340688Y-138419305D01*
X136280989Y-138634570D01*
X136257251Y-138856695D01*
X136257548Y-138861848D01*
X136257548Y-138861851D01*
X136262906Y-138954771D01*
X136270110Y-139079715D01*
X136271247Y-139084761D01*
X136271248Y-139084767D01*
X136285073Y-139146109D01*
X136319222Y-139297639D01*
X136403266Y-139504616D01*
X136519987Y-139695088D01*
X136666250Y-139863938D01*
X136838126Y-140006632D01*
X136908595Y-140047811D01*
X136911445Y-140049476D01*
X136960169Y-140101114D01*
X136973240Y-140170897D01*
X136946509Y-140236669D01*
X136906055Y-140270027D01*
X136893607Y-140276507D01*
X136889474Y-140279610D01*
X136889471Y-140279612D01*
X136784402Y-140358500D01*
X136714965Y-140410635D01*
X136560629Y-140572138D01*
X136434743Y-140756680D01*
X136340688Y-140959305D01*
X136280989Y-141174570D01*
X136257251Y-141396695D01*
X136257548Y-141401848D01*
X136257548Y-141401851D01*
X136268914Y-141598971D01*
X136270110Y-141619715D01*
X136271247Y-141624761D01*
X136271248Y-141624767D01*
X136291119Y-141712939D01*
X136319222Y-141837639D01*
X136403266Y-142044616D01*
X136519987Y-142235088D01*
X136666250Y-142403938D01*
X136838126Y-142546632D01*
X136908595Y-142587811D01*
X136911445Y-142589476D01*
X136960169Y-142641114D01*
X136973240Y-142710897D01*
X136946509Y-142776669D01*
X136906055Y-142810027D01*
X136893607Y-142816507D01*
X136889474Y-142819610D01*
X136889471Y-142819612D01*
X136719100Y-142947530D01*
X136714965Y-142950635D01*
X136560629Y-143112138D01*
X136434743Y-143296680D01*
X136340688Y-143499305D01*
X136280989Y-143714570D01*
X136257251Y-143936695D01*
X136257548Y-143941848D01*
X136257548Y-143941851D01*
X136266817Y-144102598D01*
X136270110Y-144159715D01*
X136271247Y-144164761D01*
X136271248Y-144164767D01*
X136291119Y-144252939D01*
X136319222Y-144377639D01*
X136403266Y-144584616D01*
X136519987Y-144775088D01*
X136666250Y-144943938D01*
X136838126Y-145086632D01*
X136908595Y-145127811D01*
X136911445Y-145129476D01*
X136960169Y-145181114D01*
X136973240Y-145250897D01*
X136946509Y-145316669D01*
X136906055Y-145350027D01*
X136893607Y-145356507D01*
X136889474Y-145359610D01*
X136889471Y-145359612D01*
X136719100Y-145487530D01*
X136714965Y-145490635D01*
X136560629Y-145652138D01*
X136434743Y-145836680D01*
X136340688Y-146039305D01*
X136280989Y-146254570D01*
X136257251Y-146476695D01*
X136257548Y-146481848D01*
X136257548Y-146481851D01*
X136263011Y-146576590D01*
X136270110Y-146699715D01*
X136271247Y-146704761D01*
X136271248Y-146704767D01*
X136291119Y-146792939D01*
X136319222Y-146917639D01*
X136403266Y-147124616D01*
X136519987Y-147315088D01*
X136666250Y-147483938D01*
X136838126Y-147626632D01*
X136908595Y-147667811D01*
X136911445Y-147669476D01*
X136960169Y-147721114D01*
X136973240Y-147790897D01*
X136946509Y-147856669D01*
X136906055Y-147890027D01*
X136893607Y-147896507D01*
X136889474Y-147899610D01*
X136889471Y-147899612D01*
X136865247Y-147917800D01*
X136714965Y-148030635D01*
X136560629Y-148192138D01*
X136434743Y-148376680D01*
X136340688Y-148579305D01*
X136280989Y-148794570D01*
X136257251Y-149016695D01*
X136257548Y-149021848D01*
X136257548Y-149021851D01*
X136263011Y-149116590D01*
X136270110Y-149239715D01*
X136271247Y-149244761D01*
X136271248Y-149244767D01*
X136291119Y-149332939D01*
X136319222Y-149457639D01*
X136403266Y-149664616D01*
X136405965Y-149669020D01*
X136505475Y-149831406D01*
X136519987Y-149855088D01*
X136666250Y-150023938D01*
X136838126Y-150166632D01*
X136908595Y-150207811D01*
X136911445Y-150209476D01*
X136960169Y-150261114D01*
X136973240Y-150330897D01*
X136946509Y-150396669D01*
X136906055Y-150430027D01*
X136893607Y-150436507D01*
X136889474Y-150439610D01*
X136889471Y-150439612D01*
X136789374Y-150514767D01*
X136714965Y-150570635D01*
X136711393Y-150574373D01*
X136569748Y-150722596D01*
X136560629Y-150732138D01*
X136434743Y-150916680D01*
X136340688Y-151119305D01*
X136280989Y-151334570D01*
X136257251Y-151556695D01*
X136257548Y-151561848D01*
X136257548Y-151561851D01*
X136264424Y-151681097D01*
X136270110Y-151779715D01*
X136271247Y-151784761D01*
X136271248Y-151784767D01*
X136291119Y-151872939D01*
X136319222Y-151997639D01*
X136403266Y-152204616D01*
X136519987Y-152395088D01*
X136666250Y-152563938D01*
X136838126Y-152706632D01*
X136908595Y-152747811D01*
X136911445Y-152749476D01*
X136960169Y-152801114D01*
X136973240Y-152870897D01*
X136946509Y-152936669D01*
X136906055Y-152970027D01*
X136893607Y-152976507D01*
X136889474Y-152979610D01*
X136889471Y-152979612D01*
X136865247Y-152997800D01*
X136714965Y-153110635D01*
X136560629Y-153272138D01*
X136434743Y-153456680D01*
X136340688Y-153659305D01*
X136280989Y-153874570D01*
X136257251Y-154096695D01*
X123740418Y-154096695D01*
X123724852Y-153907361D01*
X123670431Y-153690702D01*
X123581354Y-153485840D01*
X123460014Y-153298277D01*
X123309670Y-153133051D01*
X123305619Y-153129852D01*
X123305615Y-153129848D01*
X123138414Y-152997800D01*
X123138410Y-152997798D01*
X123134359Y-152994598D01*
X123093053Y-152971796D01*
X123043084Y-152921364D01*
X123028312Y-152851921D01*
X123053428Y-152785516D01*
X123080780Y-152758909D01*
X123124603Y-152727650D01*
X123259860Y-152631173D01*
X123418096Y-152473489D01*
X123477594Y-152390689D01*
X123545435Y-152296277D01*
X123548453Y-152292077D01*
X123647430Y-152091811D01*
X123712370Y-151878069D01*
X123741529Y-151656590D01*
X123742177Y-151630062D01*
X123743074Y-151593365D01*
X123743074Y-151593361D01*
X123743156Y-151590000D01*
X123724852Y-151367361D01*
X123670431Y-151150702D01*
X123581354Y-150945840D01*
X123460014Y-150758277D01*
X123309670Y-150593051D01*
X123305619Y-150589852D01*
X123305615Y-150589848D01*
X123138414Y-150457800D01*
X123138410Y-150457798D01*
X123134359Y-150454598D01*
X123093053Y-150431796D01*
X123043084Y-150381364D01*
X123028312Y-150311921D01*
X123037853Y-150286695D01*
X124827251Y-150286695D01*
X124827548Y-150291848D01*
X124827548Y-150291851D01*
X124833011Y-150386590D01*
X124840110Y-150509715D01*
X124841247Y-150514761D01*
X124841248Y-150514767D01*
X124861119Y-150602939D01*
X124889222Y-150727639D01*
X124973266Y-150934616D01*
X125024019Y-151017438D01*
X125087291Y-151120688D01*
X125089987Y-151125088D01*
X125236250Y-151293938D01*
X125408126Y-151436632D01*
X125601000Y-151549338D01*
X125809692Y-151629030D01*
X125814760Y-151630061D01*
X125814763Y-151630062D01*
X125922017Y-151651883D01*
X126028597Y-151673567D01*
X126033772Y-151673757D01*
X126033774Y-151673757D01*
X126246673Y-151681564D01*
X126246677Y-151681564D01*
X126251837Y-151681753D01*
X126256957Y-151681097D01*
X126256959Y-151681097D01*
X126468288Y-151654025D01*
X126468289Y-151654025D01*
X126473416Y-151653368D01*
X126478366Y-151651883D01*
X126682429Y-151590661D01*
X126682434Y-151590659D01*
X126687384Y-151589174D01*
X126887994Y-151490896D01*
X127069860Y-151361173D01*
X127077168Y-151353891D01*
X127224435Y-151207137D01*
X127228096Y-151203489D01*
X127265432Y-151151531D01*
X127358453Y-151022077D01*
X127359776Y-151023028D01*
X127406645Y-150979857D01*
X127476580Y-150967625D01*
X127542026Y-150995144D01*
X127569875Y-151026994D01*
X127629987Y-151125088D01*
X127776250Y-151293938D01*
X127948126Y-151436632D01*
X128141000Y-151549338D01*
X128349692Y-151629030D01*
X128354760Y-151630061D01*
X128354763Y-151630062D01*
X128462017Y-151651883D01*
X128568597Y-151673567D01*
X128573772Y-151673757D01*
X128573774Y-151673757D01*
X128786673Y-151681564D01*
X128786677Y-151681564D01*
X128791837Y-151681753D01*
X128796957Y-151681097D01*
X128796959Y-151681097D01*
X129008288Y-151654025D01*
X129008289Y-151654025D01*
X129013416Y-151653368D01*
X129018366Y-151651883D01*
X129222429Y-151590661D01*
X129222434Y-151590659D01*
X129227384Y-151589174D01*
X129427994Y-151490896D01*
X129609860Y-151361173D01*
X129617168Y-151353891D01*
X129764435Y-151207137D01*
X129768096Y-151203489D01*
X129805432Y-151151531D01*
X129898453Y-151022077D01*
X129899776Y-151023028D01*
X129946645Y-150979857D01*
X130016580Y-150967625D01*
X130082026Y-150995144D01*
X130109875Y-151026994D01*
X130169987Y-151125088D01*
X130316250Y-151293938D01*
X130488126Y-151436632D01*
X130681000Y-151549338D01*
X130889692Y-151629030D01*
X130894760Y-151630061D01*
X130894763Y-151630062D01*
X131002017Y-151651883D01*
X131108597Y-151673567D01*
X131113772Y-151673757D01*
X131113774Y-151673757D01*
X131326673Y-151681564D01*
X131326677Y-151681564D01*
X131331837Y-151681753D01*
X131336957Y-151681097D01*
X131336959Y-151681097D01*
X131548288Y-151654025D01*
X131548289Y-151654025D01*
X131553416Y-151653368D01*
X131558366Y-151651883D01*
X131762429Y-151590661D01*
X131762434Y-151590659D01*
X131767384Y-151589174D01*
X131967994Y-151490896D01*
X132149860Y-151361173D01*
X132157168Y-151353891D01*
X132304435Y-151207137D01*
X132308096Y-151203489D01*
X132345432Y-151151531D01*
X132438453Y-151022077D01*
X132439776Y-151023028D01*
X132486645Y-150979857D01*
X132556580Y-150967625D01*
X132622026Y-150995144D01*
X132649875Y-151026994D01*
X132709987Y-151125088D01*
X132856250Y-151293938D01*
X133028126Y-151436632D01*
X133221000Y-151549338D01*
X133429692Y-151629030D01*
X133434760Y-151630061D01*
X133434763Y-151630062D01*
X133542017Y-151651883D01*
X133648597Y-151673567D01*
X133653772Y-151673757D01*
X133653774Y-151673757D01*
X133866673Y-151681564D01*
X133866677Y-151681564D01*
X133871837Y-151681753D01*
X133876957Y-151681097D01*
X133876959Y-151681097D01*
X134088288Y-151654025D01*
X134088289Y-151654025D01*
X134093416Y-151653368D01*
X134098366Y-151651883D01*
X134302429Y-151590661D01*
X134302434Y-151590659D01*
X134307384Y-151589174D01*
X134507994Y-151490896D01*
X134689860Y-151361173D01*
X134697168Y-151353891D01*
X134844435Y-151207137D01*
X134848096Y-151203489D01*
X134885432Y-151151531D01*
X134975435Y-151026277D01*
X134978453Y-151022077D01*
X134999320Y-150979857D01*
X135075136Y-150826453D01*
X135075137Y-150826451D01*
X135077430Y-150821811D01*
X135142370Y-150608069D01*
X135171529Y-150386590D01*
X135173156Y-150320000D01*
X135154852Y-150097361D01*
X135100431Y-149880702D01*
X135011354Y-149675840D01*
X134890014Y-149488277D01*
X134739670Y-149323051D01*
X134735619Y-149319852D01*
X134735615Y-149319848D01*
X134568414Y-149187800D01*
X134568410Y-149187798D01*
X134564359Y-149184598D01*
X134368789Y-149076638D01*
X134363920Y-149074914D01*
X134363916Y-149074912D01*
X134163087Y-149003795D01*
X134163083Y-149003794D01*
X134158212Y-149002069D01*
X134153119Y-149001162D01*
X134153116Y-149001161D01*
X133943373Y-148963800D01*
X133943367Y-148963799D01*
X133938284Y-148962894D01*
X133864452Y-148961992D01*
X133720081Y-148960228D01*
X133720079Y-148960228D01*
X133714911Y-148960165D01*
X133494091Y-148993955D01*
X133281756Y-149063357D01*
X133251443Y-149079137D01*
X133179497Y-149116590D01*
X133083607Y-149166507D01*
X133079474Y-149169610D01*
X133079471Y-149169612D01*
X132919550Y-149289684D01*
X132904965Y-149300635D01*
X132852742Y-149355283D01*
X132759748Y-149452596D01*
X132750629Y-149462138D01*
X132643201Y-149619621D01*
X132588293Y-149664621D01*
X132517768Y-149672792D01*
X132454021Y-149641538D01*
X132433324Y-149617054D01*
X132352822Y-149492617D01*
X132352820Y-149492614D01*
X132350014Y-149488277D01*
X132199670Y-149323051D01*
X132195619Y-149319852D01*
X132195615Y-149319848D01*
X132028414Y-149187800D01*
X132028410Y-149187798D01*
X132024359Y-149184598D01*
X131828789Y-149076638D01*
X131823920Y-149074914D01*
X131823916Y-149074912D01*
X131623087Y-149003795D01*
X131623083Y-149003794D01*
X131618212Y-149002069D01*
X131613119Y-149001162D01*
X131613116Y-149001161D01*
X131403373Y-148963800D01*
X131403367Y-148963799D01*
X131398284Y-148962894D01*
X131324452Y-148961992D01*
X131180081Y-148960228D01*
X131180079Y-148960228D01*
X131174911Y-148960165D01*
X130954091Y-148993955D01*
X130741756Y-149063357D01*
X130711443Y-149079137D01*
X130639497Y-149116590D01*
X130543607Y-149166507D01*
X130539474Y-149169610D01*
X130539471Y-149169612D01*
X130379550Y-149289684D01*
X130364965Y-149300635D01*
X130312742Y-149355283D01*
X130219748Y-149452596D01*
X130210629Y-149462138D01*
X130103201Y-149619621D01*
X130048293Y-149664621D01*
X129977768Y-149672792D01*
X129914021Y-149641538D01*
X129893324Y-149617054D01*
X129812822Y-149492617D01*
X129812820Y-149492614D01*
X129810014Y-149488277D01*
X129659670Y-149323051D01*
X129655619Y-149319852D01*
X129655615Y-149319848D01*
X129488414Y-149187800D01*
X129488410Y-149187798D01*
X129484359Y-149184598D01*
X129288789Y-149076638D01*
X129283920Y-149074914D01*
X129283916Y-149074912D01*
X129083087Y-149003795D01*
X129083083Y-149003794D01*
X129078212Y-149002069D01*
X129073119Y-149001162D01*
X129073116Y-149001161D01*
X128863373Y-148963800D01*
X128863367Y-148963799D01*
X128858284Y-148962894D01*
X128784452Y-148961992D01*
X128640081Y-148960228D01*
X128640079Y-148960228D01*
X128634911Y-148960165D01*
X128414091Y-148993955D01*
X128201756Y-149063357D01*
X128171443Y-149079137D01*
X128099497Y-149116590D01*
X128003607Y-149166507D01*
X127999474Y-149169610D01*
X127999471Y-149169612D01*
X127839550Y-149289684D01*
X127824965Y-149300635D01*
X127772742Y-149355283D01*
X127679748Y-149452596D01*
X127670629Y-149462138D01*
X127563201Y-149619621D01*
X127508293Y-149664621D01*
X127437768Y-149672792D01*
X127374021Y-149641538D01*
X127353324Y-149617054D01*
X127272822Y-149492617D01*
X127272820Y-149492614D01*
X127270014Y-149488277D01*
X127119670Y-149323051D01*
X127115619Y-149319852D01*
X127115615Y-149319848D01*
X126948414Y-149187800D01*
X126948410Y-149187798D01*
X126944359Y-149184598D01*
X126748789Y-149076638D01*
X126743920Y-149074914D01*
X126743916Y-149074912D01*
X126543087Y-149003795D01*
X126543083Y-149003794D01*
X126538212Y-149002069D01*
X126533119Y-149001162D01*
X126533116Y-149001161D01*
X126323373Y-148963800D01*
X126323367Y-148963799D01*
X126318284Y-148962894D01*
X126244452Y-148961992D01*
X126100081Y-148960228D01*
X126100079Y-148960228D01*
X126094911Y-148960165D01*
X125874091Y-148993955D01*
X125661756Y-149063357D01*
X125631443Y-149079137D01*
X125559497Y-149116590D01*
X125463607Y-149166507D01*
X125459474Y-149169610D01*
X125459471Y-149169612D01*
X125299550Y-149289684D01*
X125284965Y-149300635D01*
X125232742Y-149355283D01*
X125139748Y-149452596D01*
X125130629Y-149462138D01*
X125004743Y-149646680D01*
X124910688Y-149849305D01*
X124850989Y-150064570D01*
X124827251Y-150286695D01*
X123037853Y-150286695D01*
X123053428Y-150245516D01*
X123080780Y-150218909D01*
X123124603Y-150187650D01*
X123259860Y-150091173D01*
X123418096Y-149933489D01*
X123477594Y-149850689D01*
X123545435Y-149756277D01*
X123548453Y-149752077D01*
X123586132Y-149675840D01*
X123645136Y-149556453D01*
X123645137Y-149556451D01*
X123647430Y-149551811D01*
X123712370Y-149338069D01*
X123741529Y-149116590D01*
X123742505Y-149076638D01*
X123743074Y-149053365D01*
X123743074Y-149053361D01*
X123743156Y-149050000D01*
X123724852Y-148827361D01*
X123670431Y-148610702D01*
X123581354Y-148405840D01*
X123460014Y-148218277D01*
X123309670Y-148053051D01*
X123305619Y-148049852D01*
X123305615Y-148049848D01*
X123138414Y-147917800D01*
X123138410Y-147917798D01*
X123134359Y-147914598D01*
X123093053Y-147891796D01*
X123043084Y-147841364D01*
X123028312Y-147771921D01*
X123053428Y-147705516D01*
X123080780Y-147678909D01*
X123124603Y-147647650D01*
X123259860Y-147551173D01*
X123418096Y-147393489D01*
X123477594Y-147310689D01*
X123545435Y-147216277D01*
X123548453Y-147212077D01*
X123647430Y-147011811D01*
X123712370Y-146798069D01*
X123741529Y-146576590D01*
X123743156Y-146510000D01*
X123724852Y-146287361D01*
X123670431Y-146070702D01*
X123581354Y-145865840D01*
X123460014Y-145678277D01*
X123309670Y-145513051D01*
X123305619Y-145509852D01*
X123305615Y-145509848D01*
X123138414Y-145377800D01*
X123138410Y-145377798D01*
X123134359Y-145374598D01*
X123093053Y-145351796D01*
X123043084Y-145301364D01*
X123028312Y-145231921D01*
X123053428Y-145165516D01*
X123080780Y-145138909D01*
X123139948Y-145096705D01*
X123259860Y-145011173D01*
X123418096Y-144853489D01*
X123477594Y-144770689D01*
X123545435Y-144676277D01*
X123548453Y-144672077D01*
X123647430Y-144471811D01*
X123712370Y-144258069D01*
X123741529Y-144036590D01*
X123743156Y-143970000D01*
X123724852Y-143747361D01*
X123670431Y-143530702D01*
X123581354Y-143325840D01*
X123460014Y-143138277D01*
X123309670Y-142973051D01*
X123305619Y-142969852D01*
X123305615Y-142969848D01*
X123138414Y-142837800D01*
X123138410Y-142837798D01*
X123134359Y-142834598D01*
X123093053Y-142811796D01*
X123043084Y-142761364D01*
X123028312Y-142691921D01*
X123053428Y-142625516D01*
X123080780Y-142598909D01*
X123124603Y-142567650D01*
X123259860Y-142471173D01*
X123418096Y-142313489D01*
X123477594Y-142230689D01*
X123545435Y-142136277D01*
X123548453Y-142132077D01*
X123647430Y-141931811D01*
X123712370Y-141718069D01*
X123741529Y-141496590D01*
X123742212Y-141468642D01*
X123743074Y-141433365D01*
X123743074Y-141433361D01*
X123743156Y-141430000D01*
X123724852Y-141207361D01*
X123670431Y-140990702D01*
X123581354Y-140785840D01*
X123460014Y-140598277D01*
X123309670Y-140433051D01*
X123305619Y-140429852D01*
X123305615Y-140429848D01*
X123138414Y-140297800D01*
X123138410Y-140297798D01*
X123134359Y-140294598D01*
X123093053Y-140271796D01*
X123043084Y-140221364D01*
X123028312Y-140151921D01*
X123053428Y-140085516D01*
X123080780Y-140058909D01*
X123124603Y-140027650D01*
X123259860Y-139931173D01*
X123418096Y-139773489D01*
X123477594Y-139690689D01*
X123545435Y-139596277D01*
X123548453Y-139592077D01*
X123647430Y-139391811D01*
X123712370Y-139178069D01*
X123741529Y-138956590D01*
X123742887Y-138901029D01*
X123743074Y-138893365D01*
X123743074Y-138893361D01*
X123743156Y-138890000D01*
X123724852Y-138667361D01*
X123670431Y-138450702D01*
X123581354Y-138245840D01*
X123488213Y-138101866D01*
X123462822Y-138062617D01*
X123462820Y-138062614D01*
X123460014Y-138058277D01*
X123309670Y-137893051D01*
X123305619Y-137889852D01*
X123305615Y-137889848D01*
X123138414Y-137757800D01*
X123138410Y-137757798D01*
X123134359Y-137754598D01*
X123093053Y-137731796D01*
X123043084Y-137681364D01*
X123028312Y-137611921D01*
X123053428Y-137545516D01*
X123080780Y-137518909D01*
X123124603Y-137487650D01*
X123259860Y-137391173D01*
X123418096Y-137233489D01*
X123477594Y-137150689D01*
X123545435Y-137056277D01*
X123548453Y-137052077D01*
X123647430Y-136851811D01*
X123712370Y-136638069D01*
X123741529Y-136416590D01*
X123743156Y-136350000D01*
X123724852Y-136127361D01*
X123670431Y-135910702D01*
X123581354Y-135705840D01*
X123460014Y-135518277D01*
X123309670Y-135353051D01*
X123305619Y-135349852D01*
X123305615Y-135349848D01*
X123138414Y-135217800D01*
X123138410Y-135217798D01*
X123134359Y-135214598D01*
X123093053Y-135191796D01*
X123043084Y-135141364D01*
X123028312Y-135071921D01*
X123053428Y-135005516D01*
X123080780Y-134978909D01*
X123124603Y-134947650D01*
X123259860Y-134851173D01*
X123418096Y-134693489D01*
X123477594Y-134610689D01*
X123545435Y-134516277D01*
X123548453Y-134512077D01*
X123647430Y-134311811D01*
X123679900Y-134204940D01*
X123710865Y-134103023D01*
X123710865Y-134103021D01*
X123712370Y-134098069D01*
X123741529Y-133876590D01*
X123743156Y-133810000D01*
X123724852Y-133587361D01*
X123670431Y-133370702D01*
X123581354Y-133165840D01*
X123460014Y-132978277D01*
X123309670Y-132813051D01*
X123305619Y-132809852D01*
X123305615Y-132809848D01*
X123138414Y-132677800D01*
X123138410Y-132677798D01*
X123134359Y-132674598D01*
X123093053Y-132651796D01*
X123043084Y-132601364D01*
X123028312Y-132531921D01*
X123053428Y-132465516D01*
X123080780Y-132438909D01*
X123142735Y-132394717D01*
X123259860Y-132311173D01*
X123418096Y-132153489D01*
X123477594Y-132070689D01*
X123545435Y-131976277D01*
X123548453Y-131972077D01*
X123609544Y-131848469D01*
X123645136Y-131776453D01*
X123645137Y-131776451D01*
X123647430Y-131771811D01*
X123712370Y-131558069D01*
X123741529Y-131336590D01*
X123743156Y-131270000D01*
X123724852Y-131047361D01*
X123670431Y-130830702D01*
X123581354Y-130625840D01*
X123460014Y-130438277D01*
X123309670Y-130273051D01*
X123305619Y-130269852D01*
X123305615Y-130269848D01*
X123138414Y-130137800D01*
X123138410Y-130137798D01*
X123134359Y-130134598D01*
X123093053Y-130111796D01*
X123043084Y-130061364D01*
X123028312Y-129991921D01*
X123053428Y-129925516D01*
X123080780Y-129898909D01*
X123124603Y-129867650D01*
X123259860Y-129771173D01*
X123418096Y-129613489D01*
X123477594Y-129530689D01*
X123545435Y-129436277D01*
X123548453Y-129432077D01*
X123647430Y-129231811D01*
X123712370Y-129018069D01*
X123741529Y-128796590D01*
X123743156Y-128730000D01*
X123724852Y-128507361D01*
X123670431Y-128290702D01*
X123581354Y-128085840D01*
X123468700Y-127911703D01*
X123462822Y-127902617D01*
X123462820Y-127902614D01*
X123460014Y-127898277D01*
X123309670Y-127733051D01*
X123305619Y-127729852D01*
X123305615Y-127729848D01*
X123138414Y-127597800D01*
X123138410Y-127597798D01*
X123134359Y-127594598D01*
X123093053Y-127571796D01*
X123043084Y-127521364D01*
X123028312Y-127451921D01*
X123053428Y-127385516D01*
X123080780Y-127358909D01*
X123124603Y-127327650D01*
X123259860Y-127231173D01*
X123418096Y-127073489D01*
X123477594Y-126990689D01*
X123545435Y-126896277D01*
X123548453Y-126892077D01*
X123568327Y-126851866D01*
X123645136Y-126696453D01*
X123645137Y-126696451D01*
X123647430Y-126691811D01*
X123712370Y-126478069D01*
X123741529Y-126256590D01*
X123743156Y-126190000D01*
X123724852Y-125967361D01*
X123670431Y-125750702D01*
X123581354Y-125545840D01*
X123460014Y-125358277D01*
X123309670Y-125193051D01*
X123305619Y-125189852D01*
X123305615Y-125189848D01*
X123138414Y-125057800D01*
X123138410Y-125057798D01*
X123134359Y-125054598D01*
X123093053Y-125031796D01*
X123043084Y-124981364D01*
X123028312Y-124911921D01*
X123053428Y-124845516D01*
X123080780Y-124818909D01*
X123124603Y-124787650D01*
X123259860Y-124691173D01*
X123418096Y-124533489D01*
X123477594Y-124450689D01*
X123545435Y-124356277D01*
X123548453Y-124352077D01*
X123579290Y-124289684D01*
X123645136Y-124156453D01*
X123645137Y-124156451D01*
X123647430Y-124151811D01*
X123712370Y-123938069D01*
X123741529Y-123716590D01*
X123743156Y-123650000D01*
X123724852Y-123427361D01*
X123670431Y-123210702D01*
X123581354Y-123005840D01*
X123460014Y-122818277D01*
X123309670Y-122653051D01*
X123305619Y-122649852D01*
X123305615Y-122649848D01*
X123138414Y-122517800D01*
X123138410Y-122517798D01*
X123134359Y-122514598D01*
X123093053Y-122491796D01*
X123043084Y-122441364D01*
X123028312Y-122371921D01*
X123053428Y-122305516D01*
X123080780Y-122278909D01*
X123124603Y-122247650D01*
X123259860Y-122151173D01*
X123418096Y-121993489D01*
X123506132Y-121870974D01*
X123562127Y-121827326D01*
X123608455Y-121818500D01*
X124611088Y-121818500D01*
X124619658Y-121818792D01*
X124669776Y-121822209D01*
X124669780Y-121822209D01*
X124677352Y-121822725D01*
X124684829Y-121821420D01*
X124684830Y-121821420D01*
X124714298Y-121816277D01*
X124740303Y-121811738D01*
X124746821Y-121810777D01*
X124810242Y-121803102D01*
X124817343Y-121800419D01*
X124819952Y-121799778D01*
X124836262Y-121795315D01*
X124838798Y-121794550D01*
X124846284Y-121793243D01*
X124904800Y-121767556D01*
X124910904Y-121765065D01*
X124963548Y-121745173D01*
X124963549Y-121745172D01*
X124970656Y-121742487D01*
X124976919Y-121738183D01*
X124979285Y-121736946D01*
X124994097Y-121728701D01*
X124996351Y-121727368D01*
X125003305Y-121724315D01*
X125054002Y-121685413D01*
X125059332Y-121681541D01*
X125105720Y-121649661D01*
X125105725Y-121649656D01*
X125111981Y-121645357D01*
X125153436Y-121598829D01*
X125158416Y-121593554D01*
X128110520Y-118641450D01*
X128116785Y-118635596D01*
X128154660Y-118602555D01*
X128160385Y-118597561D01*
X128197114Y-118545300D01*
X128201046Y-118540005D01*
X128240477Y-118489718D01*
X128243602Y-118482796D01*
X128244964Y-118480548D01*
X128253368Y-118465815D01*
X128254622Y-118463476D01*
X128258990Y-118457261D01*
X128261749Y-118450185D01*
X128261751Y-118450181D01*
X128282202Y-118397726D01*
X128284758Y-118391646D01*
X128307918Y-118340351D01*
X128311045Y-118333426D01*
X128312429Y-118325955D01*
X128313230Y-118323401D01*
X128317867Y-118307122D01*
X128318523Y-118304567D01*
X128321282Y-118297491D01*
X128329621Y-118234149D01*
X128330653Y-118227633D01*
X128340912Y-118172280D01*
X128342296Y-118164813D01*
X128338709Y-118102602D01*
X128338500Y-118095349D01*
X128338500Y-109615660D01*
X128358502Y-109547539D01*
X128375405Y-109526565D01*
X132065276Y-105836695D01*
X136257251Y-105836695D01*
X136257548Y-105841848D01*
X136257548Y-105841851D01*
X136264274Y-105958500D01*
X136270110Y-106059715D01*
X136271247Y-106064761D01*
X136271248Y-106064767D01*
X136289266Y-106144717D01*
X136319222Y-106277639D01*
X136403266Y-106484616D01*
X136405965Y-106489020D01*
X136508615Y-106656530D01*
X136519987Y-106675088D01*
X136666250Y-106843938D01*
X136838126Y-106986632D01*
X137031000Y-107099338D01*
X137239692Y-107179030D01*
X137244760Y-107180061D01*
X137244763Y-107180062D01*
X137352017Y-107201883D01*
X137458597Y-107223567D01*
X137463772Y-107223757D01*
X137463774Y-107223757D01*
X137676673Y-107231564D01*
X137676677Y-107231564D01*
X137681837Y-107231753D01*
X137686957Y-107231097D01*
X137686959Y-107231097D01*
X137898288Y-107204025D01*
X137898289Y-107204025D01*
X137903416Y-107203368D01*
X137908366Y-107201883D01*
X138112429Y-107140661D01*
X138112434Y-107140659D01*
X138117384Y-107139174D01*
X138317994Y-107040896D01*
X138499860Y-106911173D01*
X138658096Y-106753489D01*
X138717594Y-106670689D01*
X138785435Y-106576277D01*
X138788453Y-106572077D01*
X138797503Y-106553767D01*
X138885136Y-106376453D01*
X138885137Y-106376451D01*
X138887430Y-106371811D01*
X138952370Y-106158069D01*
X138981529Y-105936590D01*
X138981611Y-105933230D01*
X138983074Y-105873365D01*
X138983074Y-105873357D01*
X138983156Y-105870000D01*
X138964852Y-105647361D01*
X138910431Y-105430702D01*
X138821354Y-105225840D01*
X138700014Y-105038277D01*
X138549670Y-104873051D01*
X138545619Y-104869852D01*
X138545615Y-104869848D01*
X138378414Y-104737800D01*
X138378410Y-104737798D01*
X138374359Y-104734598D01*
X138178789Y-104626638D01*
X138173920Y-104624914D01*
X138173916Y-104624912D01*
X137973087Y-104553795D01*
X137973083Y-104553794D01*
X137968212Y-104552069D01*
X137963119Y-104551162D01*
X137963116Y-104551161D01*
X137753373Y-104513800D01*
X137753367Y-104513799D01*
X137748284Y-104512894D01*
X137674452Y-104511992D01*
X137530081Y-104510228D01*
X137530079Y-104510228D01*
X137524911Y-104510165D01*
X137304091Y-104543955D01*
X137091756Y-104613357D01*
X136893607Y-104716507D01*
X136889474Y-104719610D01*
X136889471Y-104719612D01*
X136719100Y-104847530D01*
X136714965Y-104850635D01*
X136560629Y-105012138D01*
X136434743Y-105196680D01*
X136419003Y-105230590D01*
X136344140Y-105391869D01*
X136340688Y-105399305D01*
X136280989Y-105614570D01*
X136257251Y-105836695D01*
X132065276Y-105836695D01*
X134256566Y-103645405D01*
X134318878Y-103611379D01*
X134345661Y-103608500D01*
X138671088Y-103608500D01*
X138679658Y-103608792D01*
X138729776Y-103612209D01*
X138729780Y-103612209D01*
X138737352Y-103612725D01*
X138744829Y-103611420D01*
X138744830Y-103611420D01*
X138771308Y-103606799D01*
X138800303Y-103601738D01*
X138806821Y-103600777D01*
X138870242Y-103593102D01*
X138877343Y-103590419D01*
X138879952Y-103589778D01*
X138896262Y-103585315D01*
X138898798Y-103584550D01*
X138906284Y-103583243D01*
X138964800Y-103557556D01*
X138970904Y-103555065D01*
X139023548Y-103535173D01*
X139023549Y-103535172D01*
X139030656Y-103532487D01*
X139036919Y-103528183D01*
X139039285Y-103526946D01*
X139054097Y-103518701D01*
X139056351Y-103517368D01*
X139063305Y-103514315D01*
X139114002Y-103475413D01*
X139119332Y-103471541D01*
X139165720Y-103439661D01*
X139165725Y-103439656D01*
X139171981Y-103435357D01*
X139190422Y-103414660D01*
X139213435Y-103388830D01*
X139218416Y-103383554D01*
X139276405Y-103325565D01*
X139338717Y-103291539D01*
X139409532Y-103296604D01*
X139466368Y-103339151D01*
X139491179Y-103405671D01*
X139491500Y-103414660D01*
X139491500Y-106921088D01*
X139491208Y-106929658D01*
X139488193Y-106973891D01*
X139487275Y-106987352D01*
X139488580Y-106994829D01*
X139488580Y-106994830D01*
X139498261Y-107050299D01*
X139499223Y-107056821D01*
X139506898Y-107120242D01*
X139509581Y-107127343D01*
X139510222Y-107129952D01*
X139514685Y-107146262D01*
X139515450Y-107148798D01*
X139516757Y-107156284D01*
X139519811Y-107163241D01*
X139542442Y-107214795D01*
X139544933Y-107220899D01*
X139567513Y-107280656D01*
X139571817Y-107286919D01*
X139573054Y-107289285D01*
X139581299Y-107304097D01*
X139582632Y-107306351D01*
X139585685Y-107313305D01*
X139590307Y-107319328D01*
X139624579Y-107363991D01*
X139628459Y-107369332D01*
X139660339Y-107415720D01*
X139660344Y-107415725D01*
X139664643Y-107421981D01*
X139670313Y-107427032D01*
X139670314Y-107427034D01*
X139711170Y-107463435D01*
X139716446Y-107468416D01*
X141728550Y-109480520D01*
X141734404Y-109486785D01*
X141772439Y-109530385D01*
X141778657Y-109534755D01*
X141824697Y-109567112D01*
X141829993Y-109571045D01*
X141880282Y-109610477D01*
X141887204Y-109613602D01*
X141889452Y-109614964D01*
X141904185Y-109623368D01*
X141906524Y-109624622D01*
X141912739Y-109628990D01*
X141919815Y-109631749D01*
X141919819Y-109631751D01*
X141972269Y-109652200D01*
X141978334Y-109654749D01*
X142036573Y-109681045D01*
X142044038Y-109682429D01*
X142046582Y-109683226D01*
X142062848Y-109687859D01*
X142065428Y-109688521D01*
X142072509Y-109691282D01*
X142080042Y-109692274D01*
X142080043Y-109692274D01*
X142106425Y-109695747D01*
X142135857Y-109699622D01*
X142142355Y-109700650D01*
X142205187Y-109712296D01*
X142212767Y-109711859D01*
X142212768Y-109711859D01*
X142267393Y-109708709D01*
X142274647Y-109708500D01*
X144515500Y-109708500D01*
X144583621Y-109728502D01*
X144630114Y-109782158D01*
X144641500Y-109834500D01*
X144641500Y-109898134D01*
X144648255Y-109960316D01*
X144699385Y-110096705D01*
X144786739Y-110213261D01*
X144903295Y-110300615D01*
X145039684Y-110351745D01*
X145101866Y-110358500D01*
X146898134Y-110358500D01*
X146960316Y-110351745D01*
X147096705Y-110300615D01*
X147213261Y-110213261D01*
X147300615Y-110096705D01*
X147351745Y-109960316D01*
X147358500Y-109898134D01*
X147358500Y-108101866D01*
X147351745Y-108039684D01*
X147300615Y-107903295D01*
X147213261Y-107786739D01*
X147096705Y-107699385D01*
X146960316Y-107648255D01*
X146898134Y-107641500D01*
X145101866Y-107641500D01*
X145039684Y-107648255D01*
X144903295Y-107699385D01*
X144786739Y-107786739D01*
X144699385Y-107903295D01*
X144648255Y-108039684D01*
X144641500Y-108101866D01*
X144641500Y-108165500D01*
X144621498Y-108233621D01*
X144567842Y-108280114D01*
X144515500Y-108291500D01*
X142595660Y-108291500D01*
X142527539Y-108271498D01*
X142506565Y-108254595D01*
X140945405Y-106693435D01*
X140911379Y-106631123D01*
X140908500Y-106604340D01*
X140908500Y-105214660D01*
X140928502Y-105146539D01*
X140982158Y-105100046D01*
X141052432Y-105089942D01*
X141117012Y-105119436D01*
X141123595Y-105125565D01*
X141728550Y-105730520D01*
X141734404Y-105736785D01*
X141772439Y-105780385D01*
X141778653Y-105784752D01*
X141824719Y-105817128D01*
X141830014Y-105821061D01*
X141880282Y-105860476D01*
X141887198Y-105863599D01*
X141889484Y-105864983D01*
X141904165Y-105873357D01*
X141906525Y-105874622D01*
X141912739Y-105878990D01*
X141919818Y-105881750D01*
X141919820Y-105881751D01*
X141972275Y-105902202D01*
X141978344Y-105904753D01*
X142036573Y-105931045D01*
X142044040Y-105932429D01*
X142046595Y-105933230D01*
X142062848Y-105937859D01*
X142065428Y-105938522D01*
X142072509Y-105941282D01*
X142080040Y-105942273D01*
X142080042Y-105942274D01*
X142109661Y-105946173D01*
X142135861Y-105949622D01*
X142142359Y-105950652D01*
X142205186Y-105962296D01*
X142212766Y-105961859D01*
X142212767Y-105961859D01*
X142267392Y-105958709D01*
X142274646Y-105958500D01*
X144515500Y-105958500D01*
X144583621Y-105978502D01*
X144630114Y-106032158D01*
X144641500Y-106084500D01*
X144641500Y-106148134D01*
X144648255Y-106210316D01*
X144699385Y-106346705D01*
X144786739Y-106463261D01*
X144903295Y-106550615D01*
X145039684Y-106601745D01*
X145101866Y-106608500D01*
X146898134Y-106608500D01*
X146960316Y-106601745D01*
X147096705Y-106550615D01*
X147213261Y-106463261D01*
X147300615Y-106346705D01*
X147351745Y-106210316D01*
X147358500Y-106148134D01*
X147358500Y-104351866D01*
X147351745Y-104289684D01*
X147300615Y-104153295D01*
X147213261Y-104036739D01*
X147096705Y-103949385D01*
X146960316Y-103898255D01*
X146898134Y-103891500D01*
X145101866Y-103891500D01*
X145039684Y-103898255D01*
X144903295Y-103949385D01*
X144786739Y-104036739D01*
X144699385Y-104153295D01*
X144648255Y-104289684D01*
X144641500Y-104351866D01*
X144641500Y-104415500D01*
X144621498Y-104483621D01*
X144567842Y-104530114D01*
X144515500Y-104541500D01*
X142595660Y-104541500D01*
X142527539Y-104521498D01*
X142506565Y-104504595D01*
X141745405Y-103743435D01*
X141711379Y-103681123D01*
X141708500Y-103654340D01*
X141708500Y-49595660D01*
X141728502Y-49527539D01*
X141745405Y-49506565D01*
X143256566Y-47995405D01*
X143318878Y-47961379D01*
X143345661Y-47958500D01*
X143765500Y-47958500D01*
X143833621Y-47978502D01*
X143880114Y-48032158D01*
X143891500Y-48084500D01*
X143891500Y-48148134D01*
X143898255Y-48210316D01*
X143949385Y-48346705D01*
X144036739Y-48463261D01*
X144153295Y-48550615D01*
X144289684Y-48601745D01*
X144351866Y-48608500D01*
X146148134Y-48608500D01*
X146210316Y-48601745D01*
X146346705Y-48550615D01*
X146463261Y-48463261D01*
X146550615Y-48346705D01*
X146601745Y-48210316D01*
X146608500Y-48148134D01*
X146608500Y-46351866D01*
X146601745Y-46289684D01*
X146550615Y-46153295D01*
X146463261Y-46036739D01*
X146346705Y-45949385D01*
X146210316Y-45898255D01*
X146148134Y-45891500D01*
X144351866Y-45891500D01*
X144289684Y-45898255D01*
X144153295Y-45949385D01*
X144036739Y-46036739D01*
X143949385Y-46153295D01*
X143898255Y-46289684D01*
X143891500Y-46351866D01*
X143891500Y-46415500D01*
X143871498Y-46483621D01*
X143817842Y-46530114D01*
X143765500Y-46541500D01*
X143028912Y-46541500D01*
X143020342Y-46541208D01*
X142970224Y-46537791D01*
X142970220Y-46537791D01*
X142962648Y-46537275D01*
X142955171Y-46538580D01*
X142955170Y-46538580D01*
X142928692Y-46543201D01*
X142899697Y-46548262D01*
X142893179Y-46549223D01*
X142829758Y-46556898D01*
X142822657Y-46559581D01*
X142820048Y-46560222D01*
X142803738Y-46564685D01*
X142801202Y-46565450D01*
X142793716Y-46566757D01*
X142786759Y-46569811D01*
X142735205Y-46592442D01*
X142729101Y-46594933D01*
X142669344Y-46617513D01*
X142663081Y-46621817D01*
X142660715Y-46623054D01*
X142645903Y-46631299D01*
X142643649Y-46632632D01*
X142636695Y-46635685D01*
X142585998Y-46674587D01*
X142580668Y-46678459D01*
X142534280Y-46710339D01*
X142534275Y-46710344D01*
X142528019Y-46714643D01*
X142522968Y-46720313D01*
X142522966Y-46720314D01*
X142486565Y-46761170D01*
X142481584Y-46766446D01*
X141123595Y-48124435D01*
X141061283Y-48158461D01*
X140990468Y-48153396D01*
X140933632Y-48110849D01*
X140908821Y-48044329D01*
X140908500Y-48035340D01*
X140908500Y-46095660D01*
X140928502Y-46027539D01*
X140945405Y-46006565D01*
X142706565Y-44245405D01*
X142768877Y-44211379D01*
X142795660Y-44208500D01*
X143765500Y-44208500D01*
X143833621Y-44228502D01*
X143880114Y-44282158D01*
X143891500Y-44334500D01*
X143891500Y-44398134D01*
X143898255Y-44460316D01*
X143949385Y-44596705D01*
X144036739Y-44713261D01*
X144153295Y-44800615D01*
X144289684Y-44851745D01*
X144351866Y-44858500D01*
X146148134Y-44858500D01*
X146210316Y-44851745D01*
X146346705Y-44800615D01*
X146463261Y-44713261D01*
X146550615Y-44596705D01*
X146601745Y-44460316D01*
X146608500Y-44398134D01*
X146608500Y-42601866D01*
X146601745Y-42539684D01*
X146550615Y-42403295D01*
X146463261Y-42286739D01*
X146346705Y-42199385D01*
X146210316Y-42148255D01*
X146148134Y-42141500D01*
X144351866Y-42141500D01*
X144289684Y-42148255D01*
X144153295Y-42199385D01*
X144036739Y-42286739D01*
X143949385Y-42403295D01*
X143898255Y-42539684D01*
X143891500Y-42601866D01*
X143891500Y-42665500D01*
X143871498Y-42733621D01*
X143817842Y-42780114D01*
X143765500Y-42791500D01*
X142478927Y-42791500D01*
X142470358Y-42791208D01*
X142420225Y-42787790D01*
X142420221Y-42787790D01*
X142412648Y-42787274D01*
X142349681Y-42798264D01*
X142343169Y-42799224D01*
X142279758Y-42806898D01*
X142272657Y-42809581D01*
X142270048Y-42810222D01*
X142253728Y-42814687D01*
X142251195Y-42815452D01*
X142243717Y-42816757D01*
X142185190Y-42842448D01*
X142179108Y-42844930D01*
X142158753Y-42852622D01*
X142126449Y-42864828D01*
X142126447Y-42864829D01*
X142119344Y-42867513D01*
X142113085Y-42871814D01*
X142110720Y-42873051D01*
X142095948Y-42881273D01*
X142093656Y-42882628D01*
X142086695Y-42885684D01*
X142080668Y-42890309D01*
X142080664Y-42890311D01*
X142035987Y-42924593D01*
X142030662Y-42928462D01*
X141978019Y-42964643D01*
X141972967Y-42970313D01*
X141972966Y-42970314D01*
X141936573Y-43011161D01*
X141931592Y-43016437D01*
X141091591Y-43856439D01*
X140423595Y-44524435D01*
X140361283Y-44558460D01*
X140290468Y-44553396D01*
X140233632Y-44510849D01*
X140208821Y-44444329D01*
X140208500Y-44435340D01*
X140208500Y-41095660D01*
X140228502Y-41027539D01*
X140245405Y-41006565D01*
X140756565Y-40495405D01*
X140818877Y-40461379D01*
X140845660Y-40458500D01*
X143765500Y-40458500D01*
X143833621Y-40478502D01*
X143880114Y-40532158D01*
X143891500Y-40584500D01*
X143891500Y-40648134D01*
X143898255Y-40710316D01*
X143949385Y-40846705D01*
X144036739Y-40963261D01*
X144153295Y-41050615D01*
X144289684Y-41101745D01*
X144351866Y-41108500D01*
X146148134Y-41108500D01*
X146210316Y-41101745D01*
X146346705Y-41050615D01*
X146463261Y-40963261D01*
X146550615Y-40846705D01*
X146601745Y-40710316D01*
X146608500Y-40648134D01*
X146608500Y-38851866D01*
X146601745Y-38789684D01*
X146550615Y-38653295D01*
X146463261Y-38536739D01*
X146346705Y-38449385D01*
X146210316Y-38398255D01*
X146148134Y-38391500D01*
X144351866Y-38391500D01*
X144289684Y-38398255D01*
X144153295Y-38449385D01*
X144036739Y-38536739D01*
X143949385Y-38653295D01*
X143898255Y-38789684D01*
X143891500Y-38851866D01*
X143891500Y-38915500D01*
X143871498Y-38983621D01*
X143817842Y-39030114D01*
X143765500Y-39041500D01*
X140528927Y-39041500D01*
X140520358Y-39041208D01*
X140470225Y-39037790D01*
X140470221Y-39037790D01*
X140462648Y-39037274D01*
X140399681Y-39048264D01*
X140393169Y-39049224D01*
X140329758Y-39056898D01*
X140322657Y-39059581D01*
X140320048Y-39060222D01*
X140303728Y-39064687D01*
X140301195Y-39065452D01*
X140293717Y-39066757D01*
X140235190Y-39092448D01*
X140229108Y-39094930D01*
X140208753Y-39102622D01*
X140176449Y-39114828D01*
X140176447Y-39114829D01*
X140169344Y-39117513D01*
X140163085Y-39121814D01*
X140160720Y-39123051D01*
X140145948Y-39131273D01*
X140143656Y-39132628D01*
X140136695Y-39135684D01*
X140130668Y-39140309D01*
X140130664Y-39140311D01*
X140085987Y-39174593D01*
X140080662Y-39178462D01*
X140028019Y-39214643D01*
X140022967Y-39220313D01*
X140022966Y-39220314D01*
X139986580Y-39261153D01*
X139981600Y-39266429D01*
X139729361Y-39518669D01*
X139673596Y-39574434D01*
X139611283Y-39608459D01*
X139540468Y-39603395D01*
X139483632Y-39560848D01*
X139458821Y-39494328D01*
X139458500Y-39485339D01*
X139458500Y-37845660D01*
X139478502Y-37777539D01*
X139495405Y-37756565D01*
X140506566Y-36745405D01*
X140568878Y-36711379D01*
X140595661Y-36708500D01*
X143765500Y-36708500D01*
X143833621Y-36728502D01*
X143880114Y-36782158D01*
X143891500Y-36834500D01*
X143891500Y-36898134D01*
X143898255Y-36960316D01*
X143949385Y-37096705D01*
X144036739Y-37213261D01*
X144153295Y-37300615D01*
X144289684Y-37351745D01*
X144351866Y-37358500D01*
X146148134Y-37358500D01*
X146210316Y-37351745D01*
X146346705Y-37300615D01*
X146463261Y-37213261D01*
X146550615Y-37096705D01*
X146601745Y-36960316D01*
X146608500Y-36898134D01*
X146608500Y-35101866D01*
X146601745Y-35039684D01*
X146550615Y-34903295D01*
X146463261Y-34786739D01*
X146346705Y-34699385D01*
X146210316Y-34648255D01*
X146148134Y-34641500D01*
X144351866Y-34641500D01*
X144289684Y-34648255D01*
X144153295Y-34699385D01*
X144036739Y-34786739D01*
X143949385Y-34903295D01*
X143898255Y-35039684D01*
X143891500Y-35101866D01*
X143891500Y-35165500D01*
X143871498Y-35233621D01*
X143817842Y-35280114D01*
X143765500Y-35291500D01*
X140278912Y-35291500D01*
X140270342Y-35291208D01*
X140220224Y-35287791D01*
X140220220Y-35287791D01*
X140212648Y-35287275D01*
X140205171Y-35288580D01*
X140205170Y-35288580D01*
X140190113Y-35291208D01*
X140149703Y-35298261D01*
X140143186Y-35299222D01*
X140079758Y-35306898D01*
X140072650Y-35309584D01*
X140070056Y-35310221D01*
X140053750Y-35314682D01*
X140051199Y-35315452D01*
X140043716Y-35316758D01*
X140036764Y-35319810D01*
X140036763Y-35319810D01*
X139985212Y-35342439D01*
X139979105Y-35344931D01*
X139926452Y-35364827D01*
X139919344Y-35367513D01*
X139913083Y-35371816D01*
X139910717Y-35373053D01*
X139895937Y-35381280D01*
X139893652Y-35382631D01*
X139886695Y-35385685D01*
X139880675Y-35390305D01*
X139880669Y-35390308D01*
X139849542Y-35414194D01*
X139835998Y-35424587D01*
X139830668Y-35428459D01*
X139784280Y-35460339D01*
X139784275Y-35460344D01*
X139778019Y-35464643D01*
X139772968Y-35470313D01*
X139772966Y-35470314D01*
X139736565Y-35511170D01*
X139731584Y-35516446D01*
X138974757Y-36273273D01*
X138912445Y-36307299D01*
X138841630Y-36302234D01*
X138784794Y-36259687D01*
X138761538Y-36205842D01*
X138751738Y-36149692D01*
X138750775Y-36143165D01*
X138744014Y-36087298D01*
X138743102Y-36079758D01*
X138740419Y-36072657D01*
X138739778Y-36070048D01*
X138735313Y-36053728D01*
X138734548Y-36051195D01*
X138733243Y-36043717D01*
X138707552Y-35985190D01*
X138705067Y-35979102D01*
X138685172Y-35926449D01*
X138685171Y-35926447D01*
X138682487Y-35919344D01*
X138678186Y-35913085D01*
X138676949Y-35910720D01*
X138668727Y-35895948D01*
X138667372Y-35893656D01*
X138664316Y-35886695D01*
X138659691Y-35880668D01*
X138659689Y-35880664D01*
X138625407Y-35835987D01*
X138621529Y-35830650D01*
X138589659Y-35784278D01*
X138589658Y-35784277D01*
X138585357Y-35778019D01*
X138538847Y-35736580D01*
X138533571Y-35731600D01*
X137861435Y-35059465D01*
X137855581Y-35053198D01*
X137822556Y-35015340D01*
X137822553Y-35015337D01*
X137817561Y-35009615D01*
X137765280Y-34972871D01*
X137759986Y-34968939D01*
X137715693Y-34934209D01*
X137709718Y-34929524D01*
X137702802Y-34926401D01*
X137700516Y-34925017D01*
X137685835Y-34916643D01*
X137683475Y-34915378D01*
X137677261Y-34911010D01*
X137670182Y-34908250D01*
X137670180Y-34908249D01*
X137617725Y-34887798D01*
X137611656Y-34885247D01*
X137553427Y-34858955D01*
X137545960Y-34857571D01*
X137543405Y-34856770D01*
X137527152Y-34852141D01*
X137524572Y-34851478D01*
X137517491Y-34848718D01*
X137509960Y-34847727D01*
X137509958Y-34847726D01*
X137480339Y-34843827D01*
X137454139Y-34840378D01*
X137447641Y-34839348D01*
X137384814Y-34827704D01*
X137377234Y-34828141D01*
X137377233Y-34828141D01*
X137322608Y-34831291D01*
X137315354Y-34831500D01*
X137120488Y-34831500D01*
X137052367Y-34811498D01*
X137017275Y-34777770D01*
X136980140Y-34724735D01*
X136980135Y-34724729D01*
X136976977Y-34720219D01*
X136819781Y-34563023D01*
X136815273Y-34559866D01*
X136815270Y-34559864D01*
X136739505Y-34506813D01*
X136637677Y-34435512D01*
X136632695Y-34433189D01*
X136632690Y-34433186D01*
X136441178Y-34343883D01*
X136441177Y-34343882D01*
X136436196Y-34341560D01*
X136430888Y-34340138D01*
X136430886Y-34340137D01*
X136365051Y-34322497D01*
X136221463Y-34284022D01*
X136000000Y-34264647D01*
X135778537Y-34284022D01*
X135634949Y-34322497D01*
X135569114Y-34340137D01*
X135569112Y-34340138D01*
X135563804Y-34341560D01*
X135558823Y-34343882D01*
X135558822Y-34343883D01*
X135367311Y-34433186D01*
X135367306Y-34433189D01*
X135362324Y-34435512D01*
X135357817Y-34438668D01*
X135357815Y-34438669D01*
X135184730Y-34559864D01*
X135184727Y-34559866D01*
X135180219Y-34563023D01*
X135023023Y-34720219D01*
X135019866Y-34724727D01*
X135019864Y-34724730D01*
X134906521Y-34886601D01*
X134895512Y-34902324D01*
X134893189Y-34907306D01*
X134893186Y-34907311D01*
X134804048Y-35098469D01*
X134801560Y-35103804D01*
X134744022Y-35318537D01*
X134724647Y-35540000D01*
X134744022Y-35761463D01*
X134801560Y-35976196D01*
X134803882Y-35981177D01*
X134803883Y-35981178D01*
X134893186Y-36172689D01*
X134893189Y-36172694D01*
X134895512Y-36177676D01*
X134898668Y-36182183D01*
X134898669Y-36182185D01*
X135000161Y-36327130D01*
X135023023Y-36359781D01*
X135180219Y-36516977D01*
X135184727Y-36520134D01*
X135184730Y-36520136D01*
X135218055Y-36543470D01*
X135362323Y-36644488D01*
X135367305Y-36646811D01*
X135367310Y-36646814D01*
X135472373Y-36695805D01*
X135525658Y-36742722D01*
X135545119Y-36810999D01*
X135524577Y-36878959D01*
X135472373Y-36924195D01*
X135367311Y-36973186D01*
X135367306Y-36973189D01*
X135362324Y-36975512D01*
X135357817Y-36978668D01*
X135357815Y-36978669D01*
X135184730Y-37099864D01*
X135184727Y-37099866D01*
X135180219Y-37103023D01*
X135023023Y-37260219D01*
X135019866Y-37264727D01*
X135019864Y-37264730D01*
X134954464Y-37358131D01*
X134895512Y-37442324D01*
X134893189Y-37447306D01*
X134893186Y-37447311D01*
X134803883Y-37638822D01*
X134801560Y-37643804D01*
X134744022Y-37858537D01*
X134724647Y-38080000D01*
X134744022Y-38301463D01*
X134801560Y-38516196D01*
X134803882Y-38521177D01*
X134803883Y-38521178D01*
X134893186Y-38712689D01*
X134893189Y-38712694D01*
X134895512Y-38717676D01*
X134898668Y-38722183D01*
X134898669Y-38722185D01*
X134989473Y-38851866D01*
X135023023Y-38899781D01*
X135180219Y-39056977D01*
X135184727Y-39060134D01*
X135184730Y-39060136D01*
X135260495Y-39113187D01*
X135362323Y-39184488D01*
X135367305Y-39186811D01*
X135367310Y-39186814D01*
X135472373Y-39235805D01*
X135525658Y-39282722D01*
X135545119Y-39350999D01*
X135524577Y-39418959D01*
X135472373Y-39464195D01*
X135367311Y-39513186D01*
X135367306Y-39513189D01*
X135362324Y-39515512D01*
X135357817Y-39518668D01*
X135357815Y-39518669D01*
X135184730Y-39639864D01*
X135184727Y-39639866D01*
X135180219Y-39643023D01*
X135023023Y-39800219D01*
X134895512Y-39982324D01*
X134893189Y-39987306D01*
X134893186Y-39987311D01*
X134803883Y-40178822D01*
X134801560Y-40183804D01*
X134744022Y-40398537D01*
X134724647Y-40620000D01*
X134744022Y-40841463D01*
X134745446Y-40846776D01*
X134800065Y-41050615D01*
X134801560Y-41056196D01*
X134803882Y-41061177D01*
X134803883Y-41061178D01*
X134893186Y-41252689D01*
X134893189Y-41252694D01*
X134895512Y-41257676D01*
X134898668Y-41262183D01*
X134898669Y-41262185D01*
X134907803Y-41275229D01*
X135023023Y-41439781D01*
X135180219Y-41596977D01*
X135184727Y-41600134D01*
X135184730Y-41600136D01*
X135260495Y-41653187D01*
X135362323Y-41724488D01*
X135367305Y-41726811D01*
X135367310Y-41726814D01*
X135472373Y-41775805D01*
X135525658Y-41822722D01*
X135545119Y-41890999D01*
X135524577Y-41958959D01*
X135472373Y-42004195D01*
X135367311Y-42053186D01*
X135367306Y-42053189D01*
X135362324Y-42055512D01*
X135357817Y-42058668D01*
X135357815Y-42058669D01*
X135184730Y-42179864D01*
X135184727Y-42179866D01*
X135180219Y-42183023D01*
X135023023Y-42340219D01*
X135019866Y-42344727D01*
X135019864Y-42344730D01*
X134972969Y-42411703D01*
X134895512Y-42522324D01*
X134893189Y-42527306D01*
X134893186Y-42527311D01*
X134803883Y-42718822D01*
X134801560Y-42723804D01*
X134800138Y-42729112D01*
X134800137Y-42729114D01*
X134786472Y-42780114D01*
X134744022Y-42938537D01*
X134724647Y-43160000D01*
X134744022Y-43381463D01*
X134801560Y-43596196D01*
X134803882Y-43601177D01*
X134803883Y-43601178D01*
X134893186Y-43792689D01*
X134893189Y-43792694D01*
X134895512Y-43797676D01*
X134898668Y-43802183D01*
X134898669Y-43802185D01*
X134907803Y-43815229D01*
X135023023Y-43979781D01*
X135180219Y-44136977D01*
X135184727Y-44140134D01*
X135184730Y-44140136D01*
X135260495Y-44193187D01*
X135362323Y-44264488D01*
X135367305Y-44266811D01*
X135367310Y-44266814D01*
X135472373Y-44315805D01*
X135525658Y-44362722D01*
X135545119Y-44430999D01*
X135524577Y-44498959D01*
X135472373Y-44544195D01*
X135367311Y-44593186D01*
X135367306Y-44593189D01*
X135362324Y-44595512D01*
X135357817Y-44598668D01*
X135357815Y-44598669D01*
X135184730Y-44719864D01*
X135184727Y-44719866D01*
X135180219Y-44723023D01*
X135023023Y-44880219D01*
X134895512Y-45062324D01*
X134893189Y-45067306D01*
X134893186Y-45067311D01*
X134803883Y-45258822D01*
X134801560Y-45263804D01*
X134744022Y-45478537D01*
X134724647Y-45700000D01*
X134744022Y-45921463D01*
X134801560Y-46136196D01*
X134803882Y-46141177D01*
X134803883Y-46141178D01*
X134893186Y-46332689D01*
X134893189Y-46332694D01*
X134895512Y-46337676D01*
X134898668Y-46342183D01*
X134898669Y-46342185D01*
X134997704Y-46483621D01*
X135023023Y-46519781D01*
X135180219Y-46676977D01*
X135184727Y-46680134D01*
X135184730Y-46680136D01*
X135227865Y-46710339D01*
X135362323Y-46804488D01*
X135367305Y-46806811D01*
X135367310Y-46806814D01*
X135472373Y-46855805D01*
X135525658Y-46902722D01*
X135545119Y-46970999D01*
X135524577Y-47038959D01*
X135472373Y-47084195D01*
X135367311Y-47133186D01*
X135367306Y-47133189D01*
X135362324Y-47135512D01*
X135357817Y-47138668D01*
X135357815Y-47138669D01*
X135184730Y-47259864D01*
X135184727Y-47259866D01*
X135180219Y-47263023D01*
X135023023Y-47420219D01*
X134895512Y-47602324D01*
X134893189Y-47607306D01*
X134893186Y-47607311D01*
X134803883Y-47798822D01*
X134801560Y-47803804D01*
X134744022Y-48018537D01*
X134724647Y-48240000D01*
X134744022Y-48461463D01*
X134801560Y-48676196D01*
X134803882Y-48681177D01*
X134803883Y-48681178D01*
X134893186Y-48872689D01*
X134893189Y-48872694D01*
X134895512Y-48877676D01*
X134898668Y-48882183D01*
X134898669Y-48882185D01*
X134907803Y-48895229D01*
X135023023Y-49059781D01*
X135180219Y-49216977D01*
X135184727Y-49220134D01*
X135184730Y-49220136D01*
X135260495Y-49273187D01*
X135362323Y-49344488D01*
X135367305Y-49346811D01*
X135367310Y-49346814D01*
X135472373Y-49395805D01*
X135525658Y-49442722D01*
X135545119Y-49510999D01*
X135524577Y-49578959D01*
X135472373Y-49624195D01*
X135367311Y-49673186D01*
X135367306Y-49673189D01*
X135362324Y-49675512D01*
X135357817Y-49678668D01*
X135357815Y-49678669D01*
X135184730Y-49799864D01*
X135184727Y-49799866D01*
X135180219Y-49803023D01*
X135023023Y-49960219D01*
X134895512Y-50142324D01*
X134893189Y-50147306D01*
X134893186Y-50147311D01*
X134803883Y-50338822D01*
X134801560Y-50343804D01*
X134744022Y-50558537D01*
X134724647Y-50780000D01*
X134744022Y-51001463D01*
X134801560Y-51216196D01*
X134803882Y-51221177D01*
X134803883Y-51221178D01*
X134893186Y-51412689D01*
X134893189Y-51412694D01*
X134895512Y-51417676D01*
X134898668Y-51422183D01*
X134898669Y-51422185D01*
X134907803Y-51435229D01*
X135023023Y-51599781D01*
X135180219Y-51756977D01*
X135184727Y-51760134D01*
X135184730Y-51760136D01*
X135260495Y-51813187D01*
X135362323Y-51884488D01*
X135367305Y-51886811D01*
X135367310Y-51886814D01*
X135558822Y-51976117D01*
X135563804Y-51978440D01*
X135569112Y-51979862D01*
X135569114Y-51979863D01*
X135634949Y-51997503D01*
X135778537Y-52035978D01*
X136000000Y-52055353D01*
X136221463Y-52035978D01*
X136365051Y-51997503D01*
X136430886Y-51979863D01*
X136430888Y-51979862D01*
X136436196Y-51978440D01*
X136441178Y-51976117D01*
X136632690Y-51886814D01*
X136632695Y-51886811D01*
X136637677Y-51884488D01*
X136739505Y-51813187D01*
X136815270Y-51760136D01*
X136815273Y-51760134D01*
X136819781Y-51756977D01*
X136976977Y-51599781D01*
X137092198Y-51435229D01*
X137101331Y-51422185D01*
X137101332Y-51422183D01*
X137104488Y-51417676D01*
X137106531Y-51413295D01*
X137157764Y-51364445D01*
X137227478Y-51351010D01*
X137293389Y-51377397D01*
X137334570Y-51435229D01*
X137341500Y-51476439D01*
X137341500Y-55564880D01*
X137321498Y-55633001D01*
X137267842Y-55679494D01*
X137197568Y-55689598D01*
X137132988Y-55660104D01*
X137116550Y-55642886D01*
X137099019Y-55620649D01*
X137050138Y-55558643D01*
X136859763Y-55379557D01*
X136645009Y-55230576D01*
X136640816Y-55228508D01*
X136414781Y-55117040D01*
X136414778Y-55117039D01*
X136410593Y-55114975D01*
X136364449Y-55100204D01*
X136166123Y-55036720D01*
X136161665Y-55035293D01*
X135903693Y-54993279D01*
X135789942Y-54991790D01*
X135647022Y-54989919D01*
X135647019Y-54989919D01*
X135642345Y-54989858D01*
X135383362Y-55025104D01*
X135132433Y-55098243D01*
X135128180Y-55100203D01*
X135128179Y-55100204D01*
X135091659Y-55117040D01*
X134895072Y-55207668D01*
X134856067Y-55233241D01*
X134680404Y-55348410D01*
X134680399Y-55348414D01*
X134676491Y-55350976D01*
X134481494Y-55525018D01*
X134314363Y-55725970D01*
X134178771Y-55949419D01*
X134077697Y-56190455D01*
X134013359Y-56443783D01*
X133987173Y-56703839D01*
X133988893Y-56739647D01*
X133999713Y-56964908D01*
X134050704Y-57221256D01*
X134139026Y-57467252D01*
X134141242Y-57471376D01*
X134205753Y-57591437D01*
X134262737Y-57697491D01*
X134265532Y-57701234D01*
X134265534Y-57701237D01*
X134416330Y-57903177D01*
X134416335Y-57903183D01*
X134419122Y-57906915D01*
X134422431Y-57910195D01*
X134422436Y-57910201D01*
X134601426Y-58087635D01*
X134604743Y-58090923D01*
X134608505Y-58093681D01*
X134608508Y-58093684D01*
X134811750Y-58242707D01*
X134815524Y-58245474D01*
X134819667Y-58247654D01*
X134819669Y-58247655D01*
X135042684Y-58364989D01*
X135042689Y-58364991D01*
X135046834Y-58367172D01*
X135293590Y-58453344D01*
X135298183Y-58454216D01*
X135545785Y-58501224D01*
X135545788Y-58501224D01*
X135550374Y-58502095D01*
X135680959Y-58507226D01*
X135806875Y-58512174D01*
X135806881Y-58512174D01*
X135811543Y-58512357D01*
X135890977Y-58503657D01*
X136066707Y-58484412D01*
X136066712Y-58484411D01*
X136071360Y-58483902D01*
X136184116Y-58454216D01*
X136319594Y-58418548D01*
X136319596Y-58418547D01*
X136324117Y-58417357D01*
X136564262Y-58314182D01*
X136786519Y-58176646D01*
X136790082Y-58173629D01*
X136790087Y-58173626D01*
X136982439Y-58010787D01*
X136982440Y-58010786D01*
X136986005Y-58007768D01*
X136989085Y-58004256D01*
X136989090Y-58004251D01*
X137120768Y-57854101D01*
X137180722Y-57816073D01*
X137251717Y-57816495D01*
X137311214Y-57855234D01*
X137340322Y-57919989D01*
X137341500Y-57937178D01*
X137341500Y-80204340D01*
X137321498Y-80272461D01*
X137304595Y-80293435D01*
X135723435Y-81874595D01*
X135661123Y-81908621D01*
X135634340Y-81911500D01*
X131120488Y-81911500D01*
X131052367Y-81891498D01*
X131017275Y-81857770D01*
X130980140Y-81804735D01*
X130980135Y-81804729D01*
X130976977Y-81800219D01*
X130819781Y-81643023D01*
X130815273Y-81639866D01*
X130815270Y-81639864D01*
X130701883Y-81560470D01*
X130637677Y-81515512D01*
X130632695Y-81513189D01*
X130632690Y-81513186D01*
X130527627Y-81464195D01*
X130474342Y-81417278D01*
X130454881Y-81349001D01*
X130475423Y-81281041D01*
X130527627Y-81235805D01*
X130632690Y-81186814D01*
X130632695Y-81186811D01*
X130637677Y-81184488D01*
X130739505Y-81113187D01*
X130815270Y-81060136D01*
X130815273Y-81060134D01*
X130819781Y-81056977D01*
X130976977Y-80899781D01*
X131104488Y-80717676D01*
X131106811Y-80712694D01*
X131106814Y-80712689D01*
X131196117Y-80521178D01*
X131196118Y-80521177D01*
X131198440Y-80516196D01*
X131255978Y-80301463D01*
X131275353Y-80080000D01*
X131255978Y-79858537D01*
X131198440Y-79643804D01*
X131196117Y-79638822D01*
X131106814Y-79447311D01*
X131106811Y-79447306D01*
X131104488Y-79442324D01*
X130976977Y-79260219D01*
X130819781Y-79103023D01*
X130815273Y-79099866D01*
X130815270Y-79099864D01*
X130739505Y-79046813D01*
X130637677Y-78975512D01*
X130632695Y-78973189D01*
X130632690Y-78973186D01*
X130527627Y-78924195D01*
X130474342Y-78877278D01*
X130454881Y-78809001D01*
X130475423Y-78741041D01*
X130527627Y-78695805D01*
X130632690Y-78646814D01*
X130632695Y-78646811D01*
X130637677Y-78644488D01*
X130739505Y-78573187D01*
X130815270Y-78520136D01*
X130815273Y-78520134D01*
X130819781Y-78516977D01*
X130976977Y-78359781D01*
X131104488Y-78177676D01*
X131106811Y-78172694D01*
X131106814Y-78172689D01*
X131196117Y-77981178D01*
X131196118Y-77981177D01*
X131198440Y-77976196D01*
X131255978Y-77761463D01*
X131275353Y-77540000D01*
X131255978Y-77318537D01*
X131198440Y-77103804D01*
X131196117Y-77098822D01*
X131106814Y-76907311D01*
X131106811Y-76907306D01*
X131104488Y-76902324D01*
X130976977Y-76720219D01*
X130819781Y-76563023D01*
X130815273Y-76559866D01*
X130815270Y-76559864D01*
X130739505Y-76506813D01*
X130637677Y-76435512D01*
X130632695Y-76433189D01*
X130632690Y-76433186D01*
X130527627Y-76384195D01*
X130474342Y-76337278D01*
X130454881Y-76269001D01*
X130475423Y-76201041D01*
X130527627Y-76155805D01*
X130632690Y-76106814D01*
X130632695Y-76106811D01*
X130637677Y-76104488D01*
X130739505Y-76033187D01*
X130815270Y-75980136D01*
X130815273Y-75980134D01*
X130819781Y-75976977D01*
X130976977Y-75819781D01*
X131104488Y-75637676D01*
X131106811Y-75632694D01*
X131106814Y-75632689D01*
X131196117Y-75441178D01*
X131196118Y-75441177D01*
X131198440Y-75436196D01*
X131255978Y-75221463D01*
X131275353Y-75000000D01*
X131255978Y-74778537D01*
X131198440Y-74563804D01*
X131196117Y-74558822D01*
X131106814Y-74367311D01*
X131106811Y-74367306D01*
X131104488Y-74362324D01*
X130976977Y-74180219D01*
X130819781Y-74023023D01*
X130815273Y-74019866D01*
X130815270Y-74019864D01*
X130739505Y-73966813D01*
X130637677Y-73895512D01*
X130632695Y-73893189D01*
X130632690Y-73893186D01*
X130441178Y-73803883D01*
X130441177Y-73803882D01*
X130436196Y-73801560D01*
X130430888Y-73800138D01*
X130430886Y-73800137D01*
X130365051Y-73782497D01*
X130221463Y-73744022D01*
X130000000Y-73724647D01*
X129778537Y-73744022D01*
X129634949Y-73782497D01*
X129569114Y-73800137D01*
X129569112Y-73800138D01*
X129563804Y-73801560D01*
X129558823Y-73803882D01*
X129558822Y-73803883D01*
X129367311Y-73893186D01*
X129367306Y-73893189D01*
X129362324Y-73895512D01*
X129357817Y-73898668D01*
X129357815Y-73898669D01*
X129184730Y-74019864D01*
X129184727Y-74019866D01*
X129180219Y-74023023D01*
X129023023Y-74180219D01*
X128895512Y-74362324D01*
X128893189Y-74367306D01*
X128893186Y-74367311D01*
X128803883Y-74558822D01*
X128801560Y-74563804D01*
X128744022Y-74778537D01*
X128724647Y-75000000D01*
X128744022Y-75221463D01*
X128801560Y-75436196D01*
X128803882Y-75441177D01*
X128803883Y-75441178D01*
X128893186Y-75632689D01*
X128893189Y-75632694D01*
X128895512Y-75637676D01*
X129023023Y-75819781D01*
X129180219Y-75976977D01*
X129184727Y-75980134D01*
X129184730Y-75980136D01*
X129260495Y-76033187D01*
X129362323Y-76104488D01*
X129367305Y-76106811D01*
X129367310Y-76106814D01*
X129472373Y-76155805D01*
X129525658Y-76202722D01*
X129545119Y-76270999D01*
X129524577Y-76338959D01*
X129472373Y-76384195D01*
X129367311Y-76433186D01*
X129367306Y-76433189D01*
X129362324Y-76435512D01*
X129357817Y-76438668D01*
X129357815Y-76438669D01*
X129184730Y-76559864D01*
X129184727Y-76559866D01*
X129180219Y-76563023D01*
X129023023Y-76720219D01*
X128895512Y-76902324D01*
X128893189Y-76907306D01*
X128893186Y-76907311D01*
X128803883Y-77098822D01*
X128801560Y-77103804D01*
X128744022Y-77318537D01*
X128724647Y-77540000D01*
X128744022Y-77761463D01*
X128801560Y-77976196D01*
X128803882Y-77981177D01*
X128803883Y-77981178D01*
X128893186Y-78172689D01*
X128893189Y-78172694D01*
X128895512Y-78177676D01*
X129023023Y-78359781D01*
X129180219Y-78516977D01*
X129184727Y-78520134D01*
X129184730Y-78520136D01*
X129260495Y-78573187D01*
X129362323Y-78644488D01*
X129367305Y-78646811D01*
X129367310Y-78646814D01*
X129472373Y-78695805D01*
X129525658Y-78742722D01*
X129545119Y-78810999D01*
X129524577Y-78878959D01*
X129472373Y-78924195D01*
X129367311Y-78973186D01*
X129367306Y-78973189D01*
X129362324Y-78975512D01*
X129357817Y-78978668D01*
X129357815Y-78978669D01*
X129184730Y-79099864D01*
X129184727Y-79099866D01*
X129180219Y-79103023D01*
X129023023Y-79260219D01*
X128895512Y-79442324D01*
X128893189Y-79447306D01*
X128893186Y-79447311D01*
X128803883Y-79638822D01*
X128801560Y-79643804D01*
X128744022Y-79858537D01*
X128724647Y-80080000D01*
X128744022Y-80301463D01*
X128801560Y-80516196D01*
X128803882Y-80521177D01*
X128803883Y-80521178D01*
X128893186Y-80712689D01*
X128893189Y-80712694D01*
X128895512Y-80717676D01*
X129023023Y-80899781D01*
X129180219Y-81056977D01*
X129184727Y-81060134D01*
X129184730Y-81060136D01*
X129260495Y-81113187D01*
X129362323Y-81184488D01*
X129367305Y-81186811D01*
X129367310Y-81186814D01*
X129472373Y-81235805D01*
X129525658Y-81282722D01*
X129545119Y-81350999D01*
X129524577Y-81418959D01*
X129472373Y-81464195D01*
X129367311Y-81513186D01*
X129367306Y-81513189D01*
X129362324Y-81515512D01*
X129357817Y-81518668D01*
X129357815Y-81518669D01*
X129184730Y-81639864D01*
X129184727Y-81639866D01*
X129180219Y-81643023D01*
X129023023Y-81800219D01*
X129019866Y-81804727D01*
X129019864Y-81804730D01*
X128984195Y-81855671D01*
X128895512Y-81982324D01*
X128893189Y-81987306D01*
X128893186Y-81987311D01*
X128803883Y-82178822D01*
X128801560Y-82183804D01*
X128744022Y-82398537D01*
X128724647Y-82620000D01*
X128744022Y-82841463D01*
X128801560Y-83056196D01*
X128803882Y-83061177D01*
X128803883Y-83061178D01*
X128893186Y-83252689D01*
X128893189Y-83252694D01*
X128895512Y-83257676D01*
X128898668Y-83262183D01*
X128898669Y-83262185D01*
X129019861Y-83435265D01*
X129023023Y-83439781D01*
X129180219Y-83596977D01*
X129184727Y-83600134D01*
X129184730Y-83600136D01*
X129260495Y-83653187D01*
X129362323Y-83724488D01*
X129367305Y-83726811D01*
X129367310Y-83726814D01*
X129558822Y-83816117D01*
X129563804Y-83818440D01*
X129569112Y-83819862D01*
X129569114Y-83819863D01*
X129634949Y-83837503D01*
X129778537Y-83875978D01*
X130000000Y-83895353D01*
X130221463Y-83875978D01*
X130365051Y-83837503D01*
X130430886Y-83819863D01*
X130430888Y-83819862D01*
X130436196Y-83818440D01*
X130441178Y-83816117D01*
X130632690Y-83726814D01*
X130632695Y-83726811D01*
X130637677Y-83724488D01*
X130739505Y-83653187D01*
X130815270Y-83600136D01*
X130815273Y-83600134D01*
X130819781Y-83596977D01*
X130976977Y-83439781D01*
X130980136Y-83435270D01*
X130980140Y-83435265D01*
X131017275Y-83382230D01*
X131072732Y-83337901D01*
X131120488Y-83328500D01*
X135951088Y-83328500D01*
X135959658Y-83328792D01*
X136009776Y-83332209D01*
X136009780Y-83332209D01*
X136017352Y-83332725D01*
X136024829Y-83331420D01*
X136024830Y-83331420D01*
X136051308Y-83326799D01*
X136080303Y-83321738D01*
X136086821Y-83320777D01*
X136150242Y-83313102D01*
X136157343Y-83310419D01*
X136159952Y-83309778D01*
X136176262Y-83305315D01*
X136178798Y-83304550D01*
X136186284Y-83303243D01*
X136244800Y-83277556D01*
X136250904Y-83275065D01*
X136303548Y-83255173D01*
X136303549Y-83255172D01*
X136310656Y-83252487D01*
X136316919Y-83248183D01*
X136319285Y-83246946D01*
X136334097Y-83238701D01*
X136336351Y-83237368D01*
X136343305Y-83234315D01*
X136394002Y-83195413D01*
X136399332Y-83191541D01*
X136445720Y-83159661D01*
X136445725Y-83159656D01*
X136451981Y-83155357D01*
X136493436Y-83108829D01*
X136498416Y-83103554D01*
X137826405Y-81775565D01*
X137888717Y-81741539D01*
X137959532Y-81746604D01*
X138016368Y-81789151D01*
X138041179Y-81855671D01*
X138041500Y-81864660D01*
X138041500Y-101365500D01*
X138021498Y-101433621D01*
X137967842Y-101480114D01*
X137915500Y-101491500D01*
X133738977Y-101491500D01*
X133730408Y-101491208D01*
X133680275Y-101487790D01*
X133680271Y-101487790D01*
X133672698Y-101487274D01*
X133609731Y-101498264D01*
X133603219Y-101499224D01*
X133539808Y-101506898D01*
X133532707Y-101509581D01*
X133530098Y-101510222D01*
X133513778Y-101514687D01*
X133511245Y-101515452D01*
X133503767Y-101516757D01*
X133445240Y-101542448D01*
X133439158Y-101544930D01*
X133418803Y-101552622D01*
X133386499Y-101564828D01*
X133386497Y-101564829D01*
X133379394Y-101567513D01*
X133373135Y-101571814D01*
X133370770Y-101573051D01*
X133355998Y-101581273D01*
X133353706Y-101582628D01*
X133346745Y-101585684D01*
X133340718Y-101590309D01*
X133340714Y-101590311D01*
X133296037Y-101624593D01*
X133290712Y-101628462D01*
X133238069Y-101664643D01*
X133233017Y-101670313D01*
X133233016Y-101670314D01*
X133196623Y-101711161D01*
X133191642Y-101716437D01*
X126449480Y-108458600D01*
X126443215Y-108464454D01*
X126399615Y-108502489D01*
X126395248Y-108508703D01*
X126362872Y-108554769D01*
X126358939Y-108560064D01*
X126319524Y-108610332D01*
X126316401Y-108617248D01*
X126315017Y-108619534D01*
X126306643Y-108634215D01*
X126305378Y-108636575D01*
X126301010Y-108642789D01*
X126298250Y-108649868D01*
X126298249Y-108649870D01*
X126277798Y-108702325D01*
X126275247Y-108708394D01*
X126248955Y-108766623D01*
X126247571Y-108774090D01*
X126246770Y-108776645D01*
X126242141Y-108792898D01*
X126241478Y-108795478D01*
X126238718Y-108802559D01*
X126237727Y-108810090D01*
X126237726Y-108810092D01*
X126230379Y-108865902D01*
X126229348Y-108872409D01*
X126217704Y-108935236D01*
X126218141Y-108942816D01*
X126218141Y-108942817D01*
X126221291Y-108997442D01*
X126221500Y-109004696D01*
X126221500Y-117224338D01*
X126201498Y-117292459D01*
X126184596Y-117313433D01*
X125673435Y-117824595D01*
X125611122Y-117858620D01*
X125584339Y-117861500D01*
X123608286Y-117861500D01*
X123540165Y-117841498D01*
X123502494Y-117803941D01*
X123460014Y-117738277D01*
X123309670Y-117573051D01*
X123305619Y-117569852D01*
X123305615Y-117569848D01*
X123138414Y-117437800D01*
X123138410Y-117437798D01*
X123134359Y-117434598D01*
X123093053Y-117411796D01*
X123043084Y-117361364D01*
X123028312Y-117291921D01*
X123053428Y-117225516D01*
X123080780Y-117198909D01*
X123124603Y-117167650D01*
X123259860Y-117071173D01*
X123418096Y-116913489D01*
X123477594Y-116830689D01*
X123545435Y-116736277D01*
X123548453Y-116732077D01*
X123561949Y-116704771D01*
X123645136Y-116536453D01*
X123645137Y-116536451D01*
X123647430Y-116531811D01*
X123712370Y-116318069D01*
X123741529Y-116096590D01*
X123743156Y-116030000D01*
X123724852Y-115807361D01*
X123670431Y-115590702D01*
X123581354Y-115385840D01*
X123472589Y-115217715D01*
X123462822Y-115202617D01*
X123462820Y-115202614D01*
X123460014Y-115198277D01*
X123309670Y-115033051D01*
X123305619Y-115029852D01*
X123305615Y-115029848D01*
X123138414Y-114897800D01*
X123138410Y-114897798D01*
X123134359Y-114894598D01*
X123093053Y-114871796D01*
X123043084Y-114821364D01*
X123028312Y-114751921D01*
X123053428Y-114685516D01*
X123080780Y-114658909D01*
X123124603Y-114627650D01*
X123259860Y-114531173D01*
X123418096Y-114373489D01*
X123477594Y-114290689D01*
X123545435Y-114196277D01*
X123548453Y-114192077D01*
X123589942Y-114108131D01*
X123645136Y-113996453D01*
X123645137Y-113996451D01*
X123647430Y-113991811D01*
X123712370Y-113778069D01*
X123741529Y-113556590D01*
X123743156Y-113490000D01*
X123724852Y-113267361D01*
X123670431Y-113050702D01*
X123581354Y-112845840D01*
X123460014Y-112658277D01*
X123309670Y-112493051D01*
X123305619Y-112489852D01*
X123305615Y-112489848D01*
X123138414Y-112357800D01*
X123138410Y-112357798D01*
X123134359Y-112354598D01*
X123093053Y-112331796D01*
X123043084Y-112281364D01*
X123028312Y-112211921D01*
X123053428Y-112145516D01*
X123080780Y-112118909D01*
X123124603Y-112087650D01*
X123259860Y-111991173D01*
X123418096Y-111833489D01*
X123445589Y-111795229D01*
X123545435Y-111656277D01*
X123548453Y-111652077D01*
X123575820Y-111596705D01*
X123645136Y-111456453D01*
X123645137Y-111456451D01*
X123647430Y-111451811D01*
X123712370Y-111238069D01*
X123741529Y-111016590D01*
X123743156Y-110950000D01*
X123724852Y-110727361D01*
X123670431Y-110510702D01*
X123581354Y-110305840D01*
X123460014Y-110118277D01*
X123309670Y-109953051D01*
X123305619Y-109949852D01*
X123305615Y-109949848D01*
X123138414Y-109817800D01*
X123138410Y-109817798D01*
X123134359Y-109814598D01*
X123093053Y-109791796D01*
X123043084Y-109741364D01*
X123028312Y-109671921D01*
X123053428Y-109605516D01*
X123080780Y-109578909D01*
X123142682Y-109534755D01*
X123259860Y-109451173D01*
X123418096Y-109293489D01*
X123422947Y-109286739D01*
X123545435Y-109116277D01*
X123548453Y-109112077D01*
X123647430Y-108911811D01*
X123712370Y-108698069D01*
X123741529Y-108476590D01*
X123743156Y-108410000D01*
X123724852Y-108187361D01*
X123670431Y-107970702D01*
X123581354Y-107765840D01*
X123507404Y-107651531D01*
X123462822Y-107582617D01*
X123462820Y-107582614D01*
X123460014Y-107578277D01*
X123456532Y-107574450D01*
X123312798Y-107416488D01*
X123281746Y-107352642D01*
X123290141Y-107282143D01*
X123335317Y-107227375D01*
X123361761Y-107213706D01*
X123468297Y-107173767D01*
X123476705Y-107170615D01*
X123593261Y-107083261D01*
X123680615Y-106966705D01*
X123731745Y-106830316D01*
X123738500Y-106768134D01*
X123738500Y-104971866D01*
X123731745Y-104909684D01*
X123680615Y-104773295D01*
X123593261Y-104656739D01*
X123476705Y-104569385D01*
X123340316Y-104518255D01*
X123278134Y-104511500D01*
X121481866Y-104511500D01*
X121419684Y-104518255D01*
X121283295Y-104569385D01*
X121166739Y-104656739D01*
X121079385Y-104773295D01*
X121028255Y-104909684D01*
X121021500Y-104971866D01*
X121021500Y-106768134D01*
X121028255Y-106830316D01*
X121079385Y-106966705D01*
X121166739Y-107083261D01*
X121283295Y-107170615D01*
X121291704Y-107173767D01*
X121291705Y-107173768D01*
X121400451Y-107214535D01*
X121457216Y-107257176D01*
X121481916Y-107323738D01*
X121466709Y-107393087D01*
X121447316Y-107419568D01*
X121320629Y-107552138D01*
X121194743Y-107736680D01*
X121100688Y-107939305D01*
X121040989Y-108154570D01*
X121017251Y-108376695D01*
X121017548Y-108381848D01*
X121017548Y-108381851D01*
X121023011Y-108476590D01*
X121030110Y-108599715D01*
X121031247Y-108604761D01*
X121031248Y-108604767D01*
X121037885Y-108634215D01*
X121079222Y-108817639D01*
X121163266Y-109024616D01*
X121165965Y-109029020D01*
X121273665Y-109204771D01*
X121279987Y-109215088D01*
X121426250Y-109383938D01*
X121598126Y-109526632D01*
X121604549Y-109530385D01*
X121671445Y-109569476D01*
X121720169Y-109621114D01*
X121733240Y-109690897D01*
X121706509Y-109756669D01*
X121666055Y-109790027D01*
X121653607Y-109796507D01*
X121649474Y-109799610D01*
X121649471Y-109799612D01*
X121479100Y-109927530D01*
X121474965Y-109930635D01*
X121409346Y-109999301D01*
X121324300Y-110088297D01*
X121320629Y-110092138D01*
X121317715Y-110096410D01*
X121317714Y-110096411D01*
X121234334Y-110218642D01*
X121194743Y-110276680D01*
X121100688Y-110479305D01*
X121040989Y-110694570D01*
X121017251Y-110916695D01*
X121017548Y-110921848D01*
X121017548Y-110921851D01*
X121023011Y-111016590D01*
X121030110Y-111139715D01*
X121031247Y-111144761D01*
X121031248Y-111144767D01*
X121051119Y-111232939D01*
X121079222Y-111357639D01*
X121163266Y-111564616D01*
X121165965Y-111569020D01*
X121249956Y-111706081D01*
X121279987Y-111755088D01*
X121426250Y-111923938D01*
X121598126Y-112066632D01*
X121668595Y-112107811D01*
X121671445Y-112109476D01*
X121720169Y-112161114D01*
X121733240Y-112230897D01*
X121706509Y-112296669D01*
X121666055Y-112330027D01*
X121653607Y-112336507D01*
X121649474Y-112339610D01*
X121649471Y-112339612D01*
X121625247Y-112357800D01*
X121474965Y-112470635D01*
X121320629Y-112632138D01*
X121194743Y-112816680D01*
X121179003Y-112850590D01*
X121130644Y-112954771D01*
X121100688Y-113019305D01*
X121040989Y-113234570D01*
X121017251Y-113456695D01*
X121017548Y-113461848D01*
X121017548Y-113461851D01*
X121023011Y-113556590D01*
X121030110Y-113679715D01*
X121031247Y-113684761D01*
X121031248Y-113684767D01*
X121051119Y-113772939D01*
X121079222Y-113897639D01*
X121163266Y-114104616D01*
X121279987Y-114295088D01*
X121426250Y-114463938D01*
X121598126Y-114606632D01*
X121668595Y-114647811D01*
X121671445Y-114649476D01*
X121720169Y-114701114D01*
X121733240Y-114770897D01*
X121706509Y-114836669D01*
X121666055Y-114870027D01*
X121653607Y-114876507D01*
X121649474Y-114879610D01*
X121649471Y-114879612D01*
X121625247Y-114897800D01*
X121474965Y-115010635D01*
X121471393Y-115014373D01*
X121340322Y-115151531D01*
X121320629Y-115172138D01*
X121317715Y-115176410D01*
X121317714Y-115176411D01*
X121237556Y-115293919D01*
X121194743Y-115356680D01*
X121179003Y-115390590D01*
X121103259Y-115553767D01*
X121100688Y-115559305D01*
X121040989Y-115774570D01*
X121017251Y-115996695D01*
X121017548Y-116001848D01*
X121017548Y-116001851D01*
X121023011Y-116096590D01*
X121030110Y-116219715D01*
X121031247Y-116224761D01*
X121031248Y-116224767D01*
X121051119Y-116312939D01*
X121079222Y-116437639D01*
X121163266Y-116644616D01*
X121165965Y-116649020D01*
X121254759Y-116793919D01*
X121279987Y-116835088D01*
X121426250Y-117003938D01*
X121598126Y-117146632D01*
X121668595Y-117187811D01*
X121671445Y-117189476D01*
X121720169Y-117241114D01*
X121733240Y-117310897D01*
X121706509Y-117376669D01*
X121666055Y-117410027D01*
X121653607Y-117416507D01*
X121649474Y-117419610D01*
X121649471Y-117419612D01*
X121585404Y-117467715D01*
X121474965Y-117550635D01*
X121320629Y-117712138D01*
X121194743Y-117896680D01*
X121100688Y-118099305D01*
X121040989Y-118314570D01*
X121017251Y-118536695D01*
X121017548Y-118541848D01*
X121017548Y-118541851D01*
X121022953Y-118635596D01*
X121030110Y-118759715D01*
X121031247Y-118764761D01*
X121031248Y-118764767D01*
X121051119Y-118852939D01*
X121079222Y-118977639D01*
X121163266Y-119184616D01*
X121165965Y-119189020D01*
X121267851Y-119355283D01*
X121279987Y-119375088D01*
X121426250Y-119543938D01*
X121598126Y-119686632D01*
X121668595Y-119727811D01*
X121671445Y-119729476D01*
X121720169Y-119781114D01*
X121733240Y-119850897D01*
X121706509Y-119916669D01*
X121666055Y-119950027D01*
X121653607Y-119956507D01*
X121649474Y-119959610D01*
X121649471Y-119959612D01*
X121625247Y-119977800D01*
X121474965Y-120090635D01*
X121320629Y-120252138D01*
X121194743Y-120436680D01*
X121159919Y-120511703D01*
X121103947Y-120632285D01*
X121100688Y-120639305D01*
X121040989Y-120854570D01*
X121017251Y-121076695D01*
X121017548Y-121081848D01*
X121017548Y-121081851D01*
X121023011Y-121176590D01*
X121030110Y-121299715D01*
X121031247Y-121304761D01*
X121031248Y-121304767D01*
X121042319Y-121353891D01*
X121079222Y-121517639D01*
X121115967Y-121608131D01*
X121146535Y-121683411D01*
X121163266Y-121724616D01*
X121279987Y-121915088D01*
X121426250Y-122083938D01*
X121598126Y-122226632D01*
X121668595Y-122267811D01*
X121671445Y-122269476D01*
X121720169Y-122321114D01*
X121733240Y-122390897D01*
X121706509Y-122456669D01*
X121666055Y-122490027D01*
X121653607Y-122496507D01*
X121649474Y-122499610D01*
X121649471Y-122499612D01*
X121479100Y-122627530D01*
X121474965Y-122630635D01*
X121471393Y-122634373D01*
X121330931Y-122781358D01*
X121320629Y-122792138D01*
X121194743Y-122976680D01*
X121100688Y-123179305D01*
X121040989Y-123394570D01*
X121017251Y-123616695D01*
X121017548Y-123621848D01*
X121017548Y-123621851D01*
X121023011Y-123716590D01*
X121030110Y-123839715D01*
X121031247Y-123844761D01*
X121031248Y-123844767D01*
X121043928Y-123901029D01*
X121079222Y-124057639D01*
X121163266Y-124264616D01*
X121279987Y-124455088D01*
X121426250Y-124623938D01*
X121598126Y-124766632D01*
X121668595Y-124807811D01*
X121671445Y-124809476D01*
X121720169Y-124861114D01*
X121733240Y-124930897D01*
X121706509Y-124996669D01*
X121666055Y-125030027D01*
X121653607Y-125036507D01*
X121649474Y-125039610D01*
X121649471Y-125039612D01*
X121479100Y-125167530D01*
X121474965Y-125170635D01*
X121320629Y-125332138D01*
X121194743Y-125516680D01*
X121100688Y-125719305D01*
X121040989Y-125934570D01*
X121017251Y-126156695D01*
X121017548Y-126161848D01*
X121017548Y-126161851D01*
X121023011Y-126256590D01*
X121030110Y-126379715D01*
X121031247Y-126384761D01*
X121031248Y-126384767D01*
X121045811Y-126449385D01*
X121079222Y-126597639D01*
X121163266Y-126804616D01*
X121279987Y-126995088D01*
X121426250Y-127163938D01*
X121598126Y-127306632D01*
X121668595Y-127347811D01*
X121671445Y-127349476D01*
X121720169Y-127401114D01*
X121733240Y-127470897D01*
X121706509Y-127536669D01*
X121666055Y-127570027D01*
X121653607Y-127576507D01*
X121649474Y-127579610D01*
X121649471Y-127579612D01*
X121482775Y-127704771D01*
X121474965Y-127710635D01*
X121320629Y-127872138D01*
X121317715Y-127876410D01*
X121317714Y-127876411D01*
X121232555Y-128001249D01*
X121194743Y-128056680D01*
X121100688Y-128259305D01*
X121040989Y-128474570D01*
X121017251Y-128696695D01*
X121017548Y-128701848D01*
X121017548Y-128701851D01*
X121025900Y-128846705D01*
X121030110Y-128919715D01*
X121031247Y-128924761D01*
X121031248Y-128924767D01*
X121041136Y-128968642D01*
X121079222Y-129137639D01*
X121163266Y-129344616D01*
X121279987Y-129535088D01*
X121426250Y-129703938D01*
X121598126Y-129846632D01*
X121668595Y-129887811D01*
X121671445Y-129889476D01*
X121720169Y-129941114D01*
X121733240Y-130010897D01*
X121706509Y-130076669D01*
X121666055Y-130110027D01*
X121653607Y-130116507D01*
X121649474Y-130119610D01*
X121649471Y-130119612D01*
X121479100Y-130247530D01*
X121474965Y-130250635D01*
X121471393Y-130254373D01*
X121329080Y-130403295D01*
X121320629Y-130412138D01*
X121194743Y-130596680D01*
X121100688Y-130799305D01*
X121040989Y-131014570D01*
X121017251Y-131236695D01*
X121017548Y-131241848D01*
X121017548Y-131241851D01*
X121023011Y-131336590D01*
X121030110Y-131459715D01*
X121031247Y-131464761D01*
X121031248Y-131464767D01*
X121047468Y-131536739D01*
X121079222Y-131677639D01*
X121163266Y-131884616D01*
X121279987Y-132075088D01*
X121426250Y-132243938D01*
X121598126Y-132386632D01*
X121623623Y-132401531D01*
X121671445Y-132429476D01*
X121720169Y-132481114D01*
X121733240Y-132550897D01*
X121706509Y-132616669D01*
X121666055Y-132650027D01*
X121653607Y-132656507D01*
X121649474Y-132659610D01*
X121649471Y-132659612D01*
X121479100Y-132787530D01*
X121474965Y-132790635D01*
X121320629Y-132952138D01*
X121194743Y-133136680D01*
X121100688Y-133339305D01*
X121040989Y-133554570D01*
X121017251Y-133776695D01*
X121017548Y-133781848D01*
X121017548Y-133781851D01*
X121023011Y-133876590D01*
X121030110Y-133999715D01*
X121031247Y-134004761D01*
X121031248Y-134004767D01*
X121040072Y-134043919D01*
X121079222Y-134217639D01*
X121163266Y-134424616D01*
X121279987Y-134615088D01*
X121426250Y-134783938D01*
X121598126Y-134926632D01*
X121668595Y-134967811D01*
X121671445Y-134969476D01*
X121720169Y-135021114D01*
X121733240Y-135090897D01*
X121706509Y-135156669D01*
X121666055Y-135190027D01*
X121653607Y-135196507D01*
X121649474Y-135199610D01*
X121649471Y-135199612D01*
X121533429Y-135286739D01*
X121474965Y-135330635D01*
X121320629Y-135492138D01*
X121317715Y-135496410D01*
X121317714Y-135496411D01*
X121288195Y-135539684D01*
X121194743Y-135676680D01*
X121100688Y-135879305D01*
X121040989Y-136094570D01*
X121017251Y-136316695D01*
X121017548Y-136321848D01*
X121017548Y-136321851D01*
X121023011Y-136416590D01*
X121030110Y-136539715D01*
X121031247Y-136544761D01*
X121031248Y-136544767D01*
X121051119Y-136632939D01*
X121079222Y-136757639D01*
X121163266Y-136964616D01*
X121279987Y-137155088D01*
X121426250Y-137323938D01*
X121598126Y-137466632D01*
X121668595Y-137507811D01*
X121671445Y-137509476D01*
X121720169Y-137561114D01*
X121733240Y-137630897D01*
X121706509Y-137696669D01*
X121666055Y-137730027D01*
X121653607Y-137736507D01*
X121649474Y-137739610D01*
X121649471Y-137739612D01*
X121491127Y-137858500D01*
X121474965Y-137870635D01*
X121320629Y-138032138D01*
X121194743Y-138216680D01*
X121100688Y-138419305D01*
X121040989Y-138634570D01*
X121017251Y-138856695D01*
X121017548Y-138861848D01*
X121017548Y-138861851D01*
X121022906Y-138954771D01*
X121030110Y-139079715D01*
X121031247Y-139084761D01*
X121031248Y-139084767D01*
X121045073Y-139146109D01*
X121079222Y-139297639D01*
X121163266Y-139504616D01*
X121279987Y-139695088D01*
X121426250Y-139863938D01*
X121598126Y-140006632D01*
X121668595Y-140047811D01*
X121671445Y-140049476D01*
X121720169Y-140101114D01*
X121733240Y-140170897D01*
X121706509Y-140236669D01*
X121666055Y-140270027D01*
X121653607Y-140276507D01*
X121649474Y-140279610D01*
X121649471Y-140279612D01*
X121544402Y-140358500D01*
X121474965Y-140410635D01*
X121320629Y-140572138D01*
X121194743Y-140756680D01*
X121100688Y-140959305D01*
X121040989Y-141174570D01*
X121017251Y-141396695D01*
X121017548Y-141401848D01*
X121017548Y-141401851D01*
X121028914Y-141598971D01*
X121030110Y-141619715D01*
X121031247Y-141624761D01*
X121031248Y-141624767D01*
X121051119Y-141712939D01*
X121079222Y-141837639D01*
X121163266Y-142044616D01*
X121279987Y-142235088D01*
X121426250Y-142403938D01*
X121598126Y-142546632D01*
X121668595Y-142587811D01*
X121671445Y-142589476D01*
X121720169Y-142641114D01*
X121733240Y-142710897D01*
X121706509Y-142776669D01*
X121666055Y-142810027D01*
X121653607Y-142816507D01*
X121649474Y-142819610D01*
X121649471Y-142819612D01*
X121479100Y-142947530D01*
X121474965Y-142950635D01*
X121320629Y-143112138D01*
X121194743Y-143296680D01*
X121100688Y-143499305D01*
X121040989Y-143714570D01*
X121017251Y-143936695D01*
X121017548Y-143941848D01*
X121017548Y-143941851D01*
X121026817Y-144102598D01*
X121030110Y-144159715D01*
X121031247Y-144164761D01*
X121031248Y-144164767D01*
X121051119Y-144252939D01*
X121079222Y-144377639D01*
X121163266Y-144584616D01*
X121279987Y-144775088D01*
X121426250Y-144943938D01*
X121598126Y-145086632D01*
X121668595Y-145127811D01*
X121671445Y-145129476D01*
X121720169Y-145181114D01*
X121733240Y-145250897D01*
X121706509Y-145316669D01*
X121666055Y-145350027D01*
X121653607Y-145356507D01*
X121649474Y-145359610D01*
X121649471Y-145359612D01*
X121479100Y-145487530D01*
X121474965Y-145490635D01*
X121320629Y-145652138D01*
X121194743Y-145836680D01*
X121100688Y-146039305D01*
X121040989Y-146254570D01*
X121017251Y-146476695D01*
X121017548Y-146481848D01*
X121017548Y-146481851D01*
X121023011Y-146576590D01*
X121030110Y-146699715D01*
X121031247Y-146704761D01*
X121031248Y-146704767D01*
X121051119Y-146792939D01*
X121079222Y-146917639D01*
X121163266Y-147124616D01*
X121279987Y-147315088D01*
X121426250Y-147483938D01*
X121598126Y-147626632D01*
X121668595Y-147667811D01*
X121671445Y-147669476D01*
X121720169Y-147721114D01*
X121733240Y-147790897D01*
X121706509Y-147856669D01*
X121666055Y-147890027D01*
X121653607Y-147896507D01*
X121649474Y-147899610D01*
X121649471Y-147899612D01*
X121625247Y-147917800D01*
X121474965Y-148030635D01*
X121320629Y-148192138D01*
X121194743Y-148376680D01*
X121100688Y-148579305D01*
X121040989Y-148794570D01*
X121017251Y-149016695D01*
X121017548Y-149021848D01*
X121017548Y-149021851D01*
X121023011Y-149116590D01*
X121030110Y-149239715D01*
X121031247Y-149244761D01*
X121031248Y-149244767D01*
X121051119Y-149332939D01*
X121079222Y-149457639D01*
X121163266Y-149664616D01*
X121165965Y-149669020D01*
X121265475Y-149831406D01*
X121279987Y-149855088D01*
X121426250Y-150023938D01*
X121598126Y-150166632D01*
X121668595Y-150207811D01*
X121671445Y-150209476D01*
X121720169Y-150261114D01*
X121733240Y-150330897D01*
X121706509Y-150396669D01*
X121666055Y-150430027D01*
X121653607Y-150436507D01*
X121649474Y-150439610D01*
X121649471Y-150439612D01*
X121549374Y-150514767D01*
X121474965Y-150570635D01*
X121471393Y-150574373D01*
X121329748Y-150722596D01*
X121320629Y-150732138D01*
X121194743Y-150916680D01*
X121100688Y-151119305D01*
X121040989Y-151334570D01*
X121017251Y-151556695D01*
X121017548Y-151561848D01*
X121017548Y-151561851D01*
X121024424Y-151681097D01*
X121030110Y-151779715D01*
X121031247Y-151784761D01*
X121031248Y-151784767D01*
X121051119Y-151872939D01*
X121079222Y-151997639D01*
X121163266Y-152204616D01*
X121279987Y-152395088D01*
X121426250Y-152563938D01*
X121598126Y-152706632D01*
X121668595Y-152747811D01*
X121671445Y-152749476D01*
X121720169Y-152801114D01*
X121733240Y-152870897D01*
X121706509Y-152936669D01*
X121666055Y-152970027D01*
X121653607Y-152976507D01*
X121649474Y-152979610D01*
X121649471Y-152979612D01*
X121625247Y-152997800D01*
X121474965Y-153110635D01*
X121320629Y-153272138D01*
X121194743Y-153456680D01*
X121100688Y-153659305D01*
X121040989Y-153874570D01*
X121017251Y-154096695D01*
X107000000Y-154096695D01*
X107000000Y-144898134D01*
X111141500Y-144898134D01*
X111148255Y-144960316D01*
X111199385Y-145096705D01*
X111286739Y-145213261D01*
X111403295Y-145300615D01*
X111539684Y-145351745D01*
X111601866Y-145358500D01*
X113398134Y-145358500D01*
X113460316Y-145351745D01*
X113596705Y-145300615D01*
X113713261Y-145213261D01*
X113800615Y-145096705D01*
X113851745Y-144960316D01*
X113858500Y-144898134D01*
X113858500Y-143101866D01*
X113851745Y-143039684D01*
X113800615Y-142903295D01*
X113713261Y-142786739D01*
X113596705Y-142699385D01*
X113460316Y-142648255D01*
X113398134Y-142641500D01*
X111601866Y-142641500D01*
X111539684Y-142648255D01*
X111403295Y-142699385D01*
X111286739Y-142786739D01*
X111199385Y-142903295D01*
X111148255Y-143039684D01*
X111141500Y-143101866D01*
X111141500Y-144898134D01*
X107000000Y-144898134D01*
X107000000Y-141148134D01*
X111141500Y-141148134D01*
X111148255Y-141210316D01*
X111199385Y-141346705D01*
X111286739Y-141463261D01*
X111403295Y-141550615D01*
X111539684Y-141601745D01*
X111601866Y-141608500D01*
X113398134Y-141608500D01*
X113460316Y-141601745D01*
X113596705Y-141550615D01*
X113713261Y-141463261D01*
X113800615Y-141346705D01*
X113851745Y-141210316D01*
X113858500Y-141148134D01*
X113858500Y-139351866D01*
X113851745Y-139289684D01*
X113800615Y-139153295D01*
X113713261Y-139036739D01*
X113596705Y-138949385D01*
X113460316Y-138898255D01*
X113398134Y-138891500D01*
X111601866Y-138891500D01*
X111539684Y-138898255D01*
X111403295Y-138949385D01*
X111286739Y-139036739D01*
X111199385Y-139153295D01*
X111148255Y-139289684D01*
X111141500Y-139351866D01*
X111141500Y-141148134D01*
X107000000Y-141148134D01*
X107000000Y-137398134D01*
X111141500Y-137398134D01*
X111148255Y-137460316D01*
X111199385Y-137596705D01*
X111286739Y-137713261D01*
X111403295Y-137800615D01*
X111539684Y-137851745D01*
X111601866Y-137858500D01*
X113398134Y-137858500D01*
X113460316Y-137851745D01*
X113596705Y-137800615D01*
X113713261Y-137713261D01*
X113800615Y-137596705D01*
X113851745Y-137460316D01*
X113858500Y-137398134D01*
X113858500Y-135601866D01*
X113851745Y-135539684D01*
X113800615Y-135403295D01*
X113713261Y-135286739D01*
X113596705Y-135199385D01*
X113460316Y-135148255D01*
X113398134Y-135141500D01*
X111601866Y-135141500D01*
X111539684Y-135148255D01*
X111403295Y-135199385D01*
X111286739Y-135286739D01*
X111199385Y-135403295D01*
X111148255Y-135539684D01*
X111141500Y-135601866D01*
X111141500Y-137398134D01*
X107000000Y-137398134D01*
X107000000Y-133648134D01*
X111141500Y-133648134D01*
X111148255Y-133710316D01*
X111199385Y-133846705D01*
X111286739Y-133963261D01*
X111403295Y-134050615D01*
X111539684Y-134101745D01*
X111601866Y-134108500D01*
X113398134Y-134108500D01*
X113460316Y-134101745D01*
X113596705Y-134050615D01*
X113713261Y-133963261D01*
X113800615Y-133846705D01*
X113851745Y-133710316D01*
X113858500Y-133648134D01*
X113858500Y-131851866D01*
X113851745Y-131789684D01*
X113800615Y-131653295D01*
X113713261Y-131536739D01*
X113596705Y-131449385D01*
X113460316Y-131398255D01*
X113398134Y-131391500D01*
X111601866Y-131391500D01*
X111539684Y-131398255D01*
X111403295Y-131449385D01*
X111286739Y-131536739D01*
X111199385Y-131653295D01*
X111148255Y-131789684D01*
X111141500Y-131851866D01*
X111141500Y-133648134D01*
X107000000Y-133648134D01*
X107000000Y-129898134D01*
X111141500Y-129898134D01*
X111148255Y-129960316D01*
X111199385Y-130096705D01*
X111286739Y-130213261D01*
X111403295Y-130300615D01*
X111539684Y-130351745D01*
X111601866Y-130358500D01*
X113398134Y-130358500D01*
X113460316Y-130351745D01*
X113596705Y-130300615D01*
X113713261Y-130213261D01*
X113800615Y-130096705D01*
X113851745Y-129960316D01*
X113858500Y-129898134D01*
X113858500Y-128101866D01*
X113851745Y-128039684D01*
X113800615Y-127903295D01*
X113713261Y-127786739D01*
X113596705Y-127699385D01*
X113460316Y-127648255D01*
X113398134Y-127641500D01*
X111601866Y-127641500D01*
X111539684Y-127648255D01*
X111403295Y-127699385D01*
X111286739Y-127786739D01*
X111199385Y-127903295D01*
X111148255Y-128039684D01*
X111141500Y-128101866D01*
X111141500Y-129898134D01*
X107000000Y-129898134D01*
X107000000Y-126148134D01*
X111141500Y-126148134D01*
X111148255Y-126210316D01*
X111199385Y-126346705D01*
X111286739Y-126463261D01*
X111403295Y-126550615D01*
X111539684Y-126601745D01*
X111601866Y-126608500D01*
X113398134Y-126608500D01*
X113460316Y-126601745D01*
X113596705Y-126550615D01*
X113713261Y-126463261D01*
X113800615Y-126346705D01*
X113851745Y-126210316D01*
X113858500Y-126148134D01*
X113858500Y-124351866D01*
X113851745Y-124289684D01*
X113800615Y-124153295D01*
X113713261Y-124036739D01*
X113596705Y-123949385D01*
X113460316Y-123898255D01*
X113398134Y-123891500D01*
X111601866Y-123891500D01*
X111539684Y-123898255D01*
X111403295Y-123949385D01*
X111286739Y-124036739D01*
X111199385Y-124153295D01*
X111148255Y-124289684D01*
X111141500Y-124351866D01*
X111141500Y-126148134D01*
X107000000Y-126148134D01*
X107000000Y-122498134D01*
X111141500Y-122498134D01*
X111148255Y-122560316D01*
X111199385Y-122696705D01*
X111286739Y-122813261D01*
X111403295Y-122900615D01*
X111539684Y-122951745D01*
X111601866Y-122958500D01*
X113398134Y-122958500D01*
X113460316Y-122951745D01*
X113596705Y-122900615D01*
X113713261Y-122813261D01*
X113800615Y-122696705D01*
X113851745Y-122560316D01*
X113858500Y-122498134D01*
X113858500Y-120701866D01*
X113851745Y-120639684D01*
X113800615Y-120503295D01*
X113713261Y-120386739D01*
X113596705Y-120299385D01*
X113460316Y-120248255D01*
X113398134Y-120241500D01*
X111601866Y-120241500D01*
X111539684Y-120248255D01*
X111403295Y-120299385D01*
X111286739Y-120386739D01*
X111199385Y-120503295D01*
X111148255Y-120639684D01*
X111141500Y-120701866D01*
X111141500Y-122498134D01*
X107000000Y-122498134D01*
X107000000Y-118898134D01*
X111141500Y-118898134D01*
X111148255Y-118960316D01*
X111199385Y-119096705D01*
X111286739Y-119213261D01*
X111403295Y-119300615D01*
X111539684Y-119351745D01*
X111601866Y-119358500D01*
X113398134Y-119358500D01*
X113460316Y-119351745D01*
X113596705Y-119300615D01*
X113713261Y-119213261D01*
X113800615Y-119096705D01*
X113851745Y-118960316D01*
X113858500Y-118898134D01*
X113858500Y-117101866D01*
X113851745Y-117039684D01*
X113800615Y-116903295D01*
X113713261Y-116786739D01*
X113596705Y-116699385D01*
X113460316Y-116648255D01*
X113398134Y-116641500D01*
X111601866Y-116641500D01*
X111539684Y-116648255D01*
X111403295Y-116699385D01*
X111286739Y-116786739D01*
X111199385Y-116903295D01*
X111148255Y-117039684D01*
X111141500Y-117101866D01*
X111141500Y-118898134D01*
X107000000Y-118898134D01*
X107000000Y-115148134D01*
X111141500Y-115148134D01*
X111148255Y-115210316D01*
X111199385Y-115346705D01*
X111286739Y-115463261D01*
X111403295Y-115550615D01*
X111539684Y-115601745D01*
X111601866Y-115608500D01*
X113398134Y-115608500D01*
X113460316Y-115601745D01*
X113596705Y-115550615D01*
X113713261Y-115463261D01*
X113800615Y-115346705D01*
X113851745Y-115210316D01*
X113858500Y-115148134D01*
X113858500Y-113351866D01*
X113851745Y-113289684D01*
X113800615Y-113153295D01*
X113713261Y-113036739D01*
X113596705Y-112949385D01*
X113460316Y-112898255D01*
X113398134Y-112891500D01*
X111601866Y-112891500D01*
X111539684Y-112898255D01*
X111403295Y-112949385D01*
X111286739Y-113036739D01*
X111199385Y-113153295D01*
X111148255Y-113289684D01*
X111141500Y-113351866D01*
X111141500Y-115148134D01*
X107000000Y-115148134D01*
X107000000Y-111398134D01*
X111141500Y-111398134D01*
X111148255Y-111460316D01*
X111199385Y-111596705D01*
X111286739Y-111713261D01*
X111403295Y-111800615D01*
X111539684Y-111851745D01*
X111601866Y-111858500D01*
X113398134Y-111858500D01*
X113460316Y-111851745D01*
X113596705Y-111800615D01*
X113713261Y-111713261D01*
X113800615Y-111596705D01*
X113851745Y-111460316D01*
X113858500Y-111398134D01*
X113858500Y-109601866D01*
X113851745Y-109539684D01*
X113800615Y-109403295D01*
X113713261Y-109286739D01*
X113596705Y-109199385D01*
X113460316Y-109148255D01*
X113398134Y-109141500D01*
X111601866Y-109141500D01*
X111539684Y-109148255D01*
X111403295Y-109199385D01*
X111286739Y-109286739D01*
X111199385Y-109403295D01*
X111148255Y-109539684D01*
X111141500Y-109601866D01*
X111141500Y-111398134D01*
X107000000Y-111398134D01*
X107000000Y-107648134D01*
X111141500Y-107648134D01*
X111148255Y-107710316D01*
X111199385Y-107846705D01*
X111286739Y-107963261D01*
X111403295Y-108050615D01*
X111539684Y-108101745D01*
X111601866Y-108108500D01*
X113398134Y-108108500D01*
X113460316Y-108101745D01*
X113596705Y-108050615D01*
X113713261Y-107963261D01*
X113800615Y-107846705D01*
X113851745Y-107710316D01*
X113858500Y-107648134D01*
X113858500Y-105851866D01*
X113851745Y-105789684D01*
X113800615Y-105653295D01*
X113713261Y-105536739D01*
X113596705Y-105449385D01*
X113460316Y-105398255D01*
X113398134Y-105391500D01*
X111601866Y-105391500D01*
X111539684Y-105398255D01*
X111403295Y-105449385D01*
X111286739Y-105536739D01*
X111199385Y-105653295D01*
X111148255Y-105789684D01*
X111141500Y-105851866D01*
X111141500Y-107648134D01*
X107000000Y-107648134D01*
X107000000Y-97069721D01*
X109491024Y-97069721D01*
X109493491Y-97078352D01*
X109499150Y-97098153D01*
X109502728Y-97114915D01*
X109506920Y-97144187D01*
X109510634Y-97152355D01*
X109510634Y-97152356D01*
X109517548Y-97167562D01*
X109523996Y-97185086D01*
X109531051Y-97209771D01*
X109535843Y-97217365D01*
X109535844Y-97217368D01*
X109546830Y-97234780D01*
X109554969Y-97249863D01*
X109567208Y-97276782D01*
X109573069Y-97283584D01*
X109583970Y-97296235D01*
X109595073Y-97311239D01*
X109608776Y-97332958D01*
X109615501Y-97338897D01*
X109615504Y-97338901D01*
X109630938Y-97352532D01*
X109642982Y-97364724D01*
X109656427Y-97380327D01*
X109656430Y-97380329D01*
X109662287Y-97387127D01*
X109669816Y-97392007D01*
X109669817Y-97392008D01*
X109683835Y-97401094D01*
X109698709Y-97412385D01*
X109711217Y-97423431D01*
X109717951Y-97429378D01*
X109744711Y-97441942D01*
X109759691Y-97450263D01*
X109776983Y-97461471D01*
X109776988Y-97461473D01*
X109784515Y-97466352D01*
X109793108Y-97468922D01*
X109793113Y-97468924D01*
X109809120Y-97473711D01*
X109826564Y-97480372D01*
X109841676Y-97487467D01*
X109841678Y-97487468D01*
X109849800Y-97491281D01*
X109858667Y-97492662D01*
X109858668Y-97492662D01*
X109861353Y-97493080D01*
X109879017Y-97495830D01*
X109895732Y-97499613D01*
X109915466Y-97505515D01*
X109915472Y-97505516D01*
X109924066Y-97508086D01*
X109933037Y-97508141D01*
X109933038Y-97508141D01*
X109943097Y-97508202D01*
X109958506Y-97508296D01*
X109959289Y-97508329D01*
X109960386Y-97508500D01*
X109991377Y-97508500D01*
X109992147Y-97508502D01*
X110065785Y-97508952D01*
X110065786Y-97508952D01*
X110069721Y-97508976D01*
X110071065Y-97508592D01*
X110072410Y-97508500D01*
X114991377Y-97508500D01*
X114992148Y-97508502D01*
X115069721Y-97508976D01*
X115098152Y-97500850D01*
X115114915Y-97497272D01*
X115115753Y-97497152D01*
X115144187Y-97493080D01*
X115167564Y-97482451D01*
X115185087Y-97476004D01*
X115209771Y-97468949D01*
X115217365Y-97464157D01*
X115217368Y-97464156D01*
X115234780Y-97453170D01*
X115249865Y-97445030D01*
X115276782Y-97432792D01*
X115296235Y-97416030D01*
X115311239Y-97404927D01*
X115332958Y-97391224D01*
X115338897Y-97384499D01*
X115338901Y-97384496D01*
X115352532Y-97369062D01*
X115364724Y-97357018D01*
X115380327Y-97343573D01*
X115380329Y-97343570D01*
X115387127Y-97337713D01*
X115401094Y-97316165D01*
X115412385Y-97301291D01*
X115423431Y-97288783D01*
X115423432Y-97288782D01*
X115429378Y-97282049D01*
X115441943Y-97255287D01*
X115450263Y-97240309D01*
X115461471Y-97223017D01*
X115461473Y-97223012D01*
X115466352Y-97215485D01*
X115468922Y-97206892D01*
X115468924Y-97206887D01*
X115473711Y-97190880D01*
X115480372Y-97173436D01*
X115487467Y-97158324D01*
X115487468Y-97158322D01*
X115491281Y-97150200D01*
X115495830Y-97120983D01*
X115499613Y-97104268D01*
X115505515Y-97084534D01*
X115505516Y-97084528D01*
X115508086Y-97075934D01*
X115508296Y-97041494D01*
X115508329Y-97040711D01*
X115508500Y-97039614D01*
X115508500Y-97008623D01*
X115508502Y-97007853D01*
X115508952Y-96934215D01*
X115508952Y-96934214D01*
X115508976Y-96930279D01*
X115508592Y-96928935D01*
X115508500Y-96927590D01*
X115508500Y-91000000D01*
X124486540Y-91000000D01*
X124506359Y-91315020D01*
X124565505Y-91625072D01*
X124663044Y-91925266D01*
X124664731Y-91928852D01*
X124664733Y-91928856D01*
X124795750Y-92207283D01*
X124795754Y-92207290D01*
X124797438Y-92210869D01*
X124966568Y-92477375D01*
X125167767Y-92720582D01*
X125397860Y-92936654D01*
X125653221Y-93122184D01*
X125929821Y-93274247D01*
X125933490Y-93275700D01*
X125933495Y-93275702D01*
X126219628Y-93388990D01*
X126223298Y-93390443D01*
X126529025Y-93468940D01*
X126842179Y-93508500D01*
X127157821Y-93508500D01*
X127470975Y-93468940D01*
X127776702Y-93390443D01*
X127780372Y-93388990D01*
X128066505Y-93275702D01*
X128066510Y-93275700D01*
X128070179Y-93274247D01*
X128346779Y-93122184D01*
X128602140Y-92936654D01*
X128832233Y-92720582D01*
X129033432Y-92477375D01*
X129202562Y-92210869D01*
X129204246Y-92207290D01*
X129204250Y-92207283D01*
X129335267Y-91928856D01*
X129335269Y-91928852D01*
X129336956Y-91925266D01*
X129434495Y-91625072D01*
X129493641Y-91315020D01*
X129513460Y-91000000D01*
X129493641Y-90684980D01*
X129434495Y-90374928D01*
X129336956Y-90074734D01*
X129330667Y-90061369D01*
X129204250Y-89792717D01*
X129204246Y-89792710D01*
X129202562Y-89789131D01*
X129033432Y-89522625D01*
X128832233Y-89279418D01*
X128602140Y-89063346D01*
X128346779Y-88877816D01*
X128070179Y-88725753D01*
X128066510Y-88724300D01*
X128066505Y-88724298D01*
X127780372Y-88611010D01*
X127780371Y-88611010D01*
X127776702Y-88609557D01*
X127470975Y-88531060D01*
X127157821Y-88491500D01*
X126842179Y-88491500D01*
X126529025Y-88531060D01*
X126223298Y-88609557D01*
X126219629Y-88611010D01*
X126219628Y-88611010D01*
X125933495Y-88724298D01*
X125933490Y-88724300D01*
X125929821Y-88725753D01*
X125653221Y-88877816D01*
X125397860Y-89063346D01*
X125167767Y-89279418D01*
X124966568Y-89522625D01*
X124797438Y-89789131D01*
X124795754Y-89792710D01*
X124795750Y-89792717D01*
X124669333Y-90061369D01*
X124663044Y-90074734D01*
X124565505Y-90374928D01*
X124506359Y-90684980D01*
X124488833Y-90963559D01*
X124486540Y-91000000D01*
X115508500Y-91000000D01*
X115508500Y-70000000D01*
X124486540Y-70000000D01*
X124506359Y-70315020D01*
X124565505Y-70625072D01*
X124663044Y-70925266D01*
X124664731Y-70928852D01*
X124664733Y-70928856D01*
X124795750Y-71207283D01*
X124795754Y-71207290D01*
X124797438Y-71210869D01*
X124966568Y-71477375D01*
X125167767Y-71720582D01*
X125397860Y-71936654D01*
X125653221Y-72122184D01*
X125929821Y-72274247D01*
X125933490Y-72275700D01*
X125933495Y-72275702D01*
X126219628Y-72388990D01*
X126223298Y-72390443D01*
X126529025Y-72468940D01*
X126842179Y-72508500D01*
X127157821Y-72508500D01*
X127470975Y-72468940D01*
X127776702Y-72390443D01*
X127780372Y-72388990D01*
X128066505Y-72275702D01*
X128066510Y-72275700D01*
X128070179Y-72274247D01*
X128346779Y-72122184D01*
X128602140Y-71936654D01*
X128832233Y-71720582D01*
X129033432Y-71477375D01*
X129202562Y-71210869D01*
X129204246Y-71207290D01*
X129204250Y-71207283D01*
X129335267Y-70928856D01*
X129335269Y-70928852D01*
X129336956Y-70925266D01*
X129434495Y-70625072D01*
X129493641Y-70315020D01*
X129513460Y-70000000D01*
X129493641Y-69684980D01*
X129434495Y-69374928D01*
X129336956Y-69074734D01*
X129330667Y-69061369D01*
X129204250Y-68792717D01*
X129204246Y-68792710D01*
X129202562Y-68789131D01*
X129033432Y-68522625D01*
X128832233Y-68279418D01*
X128602140Y-68063346D01*
X128346779Y-67877816D01*
X128070179Y-67725753D01*
X128066510Y-67724300D01*
X128066505Y-67724298D01*
X127780372Y-67611010D01*
X127780371Y-67611010D01*
X127776702Y-67609557D01*
X127470975Y-67531060D01*
X127157821Y-67491500D01*
X126842179Y-67491500D01*
X126529025Y-67531060D01*
X126223298Y-67609557D01*
X126219629Y-67611010D01*
X126219628Y-67611010D01*
X125933495Y-67724298D01*
X125933490Y-67724300D01*
X125929821Y-67725753D01*
X125653221Y-67877816D01*
X125397860Y-68063346D01*
X125167767Y-68279418D01*
X124966568Y-68522625D01*
X124797438Y-68789131D01*
X124795754Y-68792710D01*
X124795750Y-68792717D01*
X124669333Y-69061369D01*
X124663044Y-69074734D01*
X124565505Y-69374928D01*
X124506359Y-69684980D01*
X124488833Y-69963559D01*
X124486540Y-70000000D01*
X115508500Y-70000000D01*
X115508500Y-65500000D01*
X119386496Y-65500000D01*
X119406458Y-65689928D01*
X119465473Y-65871556D01*
X119560960Y-66036944D01*
X119688747Y-66178866D01*
X119843248Y-66291118D01*
X119849276Y-66293802D01*
X119849278Y-66293803D01*
X120011681Y-66366109D01*
X120017712Y-66368794D01*
X120111113Y-66388647D01*
X120198056Y-66407128D01*
X120198061Y-66407128D01*
X120204513Y-66408500D01*
X120395487Y-66408500D01*
X120401939Y-66407128D01*
X120401944Y-66407128D01*
X120488887Y-66388647D01*
X120582288Y-66368794D01*
X120588319Y-66366109D01*
X120750722Y-66293803D01*
X120750724Y-66293802D01*
X120756752Y-66291118D01*
X120837344Y-66232564D01*
X120904211Y-66208706D01*
X120911405Y-66208500D01*
X133688595Y-66208500D01*
X133756716Y-66228502D01*
X133762656Y-66232564D01*
X133843248Y-66291118D01*
X133849276Y-66293802D01*
X133849278Y-66293803D01*
X134011681Y-66366109D01*
X134017712Y-66368794D01*
X134111113Y-66388647D01*
X134198056Y-66407128D01*
X134198061Y-66407128D01*
X134204513Y-66408500D01*
X134395487Y-66408500D01*
X134401939Y-66407128D01*
X134401944Y-66407128D01*
X134488887Y-66388647D01*
X134582288Y-66368794D01*
X134588319Y-66366109D01*
X134750722Y-66293803D01*
X134750724Y-66293802D01*
X134756752Y-66291118D01*
X134911253Y-66178866D01*
X135039040Y-66036944D01*
X135134527Y-65871556D01*
X135193542Y-65689928D01*
X135213504Y-65500000D01*
X135193542Y-65310072D01*
X135134527Y-65128444D01*
X135039040Y-64963056D01*
X134911253Y-64821134D01*
X134756752Y-64708882D01*
X134750724Y-64706198D01*
X134750722Y-64706197D01*
X134588319Y-64633891D01*
X134588318Y-64633891D01*
X134582288Y-64631206D01*
X134488887Y-64611353D01*
X134401944Y-64592872D01*
X134401939Y-64592872D01*
X134395487Y-64591500D01*
X134204513Y-64591500D01*
X134198061Y-64592872D01*
X134198056Y-64592872D01*
X134111113Y-64611353D01*
X134017712Y-64631206D01*
X134011682Y-64633891D01*
X134011681Y-64633891D01*
X133849278Y-64706197D01*
X133849276Y-64706198D01*
X133843248Y-64708882D01*
X133837907Y-64712762D01*
X133837906Y-64712763D01*
X133762656Y-64767436D01*
X133695789Y-64791294D01*
X133688595Y-64791500D01*
X120911405Y-64791500D01*
X120843284Y-64771498D01*
X120837344Y-64767436D01*
X120762094Y-64712763D01*
X120762093Y-64712762D01*
X120756752Y-64708882D01*
X120750724Y-64706198D01*
X120750722Y-64706197D01*
X120588319Y-64633891D01*
X120588318Y-64633891D01*
X120582288Y-64631206D01*
X120488887Y-64611353D01*
X120401944Y-64592872D01*
X120401939Y-64592872D01*
X120395487Y-64591500D01*
X120204513Y-64591500D01*
X120198061Y-64592872D01*
X120198056Y-64592872D01*
X120111113Y-64611353D01*
X120017712Y-64631206D01*
X120011682Y-64633891D01*
X120011681Y-64633891D01*
X119849278Y-64706197D01*
X119849276Y-64706198D01*
X119843248Y-64708882D01*
X119688747Y-64821134D01*
X119560960Y-64963056D01*
X119465473Y-65128444D01*
X119406458Y-65310072D01*
X119386496Y-65500000D01*
X115508500Y-65500000D01*
X115508500Y-30008623D01*
X115508502Y-30007853D01*
X115508800Y-29959102D01*
X115508976Y-29930279D01*
X115500850Y-29901847D01*
X115497272Y-29885085D01*
X115494352Y-29864698D01*
X115493080Y-29855813D01*
X115482451Y-29832436D01*
X115476004Y-29814913D01*
X115471416Y-29798862D01*
X115468949Y-29790229D01*
X115464156Y-29782632D01*
X115453170Y-29765220D01*
X115445030Y-29750135D01*
X115442564Y-29744711D01*
X115432792Y-29723218D01*
X115416030Y-29703765D01*
X115404927Y-29688761D01*
X115391224Y-29667042D01*
X115384499Y-29661103D01*
X115384496Y-29661099D01*
X115369062Y-29647468D01*
X115357018Y-29635276D01*
X115343573Y-29619673D01*
X115343570Y-29619671D01*
X115337713Y-29612873D01*
X115324009Y-29603990D01*
X115316165Y-29598906D01*
X115301291Y-29587615D01*
X115288783Y-29576569D01*
X115288782Y-29576568D01*
X115282049Y-29570622D01*
X115255287Y-29558057D01*
X115240309Y-29549737D01*
X115223017Y-29538529D01*
X115223012Y-29538527D01*
X115215485Y-29533648D01*
X115206892Y-29531078D01*
X115206887Y-29531076D01*
X115190880Y-29526289D01*
X115173436Y-29519628D01*
X115158324Y-29512533D01*
X115158322Y-29512532D01*
X115150200Y-29508719D01*
X115141333Y-29507338D01*
X115141332Y-29507338D01*
X115130478Y-29505648D01*
X115120983Y-29504170D01*
X115104268Y-29500387D01*
X115084534Y-29494485D01*
X115084528Y-29494484D01*
X115075934Y-29491914D01*
X115066963Y-29491859D01*
X115066962Y-29491859D01*
X115056903Y-29491798D01*
X115041494Y-29491704D01*
X115040711Y-29491671D01*
X115039614Y-29491500D01*
X115008623Y-29491500D01*
X115007853Y-29491498D01*
X114934215Y-29491048D01*
X114934214Y-29491048D01*
X114930279Y-29491024D01*
X114928935Y-29491408D01*
X114927590Y-29491500D01*
X110008623Y-29491500D01*
X110007853Y-29491498D01*
X110007037Y-29491493D01*
X109930279Y-29491024D01*
X109907918Y-29497415D01*
X109901847Y-29499150D01*
X109885085Y-29502728D01*
X109855813Y-29506920D01*
X109847645Y-29510634D01*
X109847644Y-29510634D01*
X109832438Y-29517548D01*
X109814914Y-29523996D01*
X109790229Y-29531051D01*
X109782635Y-29535843D01*
X109782632Y-29535844D01*
X109765220Y-29546830D01*
X109750137Y-29554969D01*
X109723218Y-29567208D01*
X109716416Y-29573069D01*
X109703765Y-29583970D01*
X109688761Y-29595073D01*
X109667042Y-29608776D01*
X109661103Y-29615501D01*
X109661099Y-29615504D01*
X109647468Y-29630938D01*
X109635276Y-29642982D01*
X109619673Y-29656427D01*
X109619671Y-29656430D01*
X109612873Y-29662287D01*
X109607993Y-29669816D01*
X109607992Y-29669817D01*
X109598906Y-29683835D01*
X109587615Y-29698709D01*
X109576569Y-29711217D01*
X109570622Y-29717951D01*
X109564312Y-29731391D01*
X109558058Y-29744711D01*
X109549737Y-29759691D01*
X109538529Y-29776983D01*
X109538527Y-29776988D01*
X109533648Y-29784515D01*
X109531078Y-29793108D01*
X109531076Y-29793113D01*
X109526289Y-29809120D01*
X109519628Y-29826564D01*
X109512533Y-29841676D01*
X109508719Y-29849800D01*
X109507338Y-29858667D01*
X109507338Y-29858668D01*
X109504170Y-29879015D01*
X109500387Y-29895732D01*
X109494485Y-29915466D01*
X109494484Y-29915472D01*
X109491914Y-29924066D01*
X109491859Y-29933037D01*
X109491859Y-29933038D01*
X109491704Y-29958497D01*
X109491671Y-29959289D01*
X109491500Y-29960386D01*
X109491500Y-29991377D01*
X109491498Y-29992147D01*
X109491024Y-30069721D01*
X109491408Y-30071065D01*
X109491500Y-30072410D01*
X109491500Y-96991377D01*
X109491498Y-96992147D01*
X109491024Y-97069721D01*
X107000000Y-97069721D01*
X107000000Y-25000000D01*
X107486540Y-25000000D01*
X107506359Y-25315020D01*
X107565505Y-25625072D01*
X107566732Y-25628848D01*
X107659933Y-25915690D01*
X107663044Y-25925266D01*
X107664731Y-25928852D01*
X107664733Y-25928856D01*
X107795750Y-26207283D01*
X107795754Y-26207290D01*
X107797438Y-26210869D01*
X107966568Y-26477375D01*
X107982680Y-26496851D01*
X108112824Y-26654167D01*
X108167767Y-26720582D01*
X108397860Y-26936654D01*
X108653221Y-27122184D01*
X108656690Y-27124091D01*
X108656693Y-27124093D01*
X108842706Y-27226355D01*
X108929821Y-27274247D01*
X108933490Y-27275700D01*
X108933495Y-27275702D01*
X109088761Y-27337176D01*
X109223298Y-27390443D01*
X109529025Y-27468940D01*
X109842179Y-27508500D01*
X110157821Y-27508500D01*
X110470975Y-27468940D01*
X110776702Y-27390443D01*
X110911239Y-27337176D01*
X111066505Y-27275702D01*
X111066510Y-27275700D01*
X111070179Y-27274247D01*
X111157294Y-27226355D01*
X111343307Y-27124093D01*
X111343310Y-27124091D01*
X111346779Y-27122184D01*
X111602140Y-26936654D01*
X111832233Y-26720582D01*
X111887177Y-26654167D01*
X112017320Y-26496851D01*
X112033432Y-26477375D01*
X112048368Y-26453839D01*
X133987173Y-26453839D01*
X133987397Y-26458505D01*
X133987397Y-26458510D01*
X133988450Y-26480427D01*
X133988893Y-26489647D01*
X133999713Y-26714908D01*
X134050704Y-26971256D01*
X134139026Y-27217252D01*
X134141242Y-27221376D01*
X134231304Y-27388990D01*
X134262737Y-27447491D01*
X134265532Y-27451234D01*
X134265534Y-27451237D01*
X134416330Y-27653177D01*
X134416335Y-27653183D01*
X134419122Y-27656915D01*
X134422431Y-27660195D01*
X134422436Y-27660201D01*
X134601426Y-27837635D01*
X134604743Y-27840923D01*
X134608505Y-27843681D01*
X134608508Y-27843684D01*
X134811750Y-27992707D01*
X134815524Y-27995474D01*
X134819667Y-27997654D01*
X134819669Y-27997655D01*
X135042684Y-28114989D01*
X135042689Y-28114991D01*
X135046834Y-28117172D01*
X135293590Y-28203344D01*
X135298183Y-28204216D01*
X135545785Y-28251224D01*
X135545788Y-28251224D01*
X135550374Y-28252095D01*
X135680959Y-28257226D01*
X135806875Y-28262174D01*
X135806881Y-28262174D01*
X135811543Y-28262357D01*
X135890977Y-28253657D01*
X136066707Y-28234412D01*
X136066712Y-28234411D01*
X136071360Y-28233902D01*
X136184116Y-28204216D01*
X136319594Y-28168548D01*
X136319596Y-28168547D01*
X136324117Y-28167357D01*
X136564262Y-28064182D01*
X136786519Y-27926646D01*
X136790082Y-27923629D01*
X136790087Y-27923626D01*
X136982439Y-27760787D01*
X136982440Y-27760786D01*
X136986005Y-27757768D01*
X137077729Y-27653177D01*
X137155257Y-27564774D01*
X137155261Y-27564769D01*
X137158339Y-27561259D01*
X137217721Y-27468940D01*
X137297205Y-27345367D01*
X137299733Y-27341437D01*
X137407083Y-27103129D01*
X137478030Y-26851572D01*
X137495082Y-26717530D01*
X137510616Y-26595421D01*
X137510616Y-26595417D01*
X137511014Y-26592291D01*
X137513431Y-26500000D01*
X137494061Y-26239348D01*
X137490083Y-26221765D01*
X137437408Y-25988980D01*
X137436377Y-25984423D01*
X137417603Y-25936146D01*
X137343340Y-25745176D01*
X137343339Y-25745173D01*
X137341647Y-25740823D01*
X137211951Y-25513902D01*
X137050138Y-25308643D01*
X136859763Y-25129557D01*
X136678714Y-25003958D01*
X136673009Y-25000000D01*
X143486540Y-25000000D01*
X143506359Y-25315020D01*
X143565505Y-25625072D01*
X143566732Y-25628848D01*
X143659933Y-25915690D01*
X143663044Y-25925266D01*
X143664731Y-25928852D01*
X143664733Y-25928856D01*
X143795750Y-26207283D01*
X143795754Y-26207290D01*
X143797438Y-26210869D01*
X143966568Y-26477375D01*
X143982680Y-26496851D01*
X144112824Y-26654167D01*
X144167767Y-26720582D01*
X144397860Y-26936654D01*
X144653221Y-27122184D01*
X144656690Y-27124091D01*
X144656693Y-27124093D01*
X144842706Y-27226355D01*
X144929821Y-27274247D01*
X144933490Y-27275700D01*
X144933495Y-27275702D01*
X145088761Y-27337176D01*
X145223298Y-27390443D01*
X145529025Y-27468940D01*
X145842179Y-27508500D01*
X146157821Y-27508500D01*
X146470975Y-27468940D01*
X146776702Y-27390443D01*
X146911239Y-27337176D01*
X147066505Y-27275702D01*
X147066510Y-27275700D01*
X147070179Y-27274247D01*
X147157294Y-27226355D01*
X147343307Y-27124093D01*
X147343310Y-27124091D01*
X147346779Y-27122184D01*
X147602140Y-26936654D01*
X147832233Y-26720582D01*
X147887177Y-26654167D01*
X148017320Y-26496851D01*
X148033432Y-26477375D01*
X148202562Y-26210869D01*
X148204246Y-26207290D01*
X148204250Y-26207283D01*
X148335267Y-25928856D01*
X148335269Y-25928852D01*
X148336956Y-25925266D01*
X148340068Y-25915690D01*
X148433268Y-25628848D01*
X148434495Y-25625072D01*
X148493641Y-25315020D01*
X148513460Y-25000000D01*
X148493641Y-24684980D01*
X148434495Y-24374928D01*
X148336956Y-24074734D01*
X148330667Y-24061369D01*
X148204250Y-23792717D01*
X148204246Y-23792710D01*
X148202562Y-23789131D01*
X148033432Y-23522625D01*
X147832233Y-23279418D01*
X147602140Y-23063346D01*
X147346779Y-22877816D01*
X147070179Y-22725753D01*
X147066510Y-22724300D01*
X147066505Y-22724298D01*
X146780372Y-22611010D01*
X146780371Y-22611010D01*
X146776702Y-22609557D01*
X146470975Y-22531060D01*
X146157821Y-22491500D01*
X145842179Y-22491500D01*
X145529025Y-22531060D01*
X145223298Y-22609557D01*
X145219629Y-22611010D01*
X145219628Y-22611010D01*
X144933495Y-22724298D01*
X144933490Y-22724300D01*
X144929821Y-22725753D01*
X144653221Y-22877816D01*
X144397860Y-23063346D01*
X144167767Y-23279418D01*
X143966568Y-23522625D01*
X143797438Y-23789131D01*
X143795754Y-23792710D01*
X143795750Y-23792717D01*
X143669333Y-24061369D01*
X143663044Y-24074734D01*
X143565505Y-24374928D01*
X143506359Y-24684980D01*
X143500048Y-24785293D01*
X143489204Y-24957668D01*
X143488833Y-24963559D01*
X143486540Y-25000000D01*
X136673009Y-25000000D01*
X136648851Y-24983241D01*
X136648848Y-24983239D01*
X136645009Y-24980576D01*
X136610498Y-24963557D01*
X136414781Y-24867040D01*
X136414778Y-24867039D01*
X136410593Y-24864975D01*
X136364449Y-24850204D01*
X136166123Y-24786720D01*
X136161665Y-24785293D01*
X135903693Y-24743279D01*
X135789942Y-24741790D01*
X135647022Y-24739919D01*
X135647019Y-24739919D01*
X135642345Y-24739858D01*
X135383362Y-24775104D01*
X135132433Y-24848243D01*
X135128180Y-24850203D01*
X135128179Y-24850204D01*
X135091659Y-24867040D01*
X134895072Y-24957668D01*
X134856067Y-24983241D01*
X134680404Y-25098410D01*
X134680399Y-25098414D01*
X134676491Y-25100976D01*
X134481494Y-25275018D01*
X134314363Y-25475970D01*
X134311934Y-25479973D01*
X134195116Y-25672484D01*
X134178771Y-25699419D01*
X134077697Y-25940455D01*
X134013359Y-26193783D01*
X134012891Y-26198434D01*
X134012890Y-26198438D01*
X134010541Y-26221765D01*
X133987173Y-26453839D01*
X112048368Y-26453839D01*
X112202562Y-26210869D01*
X112204246Y-26207290D01*
X112204250Y-26207283D01*
X112335267Y-25928856D01*
X112335269Y-25928852D01*
X112336956Y-25925266D01*
X112340068Y-25915690D01*
X112433268Y-25628848D01*
X112434495Y-25625072D01*
X112493641Y-25315020D01*
X112513460Y-25000000D01*
X112493641Y-24684980D01*
X112434495Y-24374928D01*
X112336956Y-24074734D01*
X112330667Y-24061369D01*
X112204250Y-23792717D01*
X112204246Y-23792710D01*
X112202562Y-23789131D01*
X112033432Y-23522625D01*
X111832233Y-23279418D01*
X111602140Y-23063346D01*
X111346779Y-22877816D01*
X111070179Y-22725753D01*
X111066510Y-22724300D01*
X111066505Y-22724298D01*
X110780372Y-22611010D01*
X110780371Y-22611010D01*
X110776702Y-22609557D01*
X110470975Y-22531060D01*
X110157821Y-22491500D01*
X109842179Y-22491500D01*
X109529025Y-22531060D01*
X109223298Y-22609557D01*
X109219629Y-22611010D01*
X109219628Y-22611010D01*
X108933495Y-22724298D01*
X108933490Y-22724300D01*
X108929821Y-22725753D01*
X108653221Y-22877816D01*
X108397860Y-23063346D01*
X108167767Y-23279418D01*
X107966568Y-23522625D01*
X107797438Y-23789131D01*
X107795754Y-23792710D01*
X107795750Y-23792717D01*
X107669333Y-24061369D01*
X107663044Y-24074734D01*
X107565505Y-24374928D01*
X107506359Y-24684980D01*
X107500048Y-24785293D01*
X107489204Y-24957668D01*
X107488833Y-24963559D01*
X107486540Y-25000000D01*
X107000000Y-25000000D01*
X107000000Y-22126000D01*
X107020002Y-22057879D01*
X107073658Y-22011386D01*
X107126000Y-22000000D01*
X148874000Y-22000000D01*
X148942121Y-22020002D01*
G37*
%TD.AperFunction*%
%TD*%
M02*
