M48
; DRILL file {KiCad 6.0.7+dfsg-1build1} date St 22. marec 2023, 19:43:29
; FORMAT={-:-/ absolute / metric / decimal}
; #@! TF.CreationDate,2023-03-22T19:43:29+01:00
; #@! TF.GenerationSoftware,Kicad,Pcbnew,6.0.7+dfsg-1build1
; #@! TF.FileFunction,Plated,1,2,PTH
FMAT,2
METRIC
; #@! TA.AperFunction,Plated,PTH,ViaDrill
T1C0.400
; #@! TA.AperFunction,Plated,PTH,ComponentDrill
T2C0.762
; #@! TA.AperFunction,Plated,PTH,ComponentDrill
T3C1.000
%
G90
G05
T1
X112.0Y-27.0
X112.0Y-149.5
X112.0Y-152.0
X112.0Y-154.5
X114.5Y-27.0
X114.5Y-152.0
X114.5Y-154.5
X114.5Y-157.0
X117.0Y-27.0
X117.0Y-29.5
X117.0Y-32.0
X117.0Y-34.5
X117.0Y-37.0
X117.0Y-39.5
X117.0Y-42.0
X117.0Y-44.5
X117.0Y-47.0
X117.0Y-49.5
X117.0Y-52.0
X117.0Y-54.5
X117.0Y-57.0
X117.0Y-59.5
X117.0Y-62.0
X117.0Y-152.0
X117.0Y-154.5
X117.0Y-157.0
X119.5Y-27.0
X119.5Y-29.5
X119.5Y-32.0
X119.5Y-34.5
X119.5Y-37.0
X120.3Y-65.5
X122.0Y-27.0
X122.0Y-29.5
X122.0Y-32.0
X122.0Y-34.5
X124.5Y-27.0
X124.5Y-29.5
X124.5Y-32.0
X124.5Y-34.5
X127.0Y-27.0
X127.0Y-29.5
X127.0Y-32.0
X127.0Y-34.5
X127.0Y-154.5
X127.0Y-157.0
X129.5Y-27.0
X129.5Y-29.5
X129.5Y-32.0
X129.5Y-34.5
X129.5Y-57.0
X129.5Y-59.5
X129.5Y-62.0
X129.5Y-69.5
X129.5Y-89.5
X129.5Y-92.0
X129.5Y-154.5
X129.5Y-157.0
X132.0Y-27.0
X132.0Y-29.5
X132.0Y-32.0
X132.0Y-34.5
X132.0Y-54.5
X132.0Y-57.0
X132.0Y-59.5
X132.0Y-62.0
X132.0Y-69.5
X132.0Y-89.5
X132.0Y-92.0
X132.0Y-94.5
X132.0Y-97.0
X132.0Y-114.5
X132.0Y-117.0
X132.0Y-119.5
X132.0Y-122.0
X132.0Y-124.5
X132.0Y-127.0
X132.0Y-129.5
X132.0Y-132.0
X132.0Y-134.5
X132.0Y-154.5
X132.0Y-157.0
X134.3Y-65.5
X134.5Y-54.5
X134.5Y-59.5
X134.5Y-72.0
X134.5Y-74.5
X134.5Y-77.0
X134.5Y-87.0
X134.5Y-89.5
X134.5Y-92.0
X134.5Y-94.5
X134.5Y-97.0
X139.5Y-27.0
X142.0Y-27.0
X142.0Y-157.0
X144.5Y-72.0
X144.5Y-74.5
X144.5Y-77.0
X144.5Y-79.5
X144.5Y-82.0
X144.5Y-84.5
X144.5Y-87.0
X144.5Y-89.5
X144.5Y-92.0
T2
X130.0Y-75.0
X130.0Y-77.54
X130.0Y-80.08
X130.0Y-82.62
X130.0Y-85.16
X136.0Y-33.0
X136.0Y-35.54
X136.0Y-38.08
X136.0Y-40.62
X136.0Y-43.16
X136.0Y-45.7
X136.0Y-48.24
X136.0Y-50.78
T3
X112.5Y-106.75
X112.5Y-110.5
X112.5Y-114.25
X112.5Y-118.0
X112.5Y-121.6
X112.5Y-125.25
X112.5Y-129.0
X112.5Y-132.75
X112.5Y-136.5
X112.5Y-140.25
X112.5Y-144.0
X122.38Y-105.87
X122.38Y-108.41
X122.38Y-110.95
X122.38Y-113.49
X122.38Y-116.03
X122.38Y-118.57
X122.38Y-121.11
X122.38Y-123.65
X122.38Y-126.19
X122.38Y-128.73
X122.38Y-131.27
X122.38Y-133.81
X122.38Y-136.35
X122.38Y-138.89
X122.38Y-141.43
X122.38Y-143.97
X122.38Y-146.51
X122.38Y-149.05
X122.38Y-151.59
X122.38Y-154.13
X126.19Y-150.32
X128.73Y-150.32
X131.27Y-150.32
X133.81Y-150.32
X137.62Y-105.87
X137.62Y-108.41
X137.62Y-110.95
X137.62Y-113.49
X137.62Y-116.03
X137.62Y-118.57
X137.62Y-121.11
X137.62Y-123.65
X137.62Y-126.19
X137.62Y-128.73
X137.62Y-131.27
X137.62Y-133.81
X137.62Y-136.35
X137.62Y-138.89
X137.62Y-141.43
X137.62Y-143.97
X137.62Y-146.51
X137.62Y-149.05
X137.62Y-151.59
X137.62Y-154.13
X145.25Y-32.25
X145.25Y-36.0
X145.25Y-39.75
X145.25Y-43.5
X145.25Y-47.25
X146.0Y-97.5
X146.0Y-101.25
X146.0Y-105.25
X146.0Y-109.0
X146.0Y-112.75
X146.0Y-116.5
X146.0Y-120.25
X146.0Y-124.0
X146.0Y-127.75
X146.0Y-131.5
X146.0Y-135.25
X146.0Y-139.0
X146.0Y-142.75
X146.0Y-146.5
X146.0Y-150.25
T0
M30
